{
.appVersion = "1056";
DisplayStrings = (
"etudeurope  ",
u,
e,
B,
"   C",
E,
F,
" G",
G
);
customParameters = (
{
name = Axes;
value = (
{
Name = Weight;
Tag = wght;
}
);
}
);
date = "2018-09-15 09:11:05 +0000";
designer = "Alexandre Texier & Mael Sinic";
familyName = "24x36";
featurePrefixes = (
{
automatic = 1;
code = "languagesystem DFLT dflt;\012";
name = Languagesystems;
}
);
features = (
{
automatic = 1;
code = "feature lnum;\012feature onum;\012feature salt;\012feature ss01;\012feature ss02;\012";
name = aalt;
},
{
automatic = 1;
code = "sub zero.osf by zero;\012sub one.osf by one;\012sub two.osf by two;\012sub three.osf by three;\012sub four.osf by four;\012sub five.osf by five;\012sub six.osf by six;\012sub seven.osf by seven;\012sub eight.osf by eight;\012sub nine.osf by nine;\012";
name = lnum;
},
{
automatic = 1;
code = "sub zero by zero.osf;\012sub one by one.osf;\012sub two by two.osf;\012sub three by three.osf;\012sub four by four.osf;\012sub five by five.osf;\012sub six by six.osf;\012sub seven by seven.osf;\012sub eight by eight.osf;\012sub nine by nine.osf;\012";
name = onum;
},
{
automatic = 1;
code = "sub f t by f_t;\012";
name = dlig;
},
{
automatic = 1;
code = "sub f f l by f_f_l;\012sub f f by f_f;\012";
name = liga;
},
{
automatic = 1;
code = "sub C by C.ss01;\012sub a by a.ss01;\012sub m by m.ss01;\012sub n by n.ss01;\012sub p by p.ss01;\012sub r by r.ss01;\012sub y by y.ss01;\012";
name = salt;
},
{
automatic = 1;
code = "sub C by C.ss01;\012sub a by a.ss01;\012sub m by m.ss01;\012sub n by n.ss01;\012sub p by p.ss01;\012sub r by r.ss01;\012sub y by y.ss01;\012";
name = ss01;
},
{
automatic = 1;
code = "sub C by C.ss02;\012sub a by a.ss02;\012sub m by m.ss02;\012";
name = ss02;
}
);
fontMaster = (
{
ascender = 800;
capHeight = 700;
customParameters = (
{
name = Filter;
value = "Noodler; 0; 1; 1";
}
);
descender = -300;
guideLines = (
{
position = "{-100, 500}";
},
{
position = "{-100, 700}";
},
{
position = "{-100, -300}";
},
{

glyphs = (
{
color = 4;
glyphname = A;
lastChange = "2018-10-03 15:32:00 +0000";
layers = (
{
layerId = "25139FCF-725A-49A6-A058-8DCF5AC16622";
paths = (
{
closed = 0;
nodes = (
"547 0 LINE",
"284 800 LINE",
"20 0 LINE"
);
},
{
closed = 0;
nodes = (
"138 321 LINE",
"434 321 LINE"
);
}
);
width = 567;
},
{
layerId = "1AB63056-1127-463F-B001-FB2AC81901C9";
paths = (
{
closed = 0;
nodes = (
"547 0 LINE",
"284 800 LINE",
"20 0 LINE"
);
},
{
closed = 0;
nodes = (
"138 321 LINE",
"434 321 LINE"
);
}
);
width = 567;
},
{
associatedMasterId = "6F4F10D2-8254-4335-A627-9F8D8891324D";
layerId = "EAEE0337-7CC5-4CD4-8F2F-E2D84841D1E3";
name = path;
paths = (
{
closed = 0;
nodes = (
"547 0 LINE",
"284 800 LINE",
"20 0 LINE"
);
},
{
closed = 0;
nodes = (
"138 321 LINE",
"434 321 LINE"
);
}
);
visible = 1;
width = 567;
},
{
layerId = "6F4F10D2-8254-4335-A627-9F8D8891324D";
paths = (
{
closed = 1;
nodes = (
"29.005 -20 OFFCURVE",
"36.619 -14.049 OFFCURVE",
"39.126 -5.866 CURVE SMOOTH",
"140.391 301 LINE",
"426.993 301 LINE",
"527.865 -5.836 LINE SMOOTH",
"530.362 -14.035 OFFCURVE",
"537.984 -20 OFFCURVE",
"547 -20 CURVE SMOOTH",
"558.046 -20 OFFCURVE",
"567 -11.046 OFFCURVE",
"567 0 CURVE SMOOTH",
"567 2.34 OFFCURVE",
"566.598 4.586 OFFCURVE",
"565.859 6.673 CURVE SMOOTH",
"308.389 789.853 LINE SMOOTH",
"304.73 800.985 OFFCURVE",
"297.462 806.249 OFFCURVE",
"285.744 806.256 CURVE SMOOTH",
"282.263 806.258 LINE SMOOTH",
"270.545 806.265 OFFCURVE",
"263.271 801.009 OFFCURVE",
"259.599 789.881 CURVE SMOOTH",
"1.144 6.682 LINE SMOOTH",
"0.403 4.593 OFFCURVE",
"0 2.343 OFFCURVE",
"0 0 CURVE SMOOTH",
"0 -11.046 OFFCURVE",
"8.954 -20 OFFCURVE",
"20 -20 CURVE SMOOTH"
);
},
{
closed = 1;
nodes = (
"283.964 736.069 LINE",
"413.843 341 LINE",
"153.591 341 LINE"
);
}
);
visible = 1;
width = 567;
}
);
unicode = 0041;
},
{
color = 1;
glyphname = B;
lastChange = "2018-10-03 15:19:55 +0000";
layers = (
{
layerId = "6F4F10D2-8254-4335-A627-9F8D8891324D";
paths = (
{
closed = 1;
nodes = (
"145 -20 LINE SMOOTH",
"217 -20 OFFCURVE",
"440 -20 OFFCURVE",
"440 200 CURVE SMOOTH",
"440 354.097 OFFCURVE",
"362.72 416.864 OFFCURVE",
"284.567 442.43 CURVE",
"356.08 476.729 OFFCURVE",
"400 548.028 OFFCURVE",
"400 640 CURVE SMOOTH",
"400 820 OFFCURVE",
"220 820 OFFCURVE",
"140 820 CURVE SMOOTH",
"34.46 820 LINE SMOOTH",
"24.183 820 OFFCURVE",
"17.107 817.107 OFFCURVE",
"10 810 CURVE SMOOTH",
"2.893 802.893 OFFCURVE",
"0 795.817 OFFCURVE",
"0 785.54 CURVE SMOOTH",
"0 14.46 LINE SMOOTH",
"0 4.183 OFFCURVE",
"2.893 -2.893 OFFCURVE",
"10 -10 CURVE SMOOTH",
"17.107 -17.107 OFFCURVE",
"24.183 -20 OFFCURVE",
"34.46 -20 CURVE SMOOTH"
);
},
{
closed = 1;
nodes = (
"40 420 LINE",
"147 420 LINE SMOOTH",
"220 420 OFFCURVE",
"400 420 OFFCURVE",
"400 200 CURVE SMOOTH",
"400 20 OFFCURVE",
"217 20 OFFCURVE",
"145 20 CURVE SMOOTH",
"40 20 LINE"
);
},
{
closed = 1;
nodes = (
"167.225 460 OFFCURVE",
"155.996 460 OFFCURVE",
"147 460 CURVE SMOOTH",
"40 460 LINE",
"40 780 LINE",
"140 780 LINE SMOOTH",
"220 780 OFFCURVE",
"360 780 OFFCURVE",
"360 640 CURVE SMOOTH",
"360 530.929 OFFCURVE",
"289.071 460 OFFCURVE",
"180 460 CURVE",
"180 459.513 LINE"
);
}
);
width = 440;
},
{
layerId = "25139FCF-725A-49A6-A058-8DCF5AC16622";
paths = (
{
closed = 0;
nodes = (
"180 440 LINE",
"300 440 OFFCURVE",
"380 520 OFFCURVE",
"380 640 CURVE SMOOTH",
"380 800 OFFCURVE",
"220 800 OFFCURVE",
"140 800 CURVE SMOOTH",
"20 800 LINE",
"20 0 LINE",
"145 0 LINE SMOOTH",
"217 0 OFFCURVE",
"420 0 OFFCURVE",
"420 200 CURVE SMOOTH",
"420 440 OFFCURVE",
"220 440 OFFCURVE",
"147 440 CURVE SMOOTH",
"34 440 LINE"
);
}
);
width = 440;
},
{
layerId = "1AB63056-1127-463F-B001-FB2AC81901C9";
paths = (
{
closed = 0;
nodes = (
"180 440 LINE",
"300 440 OFFCURVE",
"380 520 OFFCURVE",
"380 640 CURVE SMOOTH",
"380 800 OFFCURVE",
"220 800 OFFCURVE",
"140 800 CURVE SMOOTH",
"20 800 LINE",
"20 0 LINE",
"145 0 LINE SMOOTH",
"217 0 OFFCURVE",
"420 0 OFFCURVE",
"420 200 CURVE SMOOTH",
"420 440 OFFCURVE",
"220 440 OFFCURVE",
"147 440 CURVE SMOOTH",
"34 440 LINE"
);
}
);
width = 440;
},
{
associatedMasterId = "6F4F10D2-8254-4335-A627-9F8D8891324D";
layerId = "8A367D76-A199-48AE-9DB0-368DCFD5F25A";
name = path;
paths = (
{
closed = 0;
nodes = (
"180 440 LINE",
"300 440 OFFCURVE",
"380 520 OFFCURVE",
"380 640 CURVE SMOOTH",
"380 800 OFFCURVE",
"220 800 OFFCURVE",
"140 800 CURVE SMOOTH",
"20 800 LINE",
"20 0 LINE",
"145 0 LINE SMOOTH",
"217 0 OFFCURVE",
"420 0 OFFCURVE",
"420 200 CURVE SMOOTH",
"420 440 OFFCURVE",
"220 440 OFFCURVE",
"147 440 CURVE SMOOTH",
"34 440 LINE"
);
}
);
width = 440;
}
);
unicode = 0042;
},
{
color = 1;
glyphname = C;
lastChange = "2018-10-03 15:33:19 +0000";
layers = (
{
layerId = "6F4F10D2-8254-4335-A627-9F8D8891324D";
paths = (
{
closed = 1;
nodes = (
"414.451 -20 OFFCURVE",
"497.96 26.711 OFFCURVE",
"548.32 117.993 CURVE SMOOTH",
"550.024 120.936 OFFCURVE",
"551 124.354 OFFCURVE",
"551 128 CURVE SMOOTH",
"551 139.046 OFFCURVE",
"542.046 148 OFFCURVE",
"531 148 CURVE SMOOTH",
"523.31 148 OFFCURVE",
"516.635 143.661 OFFCURVE",
"513.288 137.298 CURVE SMOOTH",
"469.744 58.379 OFFCURVE",
"400.735 20 OFFCURVE",
"302 20 CURVE SMOOTH",
"116.138 20 OFFCURVE",
"40 131.686 OFFCURVE",
"40 400 CURVE SMOOTH",
"40 663.724 OFFCURVE",
"119.653 780 OFFCURVE",
"302 780 CURVE SMOOTH",
"400.944 780 OFFCURVE",
"471.24 739.531 OFFCURVE",
"514.103 658.064 CURVE SMOOTH",
"517.384 651.504 OFFCURVE",
"524.166 647 OFFCURVE",
"532 647 CURVE SMOOTH",
"543.046 647 OFFCURVE",
"552 655.954 OFFCURVE",
"552 667 CURVE SMOOTH",
"552 670.509 OFFCURVE",
"551.096 673.807 OFFCURVE",
"549.508 676.674 CURVE SMOOTH",
"499.994 770.79 OFFCURVE",
"414.915 820 OFFCURVE",
"302 820 CURVE SMOOTH",
"95.288 820 OFFCURVE",
"0 685.351 OFFCURVE",
"0 400 CURVE SMOOTH",
"0 183.718 OFFCURVE",
"47.096 -20 OFFCURVE",
"302 -20 CURVE SMOOTH"
);
}
);
width = 552;
},
{
layerId = "25139FCF-725A-49A6-A058-8DCF5AC16622";
paths = (
{
closed = 0;
nodes = (
"532 667 LINE",
"489 749 OFFCURVE",
"415 800 OFFCURVE",
"302 800 CURVE SMOOTH",
"63 800 OFFCURVE",
"20 603 OFFCURVE",
"20 400 CURVE SMOOTH",
"20 186 OFFCURVE",
"63 0 OFFCURVE",
"302 0 CURVE SMOOTH",
"414 0 OFFCURVE",
"487 48 OFFCURVE",
"531 128 CURVE"
);
}
);
width = 552;
},
{
layerId = "1AB63056-1127-463F-B001-FB2AC81901C9";
paths = (
{
closed = 0;
nodes = (
"532 667 LINE",
"489 749 OFFCURVE",
"415 800 OFFCURVE",
"302 800 CURVE SMOOTH",
"63 800 OFFCURVE",
"20 603 OFFCURVE",
"20 400 CURVE SMOOTH",
"20 186 OFFCURVE",
"63 0 OFFCURVE",
"302 0 CURVE SMOOTH",
"414 0 OFFCURVE",
"487 48 OFFCURVE",
"531 128 CURVE"
);
}
);
width = 552;
},
{
associatedMasterId = "6F4F10D2-8254-4335-A627-9F8D8891324D";
layerId = "A24DD931-A4BF-412C-96B5-53B3DA73CE2E";
name = path;
paths = (
{
closed = 0;
nodes = (
"532 667 LINE",
"489 749 OFFCURVE",
"415 800 OFFCURVE",
"302 800 CURVE SMOOTH",
"63 800 OFFCURVE",
"20 603 OFFCURVE",
"20 400 CURVE SMOOTH",
"20 186 OFFCURVE",
"63 0 OFFCURVE",
"302 0 CURVE SMOOTH",
"414 0 OFFCURVE",
"487 48 OFFCURVE",
"531 128 CURVE"
);
}
);
visible = 1;
width = 552;
}
);
unicode = 0043;
},
{
color = 1;
glyphname = D;
lastChange = "2018-10-03 15:19:53 +0000";
layers = (
{
layerId = "6F4F10D2-8254-4335-A627-9F8D8891324D";
paths = (
{
closed = 1;
nodes = (
"145 -20 LINE SMOOTH",
"369.523 -20 OFFCURVE",
"496 131.167 OFFCURVE",
"496 400 CURVE SMOOTH",
"496 671.601 OFFCURVE",
"368.569 820 OFFCURVE",
"133 820 CURVE SMOOTH",
"34.46 820 LINE SMOOTH",
"24.183 820 OFFCURVE",
"17.107 817.107 OFFCURVE",
"10 810 CURVE SMOOTH",
"2.893 802.893 OFFCURVE",
"0 795.817 OFFCURVE",
"0 785.54 CURVE SMOOTH",
"0 14.46 LINE SMOOTH",
"0 4.183 OFFCURVE",
"2.893 -2.893 OFFCURVE",
"10 -10 CURVE SMOOTH",
"17.107 -17.107 OFFCURVE",
"24.183 -20 OFFCURVE",
"34.46 -20 CURVE SMOOTH"
);
},
{
closed = 1;
nodes = (
"40 780 LINE",
"133 780 LINE SMOOTH",
"345.521 780 OFFCURVE",
"456 649.908 OFFCURVE",
"456 400 CURVE SMOOTH",
"456 153.398 OFFCURVE",
"347.005 20 OFFCURVE",
"145 20 CURVE SMOOTH",
"40 20 LINE"
);
}
);
width = 496;
},
{
layerId = "25139FCF-725A-49A6-A058-8DCF5AC16622";
paths = (
{
closed = 1;
nodes = (
"20 0 LINE",
"145 0 LINE SMOOTH",
"300 0 OFFCURVE",
"476 80 OFFCURVE",
"476 400 CURVE SMOOTH",
"476 720 OFFCURVE",
"300 800 OFFCURVE",
"133 800 CURVE SMOOTH",
"20 800 LINE"
);
}
);
width = 496;
},
{
layerId = "1AB63056-1127-463F-B001-FB2AC81901C9";
paths = (
{
closed = 1;
nodes = (
"20 0 LINE",
"145 0 LINE SMOOTH",
"300 0 OFFCURVE",
"476 80 OFFCURVE",
"476 400 CURVE SMOOTH",
"476 720 OFFCURVE",
"300 800 OFFCURVE",
"133 800 CURVE SMOOTH",
"20 800 LINE"
);
}
);
width = 496;
},
{
associatedMasterId = "6F4F10D2-8254-4335-A627-9F8D8891324D";
layerId = "85BC1AA6-C1D3-4630-B584-06F73A38B585";
name = path;
paths = (
{
closed = 1;
nodes = (
"20 0 LINE",
"145 0 LINE SMOOTH",
"300 0 OFFCURVE",
"476 80 OFFCURVE",
"476 400 CURVE SMOOTH",
"476 720 OFFCURVE",
"300 800 OFFCURVE",
"133 800 CURVE SMOOTH",
"20 800 LINE"
);
}
);
width = 496;
}
);
unicode = 0044;
},
{
color = 1;
glyphname = E;
lastChange = "2018-10-03 15:34:20 +0000";
layers = (
{
layerId = "6F4F10D2-8254-4335-A627-9F8D8891324D";
paths = (
{
closed = 1;
nodes = (
"415 -20 LINE SMOOTH",
"426.046 -20 OFFCURVE",
"435 -11.046 OFFCURVE",
"435 0 CURVE SMOOTH",
"435 11.046 OFFCURVE",
"426.046 20 OFFCURVE",
"415 20 CURVE SMOOTH",
"40 20 LINE",
"40 380 LINE",
"344 380 LINE SMOOTH",
"355 380 OFFCURVE",
"364 389 OFFCURVE",
"364 400 CURVE SMOOTH",
"364 411 OFFCURVE",
"355 420 OFFCURVE",
"344 420 CURVE SMOOTH",
"40 420 LINE",
"40 780 LINE",
"415 780 LINE SMOOTH",
"426.046 780 OFFCURVE",
"435 788.954 OFFCURVE",
"435 800 CURVE SMOOTH",
"435 811.046 OFFCURVE",
"426.046 820 OFFCURVE",
"415 820 CURVE SMOOTH",
"34.46 820 LINE SMOOTH",
"24.183 820 OFFCURVE",
"17.107 817.107 OFFCURVE",
"10 810 CURVE SMOOTH",
"2.893 802.893 OFFCURVE",
"0 795.817 OFFCURVE",
"0 785.54 CURVE SMOOTH",
"0 14.46 LINE SMOOTH",
"0 4.183 OFFCURVE",
"2.893 -2.893 OFFCURVE",
"10 -10 CURVE SMOOTH",
"17.107 -17.107 OFFCURVE",
"24.183 -20 OFFCURVE",
"34.46 -20 CURVE SMOOTH"
);
}
);
width = 435;
},
{
layerId = "25139FCF-725A-49A6-A058-8DCF5AC16622";
paths = (
{
closed = 0;
nodes = (
"415 800 LINE",
"20 800 LINE",
"20 0 LINE",
"415 0 LINE"
);
},
{
closed = 0;
nodes = (
"324 400 LINE",
"20 400 LINE"
);
}
);
width = 435;
},
{
layerId = "1AB63056-1127-463F-B001-FB2AC81901C9";
paths = (
{
closed = 0;
nodes = (
"415 800 LINE",
"20 800 LINE",
"20 0 LINE",
"415 0 LINE"
);
},
{
closed = 0;
nodes = (
"324 400 LINE",
"20 400 LINE"
);
}
);
width = 435;
},
{
associatedMasterId = "6F4F10D2-8254-4335-A627-9F8D8891324D";
layerId = "318F8A7B-26DD-4F17-BC4A-3BF14152A499";
name = path;
paths = (
{
closed = 0;
nodes = (
"415 800 LINE",
"20 800 LINE",
"20 0 LINE",
"415 0 LINE"
);
},
{
closed = 0;
nodes = (
"324 400 LINE",
"20 400 LINE"
);
}
);
visible = 1;
width = 435;
}
);
unicode = 0045;
},
{
color = 1;
glyphname = F;
lastChange = "2018-10-03 15:34:27 +0000";
layers = (
{
layerId = "6F4F10D2-8254-4335-A627-9F8D8891324D";
paths = (
{
closed = 1;
nodes = (
"31.046 -20 OFFCURVE",
"40 -11.046 OFFCURVE",
"40 0 CURVE SMOOTH",
"40 380 LINE",
"344 380 LINE SMOOTH",
"355 380 OFFCURVE",
"364 389 OFFCURVE",
"364 400 CURVE SMOOTH",
"364 411 OFFCURVE",
"355 420 OFFCURVE",
"344 420 CURVE SMOOTH",
"40 420 LINE",
"40 780 LINE",
"417 780 LINE SMOOTH",
"428.046 780 OFFCURVE",
"437 788.954 OFFCURVE",
"437 800 CURVE SMOOTH",
"437 811.046 OFFCURVE",
"428.046 820 OFFCURVE",
"417 820 CURVE SMOOTH",
"34.46 820 LINE SMOOTH",
"24.183 820 OFFCURVE",
"17.107 817.107 OFFCURVE",
"10 810 CURVE SMOOTH",
"2.893 802.893 OFFCURVE",
"0 795.817 OFFCURVE",
"0 785.54 CURVE SMOOTH",
"0 0 LINE SMOOTH",
"0 -11.046 OFFCURVE",
"8.954 -20 OFFCURVE",
"20 -20 CURVE SMOOTH"
);
}
);
width = 437;
},
{
layerId = "25139FCF-725A-49A6-A058-8DCF5AC16622";
paths = (
{
closed = 0;
nodes = (
"417 800 LINE",
"20 800 LINE",
"20 0 LINE"
);
},
{
closed = 0;
nodes = (
"324 400 LINE",
"20 400 LINE"
);
}
);
width = 437;
},
{
layerId = "1AB63056-1127-463F-B001-FB2AC81901C9";
paths = (
{
closed = 0;
nodes = (
"417 800 LINE",
"20 800 LINE",
"20 0 LINE"
);
},
{
closed = 0;
nodes = (
"324 400 LINE",
"20 400 LINE"
);
}
);
width = 437;
},
{
associatedMasterId = "6F4F10D2-8254-4335-A627-9F8D8891324D";
layerId = "3631285E-E3C7-4A6F-9383-73F4C77534C8";
name = path;
paths = (
{
closed = 0;
nodes = (
"417 800 LINE",
"20 800 LINE",
"20 0 LINE"
);
},
{
closed = 0;
nodes = (
"324 400 LINE",
"20 400 LINE"
);
}
);
visible = 1;
width = 437;
}
);
unicode = 0046;
},
{
glyphname = G;
lastChange = "2018-10-03 15:44:48 +0000";
layers = (
{
layerId = "6F4F10D2-8254-4335-A627-9F8D8891324D";
paths = (
{
closed = 1;
nodes = (
"412.626 -20 OFFCURVE",
"528.891 34.759 OFFCURVE",
"574.734 108.248 CURVE SMOOTH",
"579.471 116 OFFCURVE",
"581.047 119.997 OFFCURVE",
"581.876 123.394 CURVE SMOOTH",
"582.705 126.792 OFFCURVE",
"583 131.21 OFFCURVE",
"583 140.239 CURVE SMOOTH",
"583 336.54 LINE SMOOTH",
"583 346.817 OFFCURVE",
"580.107 353.893 OFFCURVE",
"573 361 CURVE SMOOTH",
"565.893 368.107 OFFCURVE",
"558.817 371 OFFCURVE",
"548.54 371 CURVE SMOOTH",
"333 371 LINE SMOOTH",
"321.954 371 OFFCURVE",
"313 362.046 OFFCURVE",
"313 351 CURVE SMOOTH",
"313 339.954 OFFCURVE",
"321.954 331 OFFCURVE",
"333 331 CURVE SMOOTH",
"543 331 LINE",
"543 133.095 LINE",
"507.071 70.339 OFFCURVE",
"401.096 20 OFFCURVE",
"302 20 CURVE SMOOTH",
"116.138 20 OFFCURVE",
"40 131.686 OFFCURVE",
"40 400 CURVE SMOOTH",
"40 663.724 OFFCURVE",
"119.653 780 OFFCURVE",
"302 780 CURVE SMOOTH",
"400.944 780 OFFCURVE",
"471.24 739.531 OFFCURVE",
"514.103 658.064 CURVE SMOOTH",
"517.384 651.504 OFFCURVE",
"524.166 647 OFFCURVE",
"532 647 CURVE SMOOTH",
"543.046 647 OFFCURVE",
"552 655.954 OFFCURVE",
"552 667 CURVE SMOOTH",
"552 670.509 OFFCURVE",
"551.096 673.807 OFFCURVE",
"549.508 676.674 CURVE SMOOTH",
"499.994 770.79 OFFCURVE",
"414.915 820 OFFCURVE",
"302 820 CURVE SMOOTH",
"95.288 820 OFFCURVE",
"0 685.351 OFFCURVE",
"0 400 CURVE SMOOTH",
"0 183.718 OFFCURVE",
"47.096 -20 OFFCURVE",
"302 -20 CURVE SMOOTH"
);
}
);
width = 583;
},
{
layerId = "25139FCF-725A-49A6-A058-8DCF5AC16622";
paths = (
{
closed = 0;
nodes = (
"532 667 LINE",
"489 749 OFFCURVE",
"415 800 OFFCURVE",
"302 800 CURVE SMOOTH",
"63 800 OFFCURVE",
"20 603 OFFCURVE",
"20 400 CURVE SMOOTH",
"20 186 OFFCURVE",
"63 0 OFFCURVE",
"302 0 CURVE SMOOTH",
"399 0 OFFCURVE",
"522 49 OFFCURVE",
"563 128 CURVE",
"563 351 LINE",
"333 351 LINE"
);
}
);
width = 583;
},
{
layerId = "1AB63056-1127-463F-B001-FB2AC81901C9";
paths = (
{
closed = 0;
nodes = (
"532 667 LINE",
"489 749 OFFCURVE",
"415 800 OFFCURVE",
"302 800 CURVE SMOOTH",
"63 800 OFFCURVE",
"20 603 OFFCURVE",
"20 400 CURVE SMOOTH",
"20 186 OFFCURVE",
"63 0 OFFCURVE",
"302 0 CURVE SMOOTH",
"399 0 OFFCURVE",
"522 49 OFFCURVE",
"563 128 CURVE",
"563 351 LINE",
"333 351 LINE"
);
}
);
width = 583;
},
{
associatedMasterId = "6F4F10D2-8254-4335-A627-9F8D8891324D";
layerId = "FC98F0E2-EADE-40FC-8203-C765818E7099";
name = path;
paths = (
{
closed = 0;
nodes = (
"532 667 LINE",
"489 749 OFFCURVE",
"415 800 OFFCURVE",
"302 800 CURVE SMOOTH",
"63 800 OFFCURVE",
"20 603 OFFCURVE",
"20 400 CURVE SMOOTH",
"20 186 OFFCURVE",
"63 0 OFFCURVE",
"302 0 CURVE SMOOTH",
"399 0 OFFCURVE",
"522 49 OFFCURVE",
"563 128 CURVE",
"563 351 LINE",
"333 351 LINE"
);
}
);
visible = 1;
width = 583;
},
{
associatedMasterId = "6F4F10D2-8254-4335-A627-9F8D8891324D";
layerId = "39057D74-2CF7-4622-9EF6-2B96468F0349";
name = "50";
paths = (
{
closed = 1;
nodes = (
"404.465 -25 OFFCURVE",
"500.208 25.342 OFFCURVE",
"547.688 103.178 CURVE SMOOTH",
"553.555 112.99 OFFCURVE",
"555.559 117.996 OFFCURVE",
"556.595 122.242 CURVE SMOOTH",
"557.632 126.49 OFFCURVE",
"558 132.012 OFFCURVE",
"558 143.298 CURVE SMOOTH",
"558 281.925 LINE SMOOTH",
"558 294.772 OFFCURVE",
"554.384 303.616 OFFCURVE",
"545.5 312.5 CURVE SMOOTH",
"536.616 321.384 OFFCURVE",
"527.772 325 OFFCURVE",
"514.925 325 CURVE SMOOTH",
"333 325 LINE SMOOTH",
"319.193 325 OFFCURVE",
"308 313.807 OFFCURVE",
"308 300 CURVE SMOOTH",
"308 286.193 OFFCURVE",
"319.193 275 OFFCURVE",
"333 275 CURVE SMOOTH",
"508 275 LINE",
"508 134.32 LINE",
"470.78 68.173 OFFCURVE",
"390.127 25 OFFCURVE",
"302 25 CURVE SMOOTH",
"138.083 25 OFFCURVE",
"65 126.464 OFFCURVE",
"65 350 CURVE SMOOTH",
"65 451.839 OFFCURVE",
"85.78 675 OFFCURVE",
"302 675 CURVE SMOOTH",
"398.898 675 OFFCURVE",
"467.757 635.381 OFFCURVE",
"509.656 555.776 CURVE SMOOTH",
"513.768 547.606 OFFCURVE",
"522.229 542 OFFCURVE",
"532 542 CURVE SMOOTH",
"545.807 542 OFFCURVE",
"557 553.193 OFFCURVE",
"557 567 CURVE SMOOTH",
"557 571.366 OFFCURVE",
"555.88 575.471 OFFCURVE",
"553.913 579.043 CURVE SMOOTH",
"503.427 674.974 OFFCURVE",
"416.948 725 OFFCURVE",
"302 725 CURVE SMOOTH",
"118.528 725 OFFCURVE",
"15 585.072 OFFCURVE",
"15 350 CURVE SMOOTH",
"15 208.635 OFFCURVE",
"40.589 -25 OFFCURVE",
"302 -25 CURVE SMOOTH"
);
}
);
width = 583;
},
{
associatedMasterId = "6F4F10D2-8254-4335-A627-9F8D8891324D";
layerId = "2D83411B-4E6B-4769-87C4-933289F2ABCB";
name = "70";
paths = (
{
closed = 1;
nodes = (
"405.991 -35 OFFCURVE",
"503.106 15.091 OFFCURVE",
"553.34 93.358 CURVE SMOOTH",
"561.866 106.936 OFFCURVE",
"564.582 113.994 OFFCURVE",
"566.033 119.938 CURVE SMOOTH",
"567.484 125.886 OFFCURVE",
"568 133.617 OFFCURVE",
"568 149.418 CURVE SMOOTH",
"568 274.696 LINE SMOOTH",
"568 292.68 OFFCURVE",
"562.938 305.062 OFFCURVE",
"550.5 317.5 CURVE SMOOTH",
"538.062 329.938 OFFCURVE",
"525.68 335 OFFCURVE",
"507.696 335 CURVE SMOOTH",
"333 335 LINE SMOOTH",
"313.67 335 OFFCURVE",
"298 319.33 OFFCURVE",
"298 300 CURVE SMOOTH",
"298 280.67 OFFCURVE",
"313.67 265 OFFCURVE",
"333 265 CURVE SMOOTH",
"498 265 LINE",
"498 136.981 LINE",
"462.041 75.347 OFFCURVE",
"385.502 35 OFFCURVE",
"302 35 CURVE SMOOTH",
"143.724 35 OFFCURVE",
"75 132.205 OFFCURVE",
"75 350 CURVE SMOOTH",
"75 451.374 OFFCURVE",
"94.892 665 OFFCURVE",
"302 665 CURVE SMOOTH",
"395.106 665 OFFCURVE",
"460.575 627.412 OFFCURVE",
"500.707 551.307 CURVE SMOOTH",
"506.46 539.857 OFFCURVE",
"518.312 532 OFFCURVE",
"532 532 CURVE SMOOTH",
"551.33 532 OFFCURVE",
"567 547.67 OFFCURVE",
"567 567 CURVE SMOOTH",
"567 573.121 OFFCURVE",
"565.428 578.874 OFFCURVE",
"562.667 583.88 CURVE SMOOTH",
"510.537 682.786 OFFCURVE",
"420.306 735 OFFCURVE",
"302 735 CURVE SMOOTH",
"112.774 735 OFFCURVE",
"5 590.555 OFFCURVE",
"5 350 CURVE SMOOTH",
"5 208.089 OFFCURVE",
"31.624 -35 OFFCURVE",
"302 -35 CURVE SMOOTH"
);
}
);
width = 583;
},
{
associatedMasterId = "6F4F10D2-8254-4335-A627-9F8D8891324D";
layerId = "EA2B6CA7-031E-4770-A695-6BE83B7201C4";
name = "90";
paths = (
{
closed = 1;
nodes = (
"407.542 -45 OFFCURVE",
"506.04 4.889 OFFCURVE",
"558.894 83.592 CURVE SMOOTH",
"570.216 100.855 OFFCURVE",
"573.606 109.994 OFFCURVE",
"575.47 117.636 CURVE SMOOTH",
"577.337 125.282 OFFCURVE",
"578 135.222 OFFCURVE",
"578 155.537 CURVE SMOOTH",
"578 267.466 LINE SMOOTH",
"578 290.589 OFFCURVE",
"571.491 306.509 OFFCURVE",
"555.5 322.5 CURVE SMOOTH",
"539.509 338.491 OFFCURVE",
"523.589 345 OFFCURVE",
"500.466 345 CURVE SMOOTH",
"333 345 LINE SMOOTH",
"308.147 345 OFFCURVE",
"288 324.853 OFFCURVE",
"288 300 CURVE SMOOTH",
"288 275.147 OFFCURVE",
"308.147 255 OFFCURVE",
"333 255 CURVE SMOOTH",
"488 255 LINE",
"488 139.73 LINE",
"453.321 82.544 OFFCURVE",
"380.91 45 OFFCURVE",
"302 45 CURVE SMOOTH",
"149.714 45 OFFCURVE",
"85 138.26 OFFCURVE",
"85 350 CURVE SMOOTH",
"85 546.724 OFFCURVE",
"159.929 655 OFFCURVE",
"302 655 CURVE SMOOTH",
"391.331 655 OFFCURVE",
"453.391 619.449 OFFCURVE",
"491.758 546.84 CURVE SMOOTH",
"499.152 532.11 OFFCURVE",
"514.395 522 OFFCURVE",
"532 522 CURVE SMOOTH",
"556.853 522 OFFCURVE",
"577 542.147 OFFCURVE",
"577 567 CURVE SMOOTH",
"577 574.876 OFFCURVE",
"574.976 582.278 OFFCURVE",
"571.421 588.718 CURVE SMOOTH",
"517.49 690.902 OFFCURVE",
"424.012 745 OFFCURVE",
"302 745 CURVE SMOOTH",
"107.033 745 OFFCURVE",
"-5 596.039 OFFCURVE",
"-5 350 CURVE SMOOTH",
"-5 207.543 OFFCURVE",
"22.659 -45 OFFCURVE",
"302 -45 CURVE SMOOTH"
);
}
);
width = 583;
},
{
associatedMasterId = "6F4F10D2-8254-4335-A627-9F8D8891324D";
layerId = "716B9A3D-AA8E-4B1A-B788-DEB2AC29AD3D";
name = "110";
paths = (
{
closed = 1;
nodes = (
"409.113 -55 OFFCURVE",
"509.006 -5.272 OFFCURVE",
"564.362 73.875 CURVE SMOOTH",
"578.597 94.748 OFFCURVE",
"582.63 105.994 OFFCURVE",
"584.909 115.333 CURVE SMOOTH",
"587.189 124.678 OFFCURVE",
"588 136.827 OFFCURVE",
"588 161.657 CURVE SMOOTH",
"588 260.236 LINE SMOOTH",
"588 288.497 OFFCURVE",
"580.045 307.955 OFFCURVE",
"560.5 327.5 CURVE SMOOTH",
"540.955 347.045 OFFCURVE",
"521.497 355 OFFCURVE",
"493.236 355 CURVE SMOOTH",
"333 355 LINE SMOOTH",
"302.624 355 OFFCURVE",
"278 330.376 OFFCURVE",
"278 300 CURVE SMOOTH",
"278 269.624 OFFCURVE",
"302.624 245 OFFCURVE",
"333 245 CURVE SMOOTH",
"478 245 LINE",
"478 142.574 LINE",
"444.623 89.768 OFFCURVE",
"376.349 55 OFFCURVE",
"302 55 CURVE SMOOTH",
"156.078 55 OFFCURVE",
"95 143.328 OFFCURVE",
"95 350 CURVE SMOOTH",
"95 540.591 OFFCURVE",
"165.835 645 OFFCURVE",
"302 645 CURVE SMOOTH",
"387.576 645 OFFCURVE",
"446.209 611.49 OFFCURVE",
"482.813 542.364 CURVE SMOOTH",
"491.849 524.358 OFFCURVE",
"510.481 512 OFFCURVE",
"532 512 CURVE SMOOTH",
"562.376 512 OFFCURVE",
"587 536.624 OFFCURVE",
"587 567 CURVE SMOOTH",
"587 576.637 OFFCURVE",
"584.522 585.694 OFFCURVE",
"580.168 593.571 CURVE SMOOTH",
"524.432 699.028 OFFCURVE",
"427.722 755 OFFCURVE",
"302 755 CURVE SMOOTH",
"101.303 755 OFFCURVE",
"-15 602.183 OFFCURVE",
"-15 350 CURVE SMOOTH",
"-15 83.096 OFFCURVE",
"90.584 -55 OFFCURVE",
"302 -55 CURVE SMOOTH"
);
}
);
width = 583;
},
{
associatedMasterId = "6F4F10D2-8254-4335-A627-9F8D8891324D";
layerId = "7AC067FC-8A53-413A-A6F7-81BE2D846EF7";
name = "130";
paths = (
{
closed = 1;
nodes = (
"410.365 -65 OFFCURVE",
"511.993 -15.186 OFFCURVE",
"569.737 64.216 CURVE SMOOTH",
"587.009 88.611 OFFCURVE",
"591.654 101.994 OFFCURVE",
"594.346 113.029 CURVE SMOOTH",
"597.042 124.073 OFFCURVE",
"598 138.432 OFFCURVE",
"598 167.776 CURVE SMOOTH",
"598 253.006 LINE SMOOTH",
"598 286.406 OFFCURVE",
"588.599 309.401 OFFCURVE",
"565.5 332.5 CURVE SMOOTH",
"542.401 355.599 OFFCURVE",
"519.406 365 OFFCURVE",
"486.006 365 CURVE SMOOTH",
"333 365 LINE SMOOTH",
"297.101 365 OFFCURVE",
"268 335.899 OFFCURVE",
"268 300 CURVE SMOOTH",
"268 264.101 OFFCURVE",
"297.101 235 OFFCURVE",
"333 235 CURVE SMOOTH",
"468 235 LINE",
"468 145.524 LINE",
"435.951 97.021 OFFCURVE",
"371.825 65 OFFCURVE",
"302 65 CURVE SMOOTH",
"162.141 65 OFFCURVE",
"105 148.711 OFFCURVE",
"105 350 CURVE SMOOTH",
"105 534.776 OFFCURVE",
"171.458 635 OFFCURVE",
"302 635 CURVE SMOOTH",
"383.849 635 OFFCURVE",
"439.036 603.532 OFFCURVE",
"473.878 537.868 CURVE SMOOTH",
"484.56 516.597 OFFCURVE",
"506.575 502 OFFCURVE",
"532 502 CURVE SMOOTH",
"567.899 502 OFFCURVE",
"597 531.101 OFFCURVE",
"597 567 CURVE SMOOTH",
"597 578.394 OFFCURVE",
"594.068 589.103 OFFCURVE",
"588.918 598.414 CURVE SMOOTH",
"531.531 706.854 OFFCURVE",
"431.098 765 OFFCURVE",
"302 765 CURVE SMOOTH",
"95.585 765 OFFCURVE",
"-25 607.668 OFFCURVE",
"-25 350 CURVE SMOOTH",
"-25 77.667 OFFCURVE",
"84.816 -65 OFFCURVE",
"302 -65 CURVE SMOOTH"
);
}
);
width = 583;
},
{
associatedMasterId = "6F4F10D2-8254-4335-A627-9F8D8891324D";
layerId = "CA3EF84C-06EB-4DC1-95FE-1B8D0D78F5AA";
name = "150";
paths = (
{
closed = 1;
nodes = (
"411.971 -75 OFFCURVE",
"514.996 -25.285 OFFCURVE",
"575.062 54.585 CURVE SMOOTH",
"595.439 82.454 OFFCURVE",
"600.678 97.995 OFFCURVE",
"603.784 110.726 CURVE SMOOTH",
"606.894 123.469 OFFCURVE",
"608 140.037 OFFCURVE",
"608 173.896 CURVE SMOOTH",
"608 245.776 LINE SMOOTH",
"608 284.315 OFFCURVE",
"597.152 310.848 OFFCURVE",
"570.5 337.5 CURVE SMOOTH",
"543.848 364.152 OFFCURVE",
"517.315 375 OFFCURVE",
"478.776 375 CURVE SMOOTH",
"333 375 LINE SMOOTH",
"291.579 375 OFFCURVE",
"258 341.421 OFFCURVE",
"258 300 CURVE SMOOTH",
"258 258.579 OFFCURVE",
"291.579 225 OFFCURVE",
"333 225 CURVE SMOOTH",
"458 225 LINE",
"458 148.587 LINE",
"427.311 104.307 OFFCURVE",
"367.338 75 OFFCURVE",
"302 75 CURVE SMOOTH",
"168.571 75 OFFCURVE",
"115 153.752 OFFCURVE",
"115 350 CURVE SMOOTH",
"115 529.307 OFFCURVE",
"177.423 625 OFFCURVE",
"302 625 CURVE SMOOTH",
"380.162 625 OFFCURVE",
"431.886 595.566 OFFCURVE",
"464.966 533.327 CURVE SMOOTH",
"477.303 508.816 OFFCURVE",
"502.688 492 OFFCURVE",
"532 492 CURVE SMOOTH",
"573.421 492 OFFCURVE",
"607 525.579 OFFCURVE",
"607 567 CURVE SMOOTH",
"607 580.135 OFFCURVE",
"603.623 592.481 OFFCURVE",
"597.691 603.218 CURVE SMOOTH",
"538.497 714.971 OFFCURVE",
"434.842 775 OFFCURVE",
"302 775 CURVE SMOOTH",
"89.876 775 OFFCURVE",
"-35 613.154 OFFCURVE",
"-35 350 CURVE SMOOTH",
"-35 72.236 OFFCURVE",
"79.062 -75 OFFCURVE",
"302 -75 CURVE SMOOTH"
);
}
);
width = 583;
},
{
associatedMasterId = "6F4F10D2-8254-4335-A627-9F8D8891324D";
layerId = "FAE50D67-DF93-4582-89B0-291549CC1587";
name = "Oct 3 18, 17:44";
paths = (
{
closed = 0;
nodes = (
"532 567 LINE",
"489 649 OFFCURVE",
"415 700 OFFCURVE",
"302 700 CURVE SMOOTH",
"63 700 OFFCURVE",
"40 453 OFFCURVE",
"40 350 CURVE SMOOTH",
"40 210 OFFCURVE",
"63 0 OFFCURVE",
"302 0 CURVE SMOOTH",
"399 0 OFFCURVE",
"492 49 OFFCURVE",
"533 128 CURVE",
"533 300 LINE",
"333 300 LINE"
);
}
);
width = 583;
}
);
unicode = 0047;
},
{
glyphname = H;
lastChange = "2018-10-03 14:20:03 +0000";
layers = (
{
layerId = "6F4F10D2-8254-4335-A627-9F8D8891324D";
paths = (
{
closed = 1;
nodes = (
"31.046 -20 OFFCURVE",
"40 -11.046 OFFCURVE",
"40 0 CURVE SMOOTH",
"40 380 LINE",
"464 380 LINE",
"464 0 LINE SMOOTH",
"464 -11.046 OFFCURVE",
"472.954 -20 OFFCURVE",
"484 -20 CURVE SMOOTH",
"495.046 -20 OFFCURVE",
"504 -11.046 OFFCURVE",
"504 0 CURVE SMOOTH",
"504 800 LINE SMOOTH",
"504 811.046 OFFCURVE",
"495.046 820 OFFCURVE",
"484 820 CURVE SMOOTH",
"472.954 820 OFFCURVE",
"464 811.046 OFFCURVE",
"464 800 CURVE SMOOTH",
"464 420 LINE",
"40 420 LINE",
"40 800 LINE SMOOTH",
"40 811.046 OFFCURVE",
"31.046 820 OFFCURVE",
"20 820 CURVE SMOOTH",
"8.954 820 OFFCURVE",
"0 811.046 OFFCURVE",
"0 800 CURVE SMOOTH",
"0 0 LINE SMOOTH",
"0 -11.046 OFFCURVE",
"8.954 -20 OFFCURVE",
"20 -20 CURVE SMOOTH"
);
}
);
width = 504;
},
{
layerId = "25139FCF-725A-49A6-A058-8DCF5AC16622";
paths = (
{
closed = 0;
nodes = (
"20 800 LINE",
"20 0 LINE"
);
},
{
closed = 0;
nodes = (
"484 800 LINE",
"484 0 LINE"
);
},
{
closed = 0;
nodes = (
"20 400 LINE",
"484 400 LINE"
);
}
);
width = 504;
},
{
layerId = "1AB63056-1127-463F-B001-FB2AC81901C9";
paths = (
{
closed = 0;
nodes = (
"20 800 LINE",
"20 0 LINE"
);
},
{
closed = 0;
nodes = (
"484 800 LINE",
"484 0 LINE"
);
},
{
closed = 0;
nodes = (
"20 400 LINE",
"484 400 LINE"
);
}
);
width = 504;
},
{
associatedMasterId = "6F4F10D2-8254-4335-A627-9F8D8891324D";
layerId = "F5E1098B-A28C-48AF-934F-359502CD6880";
name = path;
paths = (
{
closed = 0;
nodes = (
"20 800 LINE",
"20 0 LINE"
);
},
{
closed = 0;
nodes = (
"484 800 LINE",
"484 0 LINE"
);
},
{
closed = 0;
nodes = (
"20 400 LINE",
"484 400 LINE"
);
}
);
visible = 1;
width = 504;
}
);
unicode = 0048;
},
{
glyphname = I;
lastChange = "2018-10-03 14:20:28 +0000";
layers = (
{
layerId = "6F4F10D2-8254-4335-A627-9F8D8891324D";
paths = (
{
closed = 1;
nodes = (
"31.046 -20 OFFCURVE",
"40 -11.046 OFFCURVE",
"40 0 CURVE SMOOTH",
"40 800 LINE SMOOTH",
"40 811.046 OFFCURVE",
"31.046 820 OFFCURVE",
"20 820 CURVE SMOOTH",
"8.954 820 OFFCURVE",
"0 811.046 OFFCURVE",
"0 800 CURVE SMOOTH",
"0 0 LINE SMOOTH",
"0 -11.046 OFFCURVE",
"8.954 -20 OFFCURVE",
"20 -20 CURVE SMOOTH"
);
}
);
width = 40;
},
{
layerId = "25139FCF-725A-49A6-A058-8DCF5AC16622";
paths = (
{
closed = 0;
nodes = (
"20 800 LINE",
"20 0 LINE"
);
}
);
width = 40;
},
{
layerId = "1AB63056-1127-463F-B001-FB2AC81901C9";
paths = (
{
closed = 0;
nodes = (
"20 800 LINE",
"20 0 LINE"
);
}
);
width = 40;
},
{
associatedMasterId = "6F4F10D2-8254-4335-A627-9F8D8891324D";
layerId = "8EE5B634-C740-4753-9E93-40991081FEAB";
name = path;
paths = (
{
closed = 0;
nodes = (
"20 800 LINE",
"20 0 LINE"
);
}
);
visible = 1;
width = 40;
}
);
unicode = 0049;
},
{
color = 1;
glyphname = J;
lastChange = "2018-10-03 15:20:18 +0000";
layers = (
{
layerId = "6F4F10D2-8254-4335-A627-9F8D8891324D";
paths = (
{
closed = 1;
nodes = (
"347.509 -20 OFFCURVE",
"440 53.657 OFFCURVE",
"440 160 CURVE SMOOTH",
"440 800 LINE SMOOTH",
"440 811.046 OFFCURVE",
"431.046 820 OFFCURVE",
"420 820 CURVE SMOOTH",
"408.954 820 OFFCURVE",
"400 811.046 OFFCURVE",
"400 800 CURVE SMOOTH",
"400 160 LINE SMOOTH",
"400 76.699 OFFCURVE",
"325.593 20 OFFCURVE",
"220 20 CURVE SMOOTH",
"108.823 20 OFFCURVE",
"40 87.503 OFFCURVE",
"40 200 CURVE SMOOTH",
"40 211.046 OFFCURVE",
"31.046 220 OFFCURVE",
"20 220 CURVE SMOOTH",
"8.954 220 OFFCURVE",
"0 211.046 OFFCURVE",
"0 200 CURVE SMOOTH",
"0 65.418 OFFCURVE",
"86.738 -20 OFFCURVE",
"220 -20 CURVE SMOOTH"
);
}
);
width = 440;
},
{
layerId = "25139FCF-725A-49A6-A058-8DCF5AC16622";
paths = (
{
closed = 0;
nodes = (
"420 800 LINE",
"420 160 LINE SMOOTH",
"420 40 OFFCURVE",
"300 0 OFFCURVE",
"220 0 CURVE SMOOTH",
"140 0 OFFCURVE",
"20 40 OFFCURVE",
"20 200 CURVE"
);
}
);
width = 440;
},
{
layerId = "1AB63056-1127-463F-B001-FB2AC81901C9";
paths = (
{
closed = 0;
nodes = (
"420 800 LINE",
"420 160 LINE SMOOTH",
"420 40 OFFCURVE",
"300 0 OFFCURVE",
"220 0 CURVE SMOOTH",
"140 0 OFFCURVE",
"20 40 OFFCURVE",
"20 200 CURVE"
);
}
);
width = 440;
},
{
associatedMasterId = "6F4F10D2-8254-4335-A627-9F8D8891324D";
layerId = "2E527735-7AED-488C-A9D2-3D18EE3C0A9E";
name = path;
paths = (
{
closed = 0;
nodes = (
"420 800 LINE",
"420 160 LINE SMOOTH",
"420 40 OFFCURVE",
"300 0 OFFCURVE",
"220 0 CURVE SMOOTH",
"140 0 OFFCURVE",
"20 40 OFFCURVE",
"20 200 CURVE"
);
}
);
visible = 1;
width = 440;
}
);
unicode = 004A;
},
{
color = 4;
glyphname = K;
lastChange = "2018-10-03 15:21:22 +0000";
layers = (
{
layerId = "25139FCF-725A-49A6-A058-8DCF5AC16622";
paths = (
{
closed = 0;
nodes = (
"20 799 LINE",
"20 1 LINE"
);
},
{
closed = 0;
nodes = (
"20 318 LINE",
"454 800 LINE"
);
},
{
closed = 0;
nodes = (
"116 415 LINE",
"454 0 LINE"
);
}
);
width = 474;
},
{
layerId = "1AB63056-1127-463F-B001-FB2AC81901C9";
paths = (
{
closed = 0;
nodes = (
"20 799 LINE",
"20 1 LINE"
);
},
{
closed = 0;
nodes = (
"20 318 LINE",
"454 800 LINE"
);
},
{
closed = 0;
nodes = (
"116 415 LINE",
"454 0 LINE"
);
}
);
width = 474;
},
{
associatedMasterId = "6F4F10D2-8254-4335-A627-9F8D8891324D";
layerId = "457C2936-8C35-4B45-9D28-CE91441009F2";
name = path;
paths = (
{
closed = 0;
nodes = (
"20 799 LINE",
"20 1 LINE"
);
},
{
closed = 0;
nodes = (
"20 318 LINE",
"454 800 LINE"
);
},
{
closed = 0;
nodes = (
"136 415 LINE",
"474 0 LINE"
);
}
);
visible = 1;
width = 474;
},
{
layerId = "6F4F10D2-8254-4335-A627-9F8D8891324D";
paths = (
{
closed = 1;
nodes = (
"485.046 -20 OFFCURVE",
"494 -11.046 OFFCURVE",
"494 0 CURVE SMOOTH",
"494 4.855 OFFCURVE",
"492.27 9.306 OFFCURVE",
"489.393 12.77 CURVE SMOOTH",
"151.634 427.474 LINE SMOOTH",
"150.679 428.669 OFFCURVE",
"149.59 429.752 OFFCURVE",
"148.391 430.701 CURVE",
"468.863 786.617 LINE SMOOTH",
"472.056 790.161 OFFCURVE",
"474 794.854 OFFCURVE",
"474 800 CURVE SMOOTH",
"474 811.046 OFFCURVE",
"465.046 820 OFFCURVE",
"454 820 CURVE SMOOTH",
"448.1 820 OFFCURVE",
"442.798 817.446 OFFCURVE",
"439.137 813.383 CURVE SMOOTH",
"40 370.102 LINE",
"40 799 LINE SMOOTH",
"40 810.046 OFFCURVE",
"31.046 819 OFFCURVE",
"20 819 CURVE SMOOTH",
"8.954 819 OFFCURVE",
"0 810.046 OFFCURVE",
"0 799 CURVE SMOOTH",
"0 1 LINE SMOOTH",
"0 -10.046 OFFCURVE",
"8.954 -19 OFFCURVE",
"20 -19 CURVE SMOOTH",
"31.046 -19 OFFCURVE",
"40 -10.046 OFFCURVE",
"40 1 CURVE SMOOTH",
"40 310.322 LINE",
"121.627 400.977 LINE",
"458.367 -12.475 LINE SMOOTH",
"462.032 -17.062 OFFCURVE",
"467.672 -20 OFFCURVE",
"474 -20 CURVE SMOOTH"
);
}
);
width = 474;
}
);
unicode = 004B;
},
{
glyphname = L;
lastChange = "2018-10-03 14:21:08 +0000";
layers = (
{
layerId = "6F4F10D2-8254-4335-A627-9F8D8891324D";
paths = (
{
closed = 1;
nodes = (
"385 -20 LINE SMOOTH",
"396.046 -20 OFFCURVE",
"405 -11.046 OFFCURVE",
"405 0 CURVE SMOOTH",
"405 11.046 OFFCURVE",
"396.046 20 OFFCURVE",
"385 20 CURVE SMOOTH",
"40 20 LINE",
"40 800 LINE SMOOTH",
"40 811.046 OFFCURVE",
"31.046 820 OFFCURVE",
"20 820 CURVE SMOOTH",
"8.954 820 OFFCURVE",
"0 811.046 OFFCURVE",
"0 800 CURVE SMOOTH",
"0 14.46 LINE SMOOTH",
"0 4.183 OFFCURVE",
"2.893 -2.893 OFFCURVE",
"10 -10 CURVE SMOOTH",
"17.107 -17.107 OFFCURVE",
"24.183 -20 OFFCURVE",
"34.46 -20 CURVE SMOOTH"
);
}
);
width = 405;
},
{
layerId = "25139FCF-725A-49A6-A058-8DCF5AC16622";
paths = (
{
closed = 0;
nodes = (
"20 800 LINE",
"20 0 LINE",
"385 0 LINE"
);
}
);
width = 405;
},
{
layerId = "1AB63056-1127-463F-B001-FB2AC81901C9";
paths = (
{
closed = 0;
nodes = (
"20 800 LINE",
"20 0 LINE",
"385 0 LINE"
);
}
);
width = 405;
},
{
associatedMasterId = "6F4F10D2-8254-4335-A627-9F8D8891324D";
layerId = "5E2C3B7B-09B2-44BF-84C0-910C6FABEBCE";
name = path;
paths = (
{
closed = 0;
nodes = (
"20 800 LINE",
"20 0 LINE",
"385 0 LINE"
);
}
);
visible = 1;
width = 405;
}
);
unicode = 004C;
},
{
color = 1;
glyphname = M;
lastChange = "2018-10-03 15:16:27 +0000";
layers = (
{
layerId = "6F4F10D2-8254-4335-A627-9F8D8891324D";
paths = (
{
closed = 1;
nodes = (
"31.046 -20 OFFCURVE",
"40 -11.046 OFFCURVE",
"40 0 CURVE SMOOTH",
"40 717.998 LINE",
"314.802 188.144 LINE SMOOTH",
"319.947 178.225 OFFCURVE",
"327.24 173.792 OFFCURVE",
"338.414 173.792 CURVE SMOOTH",
"341.586 173.792 LINE SMOOTH",
"352.76 173.792 OFFCURVE",
"360.053 178.225 OFFCURVE",
"365.198 188.144 CURVE SMOOTH",
"640 717.998 LINE",
"640 0 LINE SMOOTH",
"640 -11.046 OFFCURVE",
"648.954 -20 OFFCURVE",
"660 -20 CURVE SMOOTH",
"671.046 -20 OFFCURVE",
"680 -11.046 OFFCURVE",
"680 0 CURVE SMOOTH",
"680 782.144 LINE SMOOTH",
"680 794.153 OFFCURVE",
"674.32 801.385 OFFCURVE",
"662.653 804.231 CURVE SMOOTH",
"659.593 804.977 LINE SMOOTH",
"647.926 807.823 OFFCURVE",
"639.554 804.018 OFFCURVE",
"634.025 793.357 CURVE SMOOTH",
"340 226.44 LINE",
"45.975 793.357 LINE SMOOTH",
"40.446 804.018 OFFCURVE",
"32.074 807.823 OFFCURVE",
"20.407 804.977 CURVE SMOOTH",
"17.347 804.231 LINE SMOOTH",
"5.68 801.385 OFFCURVE",
"0 794.153 OFFCURVE",
"0 782.144 CURVE SMOOTH",
"0 0 LINE SMOOTH",
"0 -11.046 OFFCURVE",
"8.954 -20 OFFCURVE",
"20 -20 CURVE SMOOTH"
);
}
);
width = 680;
},
{
layerId = "25139FCF-725A-49A6-A058-8DCF5AC16622";
paths = (
{
closed = 0;
nodes = (
"660 0 LINE",
"660 800 LINE",
"340 183 LINE",
"20 800 LINE",
"20 0 LINE"
);
}
);
width = 680;
},
{
layerId = "1AB63056-1127-463F-B001-FB2AC81901C9";
paths = (
{
closed = 0;
nodes = (
"660 0 LINE",
"660 800 LINE",
"340 183 LINE",
"20 800 LINE",
"20 0 LINE"
);
}
);
width = 680;
},
{
associatedMasterId = "6F4F10D2-8254-4335-A627-9F8D8891324D";
layerId = "689F0889-A0B2-44AE-9B6B-11589C1C2C02";
name = path;
paths = (
{
closed = 0;
nodes = (
"660 0 LINE",
"660 800 LINE",
"340 183 LINE",
"20 800 LINE",
"20 0 LINE"
);
}
);
visible = 1;
width = 680;
}
);
unicode = 004D;
},
{
glyphname = N;
lastChange = "2018-10-03 14:21:33 +0000";
layers = (
{
layerId = "6F4F10D2-8254-4335-A627-9F8D8891324D";
paths = (
{
closed = 1;
nodes = (
"31.046 -20 OFFCURVE",
"40 -11.046 OFFCURVE",
"40 0 CURVE SMOOTH",
"40 725.376 LINE",
"455.84 5.308 LINE SMOOTH",
"461.803 -5.018 OFFCURVE",
"470.24 -8.512 OFFCURVE",
"481.758 -5.425 CURVE SMOOTH",
"484.924 -4.577 LINE SMOOTH",
"496.441 -1.49 OFFCURVE",
"502 5.755 OFFCURVE",
"502 17.679 CURVE SMOOTH",
"502 800 LINE SMOOTH",
"502 811.046 OFFCURVE",
"493.046 820 OFFCURVE",
"482 820 CURVE SMOOTH",
"470.954 820 OFFCURVE",
"462 811.046 OFFCURVE",
"462 800 CURVE SMOOTH",
"462 74.624 LINE",
"46.16 794.692 LINE SMOOTH",
"40.197 805.018 OFFCURVE",
"31.76 808.512 OFFCURVE",
"20.242 805.425 CURVE SMOOTH",
"17.076 804.577 LINE SMOOTH",
"5.559 801.49 OFFCURVE",
"0 794.245 OFFCURVE",
"0 782.321 CURVE SMOOTH",
"0 0 LINE SMOOTH",
"0 -11.046 OFFCURVE",
"8.954 -20 OFFCURVE",
"20 -20 CURVE SMOOTH"
);
}
);
width = 502;
},
{
layerId = "25139FCF-725A-49A6-A058-8DCF5AC16622";
paths = (
{
closed = 0;
nodes = (
"20 0 LINE",
"20 800 LINE",
"482 0 LINE",
"482 800 LINE"
);
}
);
width = 502;
},
{
layerId = "1AB63056-1127-463F-B001-FB2AC81901C9";
paths = (
{
closed = 0;
nodes = (
"20 0 LINE",
"20 800 LINE",
"482 0 LINE",
"482 800 LINE"
);
}
);
width = 502;
},
{
associatedMasterId = "6F4F10D2-8254-4335-A627-9F8D8891324D";
layerId = "4BF1856C-120C-42A7-83AB-FB28D17EA55C";
name = path;
paths = (
{
closed = 0;
nodes = (
"20 0 LINE",
"20 800 LINE",
"482 0 LINE",
"482 800 LINE"
);
}
);
visible = 1;
width = 502;
}
);
unicode = 004E;
},
{
glyphname = O;
lastChange = "2018-10-03 14:21:45 +0000";
layers = (
{
layerId = "6F4F10D2-8254-4335-A627-9F8D8891324D";
paths = (
{
closed = 1;
nodes = (
"475.358 -20 OFFCURVE",
"575 128.183 OFFCURVE",
"575 401 CURVE SMOOTH",
"575 668.637 OFFCURVE",
"472.331 820 OFFCURVE",
"287 820 CURVE SMOOTH",
"31.754 820 OFFCURVE",
"0 606.479 OFFCURVE",
"0 400 CURVE SMOOTH",
"0 126.818 OFFCURVE",
"99.046 -20 OFFCURVE",
"287 -20 CURVE SMOOTH"
);
},
{
closed = 1;
nodes = (
"123.872 20 OFFCURVE",
"40 148.679 OFFCURVE",
"40 400 CURVE SMOOTH",
"40 603.521 OFFCURVE",
"66.246 780 OFFCURVE",
"287 780 CURVE SMOOTH",
"448.262 780 OFFCURVE",
"535 645.952 OFFCURVE",
"535 401 CURVE SMOOTH",
"535 149.688 OFFCURVE",
"450.897 20 OFFCURVE",
"287 20 CURVE SMOOTH"
);
}
);
width = 575;
},
{
layerId = "25139FCF-725A-49A6-A058-8DCF5AC16622";
paths = (
{
closed = 1;
nodes = (
"555 186 OFFCURVE",
"492 0 OFFCURVE",
"287 0 CURVE SMOOTH",
"82 0 OFFCURVE",
"20 186 OFFCURVE",
"20 400 CURVE SMOOTH",
"20 605 OFFCURVE",
"49 800 OFFCURVE",
"287 800 CURVE SMOOTH",
"492 800 OFFCURVE",
"555 605 OFFCURVE",
"555 401 CURVE SMOOTH"
);
}
);
width = 575;
},
{
layerId = "1AB63056-1127-463F-B001-FB2AC81901C9";
paths = (
{
closed = 1;
nodes = (
"555 186 OFFCURVE",
"492 0 OFFCURVE",
"287 0 CURVE SMOOTH",
"82 0 OFFCURVE",
"20 186 OFFCURVE",
"20 400 CURVE SMOOTH",
"20 605 OFFCURVE",
"49 800 OFFCURVE",
"287 800 CURVE SMOOTH",
"492 800 OFFCURVE",
"555 605 OFFCURVE",
"555 401 CURVE SMOOTH"
);
}
);
width = 575;
},
{
associatedMasterId = "6F4F10D2-8254-4335-A627-9F8D8891324D";
layerId = "83D1E95C-34F0-4735-9F17-5029666BFD0C";
name = path;
paths = (
{
closed = 1;
nodes = (
"555 186 OFFCURVE",
"492 0 OFFCURVE",
"287 0 CURVE SMOOTH",
"82 0 OFFCURVE",
"20 186 OFFCURVE",
"20 400 CURVE SMOOTH",
"20 605 OFFCURVE",
"49 800 OFFCURVE",
"287 800 CURVE SMOOTH",
"492 800 OFFCURVE",
"555 605 OFFCURVE",
"555 401 CURVE SMOOTH"
);
}
);
visible = 1;
width = 575;
}
);
unicode = 004F;
},
{
glyphname = OE;
lastChange = "2018-10-03 14:21:56 +0000";
layers = (
{
layerId = "6F4F10D2-8254-4335-A627-9F8D8891324D";
paths = (
{
closed = 1;
nodes = (
"405.988 -20 OFFCURVE",
"489.572 39.134 OFFCURVE",
"535 151.465 CURVE",
"535 14.46 LINE SMOOTH",
"535 4.183 OFFCURVE",
"537.893 -2.893 OFFCURVE",
"545 -10 CURVE SMOOTH",
"552.107 -17.107 OFFCURVE",
"559.183 -20 OFFCURVE",
"569.46 -20 CURVE SMOOTH",
"950 -20 LINE SMOOTH",
"961.046 -20 OFFCURVE",
"970 -11.046 OFFCURVE",
"970 0 CURVE SMOOTH",
"970 11.046 OFFCURVE",
"961.046 20 OFFCURVE",
"950 20 CURVE SMOOTH",
"575 20 LINE",
"575 381 LINE",
"858 381 LINE SMOOTH",
"869.046 381 OFFCURVE",
"878 389.954 OFFCURVE",
"878 401 CURVE SMOOTH",
"878 412.046 OFFCURVE",
"869.046 421 OFFCURVE",
"858 421 CURVE SMOOTH",
"575 421 LINE",
"575 780 LINE",
"950 780 LINE SMOOTH",
"961.046 780 OFFCURVE",
"970 788.954 OFFCURVE",
"970 800 CURVE SMOOTH",
"970 811.046 OFFCURVE",
"961.046 820 OFFCURVE",
"950 820 CURVE SMOOTH",
"569.46 820 LINE SMOOTH",
"559.183 820 OFFCURVE",
"552.107 817.107 OFFCURVE",
"545 810 CURVE SMOOTH",
"537.893 802.893 OFFCURVE",
"535 795.817 OFFCURVE",
"535 785.54 CURVE SMOOTH",
"535 645.732 LINE",
"489.114 758.912 OFFCURVE",
"404.738 820 OFFCURVE",
"287 820 CURVE SMOOTH",
"31.754 820 OFFCURVE",
"0 606.479 OFFCURVE",
"0 400 CURVE SMOOTH",
"0 126.057 OFFCURVE",
"98.526 -20 OFFCURVE",
"287 -20 CURVE SMOOTH"
);
},
{
closed = 1;
nodes = (
"123.393 20 OFFCURVE",
"40 147.942 OFFCURVE",
"40 400 CURVE SMOOTH",
"40 603.521 OFFCURVE",
"66.246 780 OFFCURVE",
"287 780 CURVE SMOOTH",
"448.262 780 OFFCURVE",
"535 645.952 OFFCURVE",
"535 401 CURVE SMOOTH",
"535 149.688 OFFCURVE",
"450.897 20 OFFCURVE",
"287 20 CURVE SMOOTH"
);
}
);
width = 970;
},
{
layerId = "25139FCF-725A-49A6-A058-8DCF5AC16622";
paths = (
{
closed = 0;
nodes = (
"950 800 LINE",
"555 800 LINE",
"555 0 LINE",
"950 0 LINE"
);
},
{
closed = 0;
nodes = (
"858 401 LINE",
"555 401 LINE"
);
},
{
closed = 1;
nodes = (
"555 186 OFFCURVE",
"492 0 OFFCURVE",
"287 0 CURVE SMOOTH",
"81 0 OFFCURVE",
"20 186 OFFCURVE",
"20 400 CURVE SMOOTH",
"20 605 OFFCURVE",
"49 800 OFFCURVE",
"287 800 CURVE SMOOTH",
"492 800 OFFCURVE",
"555 605 OFFCURVE",
"555 401 CURVE SMOOTH"
);
}
);
width = 970;
},
{
layerId = "1AB63056-1127-463F-B001-FB2AC81901C9";
paths = (
{
closed = 0;
nodes = (
"950 800 LINE",
"555 800 LINE",
"555 0 LINE",
"950 0 LINE"
);
},
{
closed = 0;
nodes = (
"858 401 LINE",
"555 401 LINE"
);
},
{
closed = 1;
nodes = (
"555 186 OFFCURVE",
"492 0 OFFCURVE",
"287 0 CURVE SMOOTH",
"81 0 OFFCURVE",
"20 186 OFFCURVE",
"20 400 CURVE SMOOTH",
"20 605 OFFCURVE",
"49 800 OFFCURVE",
"287 800 CURVE SMOOTH",
"492 800 OFFCURVE",
"555 605 OFFCURVE",
"555 401 CURVE SMOOTH"
);
}
);
width = 970;
},
{
associatedMasterId = "6F4F10D2-8254-4335-A627-9F8D8891324D";
layerId = "0C90DAC8-C23D-4CD9-B5F3-608DC915B053";
name = path;
paths = (
{
closed = 0;
nodes = (
"950 800 LINE",
"555 800 LINE",
"555 0 LINE",
"950 0 LINE"
);
},
{
closed = 0;
nodes = (
"858 401 LINE",
"555 401 LINE"
);
},
{
closed = 1;
nodes = (
"555 186 OFFCURVE",
"492 0 OFFCURVE",
"287 0 CURVE SMOOTH",
"81 0 OFFCURVE",
"20 186 OFFCURVE",
"20 400 CURVE SMOOTH",
"20 605 OFFCURVE",
"49 800 OFFCURVE",
"287 800 CURVE SMOOTH",
"492 800 OFFCURVE",
"555 605 OFFCURVE",
"555 401 CURVE SMOOTH"
);
}
);
visible = 1;
width = 970;
}
);
unicode = 0152;
},
{
glyphname = P;
lastChange = "2018-10-03 14:22:06 +0000";
layers = (
{
layerId = "6F4F10D2-8254-4335-A627-9F8D8891324D";
paths = (
{
closed = 1;
nodes = (
"31.046 -20 OFFCURVE",
"40 -11.046 OFFCURVE",
"40 0 CURVE SMOOTH",
"40 378.099 LINE",
"40.658 378.034 OFFCURVE",
"41.325 378 OFFCURVE",
"42 378 CURVE SMOOTH",
"266 378 LINE SMOOTH",
"284 378 OFFCURVE",
"470 379 OFFCURVE",
"470 602 CURVE SMOOTH",
"470 740 OFFCURVE",
"390 820 OFFCURVE",
"255 820 CURVE SMOOTH",
"34.46 820 LINE SMOOTH",
"24 820 OFFCURVE",
"17.107 817.107 OFFCURVE",
"10 810 CURVE SMOOTH",
"2.893 802.893 OFFCURVE",
"0 795.817 OFFCURVE",
"0 785.54 CURVE SMOOTH",
"0 0 LINE SMOOTH",
"0 -11.046 OFFCURVE",
"8.954 -20 OFFCURVE",
"20 -20 CURVE SMOOTH"
);
},
{
closed = 1;
nodes = (
"40 780 LINE",
"255 780 LINE SMOOTH",
"369 780 OFFCURVE",
"430 717 OFFCURVE",
"430 602 CURVE SMOOTH",
"430 419 OFFCURVE",
"284 418 OFFCURVE",
"266 418 CURVE SMOOTH",
"42 418 LINE SMOOTH",
"41.325 418 OFFCURVE",
"40.658 417.966 OFFCURVE",
"40 417.901 CURVE"
);
}
);
width = 470;
},
{
layerId = "25139FCF-725A-49A6-A058-8DCF5AC16622";
paths = (
{
closed = 0;
nodes = (
"20 0 LINE",
"20 800 LINE",
"255 800 LINE SMOOTH",
"284 800 OFFCURVE",
"450 800 OFFCURVE",
"450 602 CURVE SMOOTH",
"450 399 OFFCURVE",
"284 398 OFFCURVE",
"266 398 CURVE SMOOTH",
"42 398 LINE"
);
}
);
width = 470;
},
{
layerId = "1AB63056-1127-463F-B001-FB2AC81901C9";
paths = (
{
closed = 0;
nodes = (
"20 0 LINE",
"20 800 LINE",
"255 800 LINE SMOOTH",
"284 800 OFFCURVE",
"450 800 OFFCURVE",
"450 602 CURVE SMOOTH",
"450 399 OFFCURVE",
"284 398 OFFCURVE",
"266 398 CURVE SMOOTH",
"42 398 LINE"
);
}
);
width = 470;
},
{
associatedMasterId = "6F4F10D2-8254-4335-A627-9F8D8891324D";
layerId = "B6BE8936-30B5-4252-96B7-8EBED16B661B";
name = path;
paths = (
{
closed = 0;
nodes = (
"20 0 LINE",
"20 800 LINE",
"255 800 LINE SMOOTH",
"284 800 OFFCURVE",
"450 800 OFFCURVE",
"450 602 CURVE SMOOTH",
"450 399 OFFCURVE",
"284 398 OFFCURVE",
"266 398 CURVE SMOOTH",
"42 398 LINE"
);
}
);
visible = 1;
width = 470;
}
);
unicode = 0050;
},
{
glyphname = Q;
lastChange = "2018-10-03 14:22:22 +0000";
layers = (
{
layerId = "6F4F10D2-8254-4335-A627-9F8D8891324D";
paths = (
{
closed = 1;
nodes = (
"532.046 -133 OFFCURVE",
"541 -124.046 OFFCURVE",
"541 -113 CURVE SMOOTH",
"541 -109.224 OFFCURVE",
"539.954 -105.693 OFFCURVE",
"538.135 -102.681 CURVE SMOOTH",
"456.849 37.809 LINE",
"534.594 104.419 OFFCURVE",
"575 227.455 OFFCURVE",
"575 401 CURVE SMOOTH",
"575 668.637 OFFCURVE",
"472.331 820 OFFCURVE",
"287 820 CURVE SMOOTH",
"30.667 820 OFFCURVE",
"0 606.429 OFFCURVE",
"0 399 CURVE SMOOTH",
"0 126.7 OFFCURVE",
"99.211 -20 OFFCURVE",
"287 -20 CURVE SMOOTH",
"339.737 -20 OFFCURVE",
"385.546 -8.356 OFFCURVE",
"424.167 14.424 CURVE",
"503.496 -122.683 LINE SMOOTH",
"506.907 -128.835 OFFCURVE",
"513.467 -133 OFFCURVE",
"521 -133 CURVE SMOOTH"
);
},
{
closed = 1;
nodes = (
"124.018 20 OFFCURVE",
"40 148.565 OFFCURVE",
"40 399 CURVE SMOOTH",
"40 603.571 OFFCURVE",
"65.333 780 OFFCURVE",
"287 780 CURVE SMOOTH",
"448.262 780 OFFCURVE",
"535 645.952 OFFCURVE",
"535 401 CURVE SMOOTH",
"535 243.365 OFFCURVE",
"501.645 133.374 OFFCURVE",
"436.251 73.409 CURVE",
"365.504 195.682 LINE SMOOTH",
"362.094 201.835 OFFCURVE",
"355.534 206 OFFCURVE",
"348 206 CURVE SMOOTH",
"336.954 206 OFFCURVE",
"328 197.046 OFFCURVE",
"328 186 CURVE SMOOTH",
"328 182.225 OFFCURVE",
"329.046 178.694 OFFCURVE",
"330.864 175.681 CURVE SMOOTH",
"403.943 49.378 LINE",
"371.028 29.859 OFFCURVE",
"332.01 20 OFFCURVE",
"287 20 CURVE SMOOTH"
);
}
);
width = 575;
},
{
layerId = "25139FCF-725A-49A6-A058-8DCF5AC16622";
paths = (
{
closed = 1;
nodes = (
"555 187 OFFCURVE",
"492 0 OFFCURVE",
"287 0 CURVE SMOOTH",
"82 0 OFFCURVE",
"20 186 OFFCURVE",
"20 399 CURVE SMOOTH",
"20 605 OFFCURVE",
"48 800 OFFCURVE",
"287 800 CURVE SMOOTH",
"492 800 OFFCURVE",
"555 605 OFFCURVE",
"555 401 CURVE SMOOTH"
);
},
{
closed = 0;
nodes = (
"348 186 LINE",
"521 -113 LINE"
);
}
);
width = 575;
},
{
layerId = "1AB63056-1127-463F-B001-FB2AC81901C9";
paths = (
{
closed = 1;
nodes = (
"555 187 OFFCURVE",
"492 0 OFFCURVE",
"287 0 CURVE SMOOTH",
"82 0 OFFCURVE",
"20 186 OFFCURVE",
"20 399 CURVE SMOOTH",
"20 605 OFFCURVE",
"48 800 OFFCURVE",
"287 800 CURVE SMOOTH",
"492 800 OFFCURVE",
"555 605 OFFCURVE",
"555 401 CURVE SMOOTH"
);
},
{
closed = 0;
nodes = (
"348 186 LINE",
"521 -113 LINE"
);
}
);
width = 575;
},
{
associatedMasterId = "6F4F10D2-8254-4335-A627-9F8D8891324D";
layerId = "3651E6E4-72CC-482B-B990-2CB145851F89";
name = path;
paths = (
{
closed = 1;
nodes = (
"555 187 OFFCURVE",
"492 0 OFFCURVE",
"287 0 CURVE SMOOTH",
"82 0 OFFCURVE",
"20 186 OFFCURVE",
"20 399 CURVE SMOOTH",
"20 605 OFFCURVE",
"48 800 OFFCURVE",
"287 800 CURVE SMOOTH",
"492 800 OFFCURVE",
"555 605 OFFCURVE",
"555 401 CURVE SMOOTH"
);
},
{
closed = 0;
nodes = (
"348 186 LINE",
"521 -113 LINE"
);
}
);
visible = 1;
width = 575;
}
);
unicode = 0051;
},
{
glyphname = R;
lastChange = "2018-10-03 14:22:35 +0000";
layers = (
{
layerId = "6F4F10D2-8254-4335-A627-9F8D8891324D";
paths = (
{
closed = 1;
nodes = (
"455.046 -20 OFFCURVE",
"464 -11.046 OFFCURVE",
"464 0 CURVE SMOOTH",
"464 3.067 OFFCURVE",
"463.309 5.973 OFFCURVE",
"462.076 8.57 CURVE SMOOTH",
"294.909 381.192 LINE",
"352.52 389.263 OFFCURVE",
"469 426.979 OFFCURVE",
"469 603 CURVE SMOOTH",
"469 740.251 OFFCURVE",
"390.117 820 OFFCURVE",
"254 820 CURVE SMOOTH",
"34.46 820 LINE SMOOTH",
"24.183 820 OFFCURVE",
"17.107 817.107 OFFCURVE",
"10 810 CURVE SMOOTH",
"2.893 802.893 OFFCURVE",
"0 795.817 OFFCURVE",
"0 785.54 CURVE SMOOTH",
"0 2 LINE SMOOTH",
"0 -9.046 OFFCURVE",
"8.954 -18 OFFCURVE",
"20 -18 CURVE SMOOTH",
"31.046 -18 OFFCURVE",
"40 -9.046 OFFCURVE",
"40 2 CURVE SMOOTH",
"40 379.099 LINE",
"40.658 379.034 OFFCURVE",
"41.325 379 OFFCURVE",
"42 379 CURVE SMOOTH",
"252.052 379 LINE",
"425.566 -7.771 LINE SMOOTH",
"428.599 -14.957 OFFCURVE",
"435.71 -20 OFFCURVE",
"444 -20 CURVE SMOOTH"
);
},
{
closed = 1;
nodes = (
"40 780 LINE",
"254 780 LINE SMOOTH",
"368.014 780 OFFCURVE",
"429 718.179 OFFCURVE",
"429 603 CURVE SMOOTH",
"429 420.759 OFFCURVE",
"283.879 419 OFFCURVE",
"265 419 CURVE SMOOTH",
"42 419 LINE SMOOTH",
"41.325 419 OFFCURVE",
"40.658 418.966 OFFCURVE",
"40 418.901 CURVE"
);
}
);
width = 469;
},
{
layerId = "25139FCF-725A-49A6-A058-8DCF5AC16622";
paths = (
{
closed = 0;
nodes = (
"20 2 LINE",
"20 800 LINE",
"254 800 LINE SMOOTH",
"284 800 OFFCURVE",
"449 800 OFFCURVE",
"449 603 CURVE SMOOTH",
"449 401 OFFCURVE",
"284 399 OFFCURVE",
"265 399 CURVE SMOOTH",
"42 399 LINE"
);
},
{
closed = 0;
nodes = (
"444 0 LINE",
"265 399 LINE"
);
}
);
width = 469;
},
{
layerId = "1AB63056-1127-463F-B001-FB2AC81901C9";
paths = (
{
closed = 0;
nodes = (
"20 2 LINE",
"20 800 LINE",
"254 800 LINE SMOOTH",
"284 800 OFFCURVE",
"449 800 OFFCURVE",
"449 603 CURVE SMOOTH",
"449 401 OFFCURVE",
"284 399 OFFCURVE",
"265 399 CURVE SMOOTH",
"42 399 LINE"
);
},
{
closed = 0;
nodes = (
"444 0 LINE",
"265 399 LINE"
);
}
);
width = 469;
},
{
associatedMasterId = "6F4F10D2-8254-4335-A627-9F8D8891324D";
layerId = "34D026D8-AE78-4916-8D56-C0C850113180";
name = path;
paths = (
{
closed = 0;
nodes = (
"20 2 LINE",
"20 800 LINE",
"254 800 LINE SMOOTH",
"284 800 OFFCURVE",
"449 800 OFFCURVE",
"449 603 CURVE SMOOTH",
"449 401 OFFCURVE",
"284 399 OFFCURVE",
"265 399 CURVE SMOOTH",
"42 399 LINE"
);
},
{
closed = 0;
nodes = (
"444 0 LINE",
"265 399 LINE"
);
}
);
visible = 1;
width = 469;
}
);
unicode = 0052;
},
{
glyphname = S;
lastChange = "2018-10-03 14:22:45 +0000";
layers = (
{
layerId = "6F4F10D2-8254-4335-A627-9F8D8891324D";
paths = (
{
closed = 1;
nodes = (
"481.758 -20 OFFCURVE",
"561 41.138 OFFCURVE",
"561 199 CURVE SMOOTH",
"561 323.545 OFFCURVE",
"482.783 384.058 OFFCURVE",
"282.503 419.691 CURVE SMOOTH",
"106.947 451.313 OFFCURVE",
"40 501.821 OFFCURVE",
"40 600 CURVE SMOOTH",
"40 732.669 OFFCURVE",
"100.66 780 OFFCURVE",
"279 780 CURVE SMOOTH",
"468.169 780 OFFCURVE",
"516.593 644.042 OFFCURVE",
"519.824 634.3 CURVE SMOOTH",
"522.278 626.031 OFFCURVE",
"529.934 620 OFFCURVE",
"539 620 CURVE SMOOTH",
"550.046 620 OFFCURVE",
"559 628.954 OFFCURVE",
"559 640 CURVE SMOOTH",
"559 642.282 OFFCURVE",
"558.618 644.474 OFFCURVE",
"557.914 646.518 CURVE SMOOTH",
"555.486 654.085 OFFCURVE",
"499.652 820 OFFCURVE",
"279 820 CURVE SMOOTH",
"79.773 820 OFFCURVE",
"0 757.44 OFFCURVE",
"0 600 CURVE SMOOTH",
"0 479.021 OFFCURVE",
"81.878 415.185 OFFCURVE",
"275.455 380.317 CURVE SMOOTH",
"457.889 347.859 OFFCURVE",
"521 300.657 OFFCURVE",
"521 199 CURVE SMOOTH",
"521 65.977 OFFCURVE",
"461.09 20 OFFCURVE",
"279 20 CURVE SMOOTH",
"91.64 20 OFFCURVE",
"43.345 156.128 OFFCURVE",
"40.172 165.715 CURVE SMOOTH",
"37.713 173.976 OFFCURVE",
"30.06 180 OFFCURVE",
"21 180 CURVE SMOOTH",
"9.954 180 OFFCURVE",
"1 171.046 OFFCURVE",
"1 160 CURVE SMOOTH",
"1 157.729 OFFCURVE",
"1.379 155.547 OFFCURVE",
"2.076 153.513 CURVE SMOOTH",
"4.38 146.309 OFFCURVE",
"60.045 -20 OFFCURVE",
"279 -20 CURVE SMOOTH"
);
}
);
width = 561;
},
{
layerId = "25139FCF-725A-49A6-A058-8DCF5AC16622";
paths = (
{
closed = 0;
nodes = (
"539 640 LINE",
"539 640 OFFCURVE",
"490 800 OFFCURVE",
"279 800 CURVE SMOOTH",
"63 800 OFFCURVE",
"20 722 OFFCURVE",
"20 600 CURVE SMOOTH",
"20 477 OFFCURVE",
"118 429 OFFCURVE",
"279 400 CURVE SMOOTH",
"442 371 OFFCURVE",
"541 328 OFFCURVE",
"541 199 CURVE SMOOTH",
"541 75 OFFCURVE",
"497 0 OFFCURVE",
"279 0 CURVE SMOOTH",
"70 0 OFFCURVE",
"21 160 OFFCURVE",
"21 160 CURVE"
);
}
);
width = 561;
},
{
layerId = "1AB63056-1127-463F-B001-FB2AC81901C9";
paths = (
{
closed = 0;
nodes = (
"539 640 LINE",
"539 640 OFFCURVE",
"490 800 OFFCURVE",
"279 800 CURVE SMOOTH",
"63 800 OFFCURVE",
"20 722 OFFCURVE",
"20 600 CURVE SMOOTH",
"20 477 OFFCURVE",
"118 429 OFFCURVE",
"279 400 CURVE SMOOTH",
"442 371 OFFCURVE",
"541 328 OFFCURVE",
"541 199 CURVE SMOOTH",
"541 75 OFFCURVE",
"497 0 OFFCURVE",
"279 0 CURVE SMOOTH",
"70 0 OFFCURVE",
"21 160 OFFCURVE",
"21 160 CURVE"
);
}
);
width = 561;
},
{
associatedMasterId = "6F4F10D2-8254-4335-A627-9F8D8891324D";
layerId = "4D974AB7-DD30-4321-8E36-5993838640D6";
name = path;
paths = (
{
closed = 0;
nodes = (
"539 640 LINE",
"539 640 OFFCURVE",
"490 800 OFFCURVE",
"279 800 CURVE SMOOTH",
"63 800 OFFCURVE",
"20 722 OFFCURVE",
"20 600 CURVE SMOOTH",
"20 477 OFFCURVE",
"118 429 OFFCURVE",
"279 400 CURVE SMOOTH",
"442 371 OFFCURVE",
"541 328 OFFCURVE",
"541 199 CURVE SMOOTH",
"541 75 OFFCURVE",
"497 0 OFFCURVE",
"279 0 CURVE SMOOTH",
"70 0 OFFCURVE",
"21 160 OFFCURVE",
"21 160 CURVE"
);
}
);
visible = 1;
width = 561;
}
);
unicode = 0053;
},
{
glyphname = T;
lastChange = "2018-10-03 14:23:02 +0000";
layers = (
{
layerId = "6F4F10D2-8254-4335-A627-9F8D8891324D";
paths = (
{
closed = 1;
nodes = (
"330.046 -20 OFFCURVE",
"339 -11.046 OFFCURVE",
"339 0 CURVE SMOOTH",
"339 780 LINE",
"613 780 LINE SMOOTH",
"624.046 780 OFFCURVE",
"633 788.954 OFFCURVE",
"633 800 CURVE SMOOTH",
"633 811.046 OFFCURVE",
"624.046 820 OFFCURVE",
"613 820 CURVE SMOOTH",
"20 820 LINE SMOOTH",
"8.954 820 OFFCURVE",
"0 811.046 OFFCURVE",
"0 800 CURVE SMOOTH",
"0 788.954 OFFCURVE",
"8.954 780 OFFCURVE",
"20 780 CURVE SMOOTH",
"299 780 LINE",
"299 0 LINE SMOOTH",
"299 -11.046 OFFCURVE",
"307.954 -20 OFFCURVE",
"319 -20 CURVE SMOOTH"
);
}
);
width = 633;
},
{
layerId = "25139FCF-725A-49A6-A058-8DCF5AC16622";
paths = (
{
closed = 0;
nodes = (
"20 800 LINE",
"613 800 LINE"
);
},
{
closed = 0;
nodes = (
"319 0 LINE",
"319 800 LINE"
);
}
);
width = 633;
},
{
layerId = "1AB63056-1127-463F-B001-FB2AC81901C9";
paths = (
{
closed = 0;
nodes = (
"20 800 LINE",
"613 800 LINE"
);
},
{
closed = 0;
nodes = (
"319 0 LINE",
"319 800 LINE"
);
}
);
width = 633;
},
{
associatedMasterId = "6F4F10D2-8254-4335-A627-9F8D8891324D";
layerId = "FFB98EB9-09D2-47C8-A383-23584B986005";
name = path;
paths = (
{
closed = 0;
nodes = (
"20 800 LINE",
"613 800 LINE"
);
},
{
closed = 0;
nodes = (
"319 0 LINE",
"319 800 LINE"
);
}
);
visible = 1;
width = 633;
}
);
unicode = 0054;
},
{
glyphname = U;
lastChange = "2018-10-03 14:23:13 +0000";
layers = (
{
layerId = "6F4F10D2-8254-4335-A627-9F8D8891324D";
paths = (
{
closed = 1;
nodes = (
"447.559 -20 OFFCURVE",
"552 83.781 OFFCURVE",
"552 256 CURVE SMOOTH",
"552 800 LINE SMOOTH",
"552 811.046 OFFCURVE",
"543.046 820 OFFCURVE",
"532 820 CURVE SMOOTH",
"520.954 820 OFFCURVE",
"512 811.046 OFFCURVE",
"512 800 CURVE SMOOTH",
"512 256 LINE SMOOTH",
"512 106.193 OFFCURVE",
"425.807 20 OFFCURVE",
"276 20 CURVE SMOOTH",
"126.697 20 OFFCURVE",
"40 106.697 OFFCURVE",
"40 256 CURVE SMOOTH",
"40 800 LINE SMOOTH",
"40 811.046 OFFCURVE",
"31.046 820 OFFCURVE",
"20 820 CURVE SMOOTH",
"8.954 820 OFFCURVE",
"0 811.046 OFFCURVE",
"0 800 CURVE SMOOTH",
"0 256 LINE SMOOTH",
"0 84.277 OFFCURVE",
"104.277 -20 OFFCURVE",
"276 -20 CURVE SMOOTH"
);
}
);
width = 552;
},
{
layerId = "25139FCF-725A-49A6-A058-8DCF5AC16622";
paths = (
{
closed = 0;
nodes = (
"532 800 LINE",
"532 256 LINE SMOOTH",
"532 77 OFFCURVE",
"418 0 OFFCURVE",
"276 0 CURVE SMOOTH",
"135 0 OFFCURVE",
"20 77 OFFCURVE",
"20 256 CURVE SMOOTH",
"20 800 LINE"
);
}
);
width = 552;
},
{
layerId = "1AB63056-1127-463F-B001-FB2AC81901C9";
paths = (
{
closed = 0;
nodes = (
"532 800 LINE",
"532 256 LINE SMOOTH",
"532 77 OFFCURVE",
"418 0 OFFCURVE",
"276 0 CURVE SMOOTH",
"135 0 OFFCURVE",
"20 77 OFFCURVE",
"20 256 CURVE SMOOTH",
"20 800 LINE"
);
}
);
width = 552;
},
{
associatedMasterId = "6F4F10D2-8254-4335-A627-9F8D8891324D";
layerId = "848500F8-4464-46BF-B7F9-C2ECC4D78F25";
name = path;
paths = (
{
closed = 0;
nodes = (
"532 800 LINE",
"532 256 LINE SMOOTH",
"532 77 OFFCURVE",
"418 0 OFFCURVE",
"276 0 CURVE SMOOTH",
"135 0 OFFCURVE",
"20 77 OFFCURVE",
"20 256 CURVE SMOOTH",
"20 800 LINE"
);
}
);
visible = 1;
width = 552;
}
);
unicode = 0055;
},
{
glyphname = V;
lastChange = "2018-10-03 14:23:27 +0000";
layers = (
{
layerId = "6F4F10D2-8254-4335-A627-9F8D8891324D";
paths = (
{
closed = 1;
nodes = (
"317.761 -6.94 LINE SMOOTH",
"329.351 -6.94 OFFCURVE",
"336.633 -1.87 OFFCURVE",
"340.655 9 CURVE SMOOTH",
"630.595 792.621 LINE SMOOTH",
"631.501 794.904 OFFCURVE",
"632 797.394 OFFCURVE",
"632 800 CURVE SMOOTH",
"632 811.046 OFFCURVE",
"623.046 820 OFFCURVE",
"612 820 CURVE SMOOTH",
"603.231 820 OFFCURVE",
"595.78 814.356 OFFCURVE",
"593.081 806.503 CURVE SMOOTH",
"316 57.635 LINE",
"38.919 806.502 LINE SMOOTH",
"36.221 814.356 OFFCURVE",
"28.77 820 OFFCURVE",
"20 820 CURVE SMOOTH",
"8.954 820 OFFCURVE",
"0 811.046 OFFCURVE",
"0 800 CURVE SMOOTH",
"0 797.394 OFFCURVE",
"0.499 794.904 OFFCURVE",
"1.405 792.622 CURVE SMOOTH",
"291.345 9 LINE SMOOTH",
"295.367 -1.87 OFFCURVE",
"302.649 -6.94 OFFCURVE",
"314.239 -6.94 CURVE SMOOTH"
);
}
);
width = 632;
},
{
layerId = "25139FCF-725A-49A6-A058-8DCF5AC16622";
paths = (
{
closed = 0;
nodes = (
"20 800 LINE",
"316 0 LINE",
"612 800 LINE"
);
}
);
width = 632;
},
{
layerId = "1AB63056-1127-463F-B001-FB2AC81901C9";
paths = (
{
closed = 0;
nodes = (
"20 800 LINE",
"316 0 LINE",
"612 800 LINE"
);
}
);
width = 632;
},
{
associatedMasterId = "6F4F10D2-8254-4335-A627-9F8D8891324D";
layerId = "E6AF7CDB-8A76-4B13-A4F4-D042B56D95D5";
name = path;
paths = (
{
closed = 0;
nodes = (
"20 800 LINE",
"316 0 LINE",
"612 800 LINE"
);
}
);
visible = 1;
width = 632;
}
);
unicode = 0056;
},
{
glyphname = W;
lastChange = "2018-10-03 14:23:38 +0000";
layers = (
{
layerId = "6F4F10D2-8254-4335-A627-9F8D8891324D";
paths = (
{
closed = 1;
nodes = (
"765.903 -6.345 LINE SMOOTH",
"777.592 -6.057 OFFCURVE",
"784.735 -0.657 OFFCURVE",
"788.197 10.512 CURVE SMOOTH",
"1030.966 793.635 LINE SMOOTH",
"1031.636 795.635 OFFCURVE",
"1032 797.775 OFFCURVE",
"1032 800 CURVE SMOOTH",
"1032 811.046 OFFCURVE",
"1023.046 820 OFFCURVE",
"1012 820 CURVE SMOOTH",
"1002.855 820 OFFCURVE",
"995.145 813.863 OFFCURVE",
"992.761 805.483 CURVE SMOOTH",
"762.463 62.586 LINE",
"540.624 670.855 LINE SMOOTH",
"536.647 681.758 OFFCURVE",
"529.366 686.853 OFFCURVE",
"517.76 686.853 CURVE SMOOTH",
"514.24 686.853 LINE SMOOTH",
"502.634 686.853 OFFCURVE",
"495.353 681.758 OFFCURVE",
"491.376 670.855 CURVE SMOOTH",
"269.537 62.586 LINE",
"39.239 805.483 LINE SMOOTH",
"36.855 813.863 OFFCURVE",
"29.145 820 OFFCURVE",
"20 820 CURVE SMOOTH",
"8.954 820 OFFCURVE",
"0 811.046 OFFCURVE",
"0 800 CURVE SMOOTH",
"0 797.775 OFFCURVE",
"0.363 795.635 OFFCURVE",
"1.034 793.636 CURVE SMOOTH",
"243.803 10.512 LINE SMOOTH",
"247.265 -0.657 OFFCURVE",
"254.408 -6.057 OFFCURVE",
"266.097 -6.345 CURVE SMOOTH",
"269.589 -6.43 LINE SMOOTH",
"281.278 -6.718 OFFCURVE",
"288.678 -1.674 OFFCURVE",
"292.684 9.311 CURVE SMOOTH",
"516 621.629 LINE",
"739.316 9.311 LINE SMOOTH",
"743.322 -1.674 OFFCURVE",
"750.722 -6.718 OFFCURVE",
"762.411 -6.43 CURVE SMOOTH"
);
}
);
width = 1032;
},
{
layerId = "25139FCF-725A-49A6-A058-8DCF5AC16622";
paths = (
{
closed = 0;
nodes = (
"20 800 LINE",
"268 0 LINE",
"516 680 LINE",
"764 0 LINE",
"1012 800 LINE"
);
}
);
width = 1032;
},
{
layerId = "1AB63056-1127-463F-B001-FB2AC81901C9";
paths = (
{
closed = 0;
nodes = (
"20 800 LINE",
"268 0 LINE",
"516 680 LINE",
"764 0 LINE",
"1012 800 LINE"
);
}
);
width = 1032;
},
{
associatedMasterId = "6F4F10D2-8254-4335-A627-9F8D8891324D";
layerId = "295B7420-E1EE-4D34-A2D9-D878D5D7A03F";
name = path;
paths = (
{
closed = 0;
nodes = (
"20 800 LINE",
"268 0 LINE",
"516 680 LINE",
"764 0 LINE",
"1012 800 LINE"
);
}
);
visible = 1;
width = 1032;
}
);
unicode = 0057;
},
{
glyphname = X;
lastChange = "2018-10-03 14:23:50 +0000";
layers = (
{
layerId = "6F4F10D2-8254-4335-A627-9F8D8891324D";
paths = (
{
closed = 1;
nodes = (
"26.665 -20 OFFCURVE",
"32.569 -16.74 OFFCURVE",
"36.203 -11.727 CURVE SMOOTH",
"316 366.377 LINE",
"595.798 -11.727 LINE SMOOTH",
"599.432 -16.74 OFFCURVE",
"605.335 -20 OFFCURVE",
"612 -20 CURVE SMOOTH",
"623.046 -20 OFFCURVE",
"632 -11.046 OFFCURVE",
"632 0 CURVE SMOOTH",
"632 4.519 OFFCURVE",
"630.501 8.687 OFFCURVE",
"627.974 12.036 CURVE SMOOTH",
"340.881 400 LINE",
"627.975 787.965 LINE SMOOTH",
"630.502 791.313 OFFCURVE",
"632 795.482 OFFCURVE",
"632 800 CURVE SMOOTH",
"632 811.046 OFFCURVE",
"623.046 820 OFFCURVE",
"612 820 CURVE SMOOTH",
"605.335 820 OFFCURVE",
"599.432 816.74 OFFCURVE",
"595.797 811.727 CURVE SMOOTH",
"316 433.623 LINE",
"36.203 811.727 LINE SMOOTH",
"32.569 816.74 OFFCURVE",
"26.665 820 OFFCURVE",
"20 820 CURVE SMOOTH",
"8.954 820 OFFCURVE",
"0 811.046 OFFCURVE",
"0 800 CURVE SMOOTH",
"0 795.482 OFFCURVE",
"1.498 791.314 OFFCURVE",
"4.025 787.966 CURVE SMOOTH",
"291.119 400 LINE",
"4.025 12.035 LINE SMOOTH",
"1.498 8.686 OFFCURVE",
"0 4.518 OFFCURVE",
"0 0 CURVE SMOOTH",
"0 -11.046 OFFCURVE",
"8.954 -20 OFFCURVE",
"20 -20 CURVE SMOOTH"
);
}
);
width = 632;
},
{
layerId = "25139FCF-725A-49A6-A058-8DCF5AC16622";
paths = (
{
closed = 0;
nodes = (
"20 800 LINE",
"612 0 LINE"
);
},
{
closed = 0;
nodes = (
"20 0 LINE",
"612 800 LINE"
);
}
);
width = 632;
},
{
layerId = "1AB63056-1127-463F-B001-FB2AC81901C9";
paths = (
{
closed = 0;
nodes = (
"20 800 LINE",
"612 0 LINE"
);
},
{
closed = 0;
nodes = (
"20 0 LINE",
"612 800 LINE"
);
}
);
width = 632;
},
{
associatedMasterId = "6F4F10D2-8254-4335-A627-9F8D8891324D";
layerId = "CAFA34F1-9382-4A5C-9473-41DF82FCCCEA";
name = path;
paths = (
{
closed = 0;
nodes = (
"20 800 LINE",
"612 0 LINE"
);
},
{
closed = 0;
nodes = (
"20 0 LINE",
"612 800 LINE"
);
}
);
visible = 1;
width = 632;
}
);
unicode = 0058;
},
{
glyphname = Y;
lastChange = "2018-10-03 14:24:06 +0000";
layers = (
{
layerId = "6F4F10D2-8254-4335-A627-9F8D8891324D";
paths = (
{
closed = 1;
nodes = (
"277.046 -20 OFFCURVE",
"286 -11.046 OFFCURVE",
"286 0 CURVE SMOOTH",
"286 370.655 LINE",
"527.184 789.761 LINE SMOOTH",
"528.972 792.756 OFFCURVE",
"530 796.258 OFFCURVE",
"530 800 CURVE SMOOTH",
"530 811.046 OFFCURVE",
"521.046 820 OFFCURVE",
"510 820 CURVE SMOOTH",
"502.466 820 OFFCURVE",
"495.905 815.834 OFFCURVE",
"492.495 809.68 CURVE SMOOTH",
"265.929 415.976 LINE",
"37.491 809.707 LINE SMOOTH",
"34.076 815.846 OFFCURVE",
"27.523 820 OFFCURVE",
"20 820 CURVE SMOOTH",
"8.954 820 OFFCURVE",
"0 811.046 OFFCURVE",
"0 800 CURVE SMOOTH",
"0 796.218 OFFCURVE",
"1.05 792.682 OFFCURVE",
"2.873 789.666 CURVE SMOOTH",
"246 370.618 LINE",
"246 0 LINE SMOOTH",
"246 -11.046 OFFCURVE",
"254.954 -20 OFFCURVE",
"266 -20 CURVE SMOOTH"
);
}
);
width = 530;
},
{
layerId = "25139FCF-725A-49A6-A058-8DCF5AC16622";
paths = (
{
closed = 0;
nodes = (
"20 800 LINE",
"266 376 LINE",
"510 800 LINE"
);
},
{
closed = 0;
nodes = (
"266 0 LINE",
"266 376 LINE"
);
}
);
width = 530;
},
{
layerId = "1AB63056-1127-463F-B001-FB2AC81901C9";
paths = (
{
closed = 0;
nodes = (
"20 800 LINE",
"266 376 LINE",
"510 800 LINE"
);
},
{
closed = 0;
nodes = (
"266 0 LINE",
"266 376 LINE"
);
}
);
width = 530;
},
{
associatedMasterId = "6F4F10D2-8254-4335-A627-9F8D8891324D";
layerId = "859D0C5D-ED0E-4E84-AD74-037CD6AF6B68";
name = path;
paths = (
{
closed = 0;
nodes = (
"20 800 LINE",
"266 376 LINE",
"510 800 LINE"
);
},
{
closed = 0;
nodes = (
"266 0 LINE",
"266 376 LINE"
);
}
);
visible = 1;
width = 530;
}
);
unicode = 0059;
},
{
glyphname = Z;
lastChange = "2018-10-03 14:24:15 +0000";
layers = (
{
layerId = "6F4F10D2-8254-4335-A627-9F8D8891324D";
paths = (
{
closed = 1;
nodes = (
"571 -20 LINE SMOOTH",
"582.046 -20 OFFCURVE",
"591 -11.046 OFFCURVE",
"591 0 CURVE SMOOTH",
"591 11.046 OFFCURVE",
"582.046 20 OFFCURVE",
"571 20 CURVE SMOOTH",
"58.114 20 LINE",
"578.295 773.366 LINE SMOOTH",
"584.632 782.543 OFFCURVE",
"585.155 791.044 OFFCURVE",
"579.991 800.929 CURVE SMOOTH",
"578.54 803.707 LINE SMOOTH",
"573.376 813.592 OFFCURVE",
"566.099 818.018 OFFCURVE",
"554.947 818.059 CURVE SMOOTH",
"20 820 LINE SMOOTH",
"8.954 820 OFFCURVE",
"0 811.046 OFFCURVE",
"0 800 CURVE SMOOTH",
"0 788.978 OFFCURVE",
"8.915 780.04 OFFCURVE",
"19.927 780 CURVE SMOOTH",
"532.981 778.138 LINE",
"12.711 24.644 LINE SMOOTH",
"6.371 15.461 OFFCURVE",
"5.856 6.955 OFFCURVE",
"11.04 -2.926 CURVE SMOOTH",
"12.502 -5.71 LINE SMOOTH",
"17.686 -15.591 OFFCURVE",
"24.979 -20 OFFCURVE",
"36.138 -20 CURVE SMOOTH"
);
}
);
width = 591;
},
{
layerId = "25139FCF-725A-49A6-A058-8DCF5AC16622";
paths = (
{
closed = 0;
nodes = (
"20 800 LINE",
"571 798 LINE",
"20 0 LINE",
"571 0 LINE"
);
}
);
width = 591;
},
{
layerId = "1AB63056-1127-463F-B001-FB2AC81901C9";
paths = (
{
closed = 0;
nodes = (
"20 800 LINE",
"571 798 LINE",
"20 0 LINE",
"571 0 LINE"
);
}
);
width = 591;
},
{
associatedMasterId = "6F4F10D2-8254-4335-A627-9F8D8891324D";
layerId = "6700EA1E-D0FA-46D5-B94E-BDEFF808E497";
name = path;
paths = (
{
closed = 0;
nodes = (
"20 800 LINE",
"571 798 LINE",
"20 0 LINE",
"571 0 LINE"
);
}
);
visible = 1;
width = 591;
}
);
unicode = 005A;
},
{
color = 1;
glyphname = a;
lastChange = "2018-10-03 15:22:33 +0000";
layers = (
{
layerId = "6F4F10D2-8254-4335-A627-9F8D8891324D";
paths = (
{
closed = 1;
nodes = (
"233.931 -20 OFFCURVE",
"306.171 22.418 OFFCURVE",
"345 49.19 CURVE",
"345 0 LINE SMOOTH",
"345 -11.046 OFFCURVE",
"353.954 -20 OFFCURVE",
"365 -20 CURVE SMOOTH",
"376.046 -20 OFFCURVE",
"385 -11.046 OFFCURVE",
"385 0 CURVE SMOOTH",
"385 341 LINE SMOOTH",
"385 463.71 OFFCURVE",
"317.497 520 OFFCURVE",
"177 520 CURVE SMOOTH",
"76.553 520 OFFCURVE",
"18 451 OFFCURVE",
"16 447 CURVE SMOOTH",
"14 443 OFFCURVE",
"12 440 OFFCURVE",
"12 436 CURVE SMOOTH",
"12 425 OFFCURVE",
"21 416 OFFCURVE",
"32 416 CURVE SMOOTH",
"39 416 OFFCURVE",
"45 419 OFFCURVE",
"49 425 CURVE SMOOTH",
"52 429 OFFCURVE",
"98.774 480 OFFCURVE",
"177 480 CURVE SMOOTH",
"296.097 480 OFFCURVE",
"345 440.199 OFFCURVE",
"345 341 CURVE SMOOTH",
"345 300.544 LINE",
"318.406 323.441 OFFCURVE",
"272.555 346 OFFCURVE",
"173 346 CURVE SMOOTH",
"76.835 346 OFFCURVE",
"0 265.974 OFFCURVE",
"0 169 CURVE SMOOTH",
"0 59.709 OFFCURVE",
"69.639 -20 OFFCURVE",
"166 -20 CURVE SMOOTH"
);
},
{
closed = 1;
nodes = (
"92.099 20 OFFCURVE",
"40 81.911 OFFCURVE",
"40 169 CURVE SMOOTH",
"40 243.761 OFFCURVE",
"99.178 306 OFFCURVE",
"173 306 CURVE SMOOTH",
"296.785 306 OFFCURVE",
"317.617 271.623 OFFCURVE",
"345 241.943 CURVE",
"345 98.785 LINE",
"327.303 84.751 OFFCURVE",
"241.563 20 OFFCURVE",
"166 20 CURVE SMOOTH"
);
}
);
width = 385;
},
{
layerId = "25139FCF-725A-49A6-A058-8DCF5AC16622";
paths = (
{
closed = 0;
nodes = (
"361 86 LINE",
"361 86 OFFCURVE",
"258 0 OFFCURVE",
"166 0 CURVE SMOOTH",
"71 0 OFFCURVE",
"20 83 OFFCURVE",
"20 169 CURVE SMOOTH",
"20 237 OFFCURVE",
"72 326 OFFCURVE",
"173 326 CURVE SMOOTH",
"315 326 OFFCURVE",
"336 280 OFFCURVE",
"363 252 CURVE"
);
},
{
closed = 0;
nodes = (
"35 426 LINE",
"35 426 OFFCURVE",
"85 500 OFFCURVE",
"177 500 CURVE SMOOTH",
"270 500 OFFCURVE",
"365 479 OFFCURVE",
"365 341 CURVE SMOOTH",
"365 0 LINE"
);
}
);
width = 385;
},
{
layerId = "1AB63056-1127-463F-B001-FB2AC81901C9";
paths = (
{
closed = 0;
nodes = (
"361 86 LINE",
"361 86 OFFCURVE",
"258 0 OFFCURVE",
"166 0 CURVE SMOOTH",
"71 0 OFFCURVE",
"20 83 OFFCURVE",
"20 169 CURVE SMOOTH",
"20 237 OFFCURVE",
"72 326 OFFCURVE",
"173 326 CURVE SMOOTH",
"315 326 OFFCURVE",
"336 280 OFFCURVE",
"363 252 CURVE"
);
},
{
closed = 0;
nodes = (
"35 426 LINE",
"35 426 OFFCURVE",
"85 500 OFFCURVE",
"177 500 CURVE SMOOTH",
"270 500 OFFCURVE",
"365 479 OFFCURVE",
"365 341 CURVE SMOOTH",
"365 0 LINE"
);
}
);
width = 385;
},
{
associatedMasterId = "6F4F10D2-8254-4335-A627-9F8D8891324D";
layerId = "43D7AD1E-C1D3-45E5-B050-3F0288014DFB";
name = path;
paths = (
{
closed = 0;
nodes = (
"361 86 LINE",
"361 86 OFFCURVE",
"258 0 OFFCURVE",
"166 0 CURVE SMOOTH",
"71 0 OFFCURVE",
"20 83 OFFCURVE",
"20 169 CURVE SMOOTH",
"20 237 OFFCURVE",
"72 326 OFFCURVE",
"173 326 CURVE SMOOTH",
"315 326 OFFCURVE",
"336 280 OFFCURVE",
"363 252 CURVE"
);
},
{
closed = 0;
nodes = (
"35 426 LINE",
"35 426 OFFCURVE",
"85 500 OFFCURVE",
"177 500 CURVE SMOOTH",
"270 500 OFFCURVE",
"365 479 OFFCURVE",
"365 341 CURVE SMOOTH",
"365 0 LINE"
);
}
);
visible = 1;
width = 385;
}
);
unicode = 0061;
},
{
glyphname = b;
lastChange = "2018-10-03 14:26:14 +0000";
layers = (
{
layerId = "6F4F10D2-8254-4335-A627-9F8D8891324D";
paths = (
{
closed = 1;
nodes = (
"31.046 -20 OFFCURVE",
"40 -11.046 OFFCURVE",
"40 0 CURVE SMOOTH",
"40 26.149 LINE",
"65.713 3.749 OFFCURVE",
"109.007 -20 OFFCURVE",
"177 -20 CURVE SMOOTH",
"312.116 -20 OFFCURVE",
"390 79.916 OFFCURVE",
"390 251 CURVE SMOOTH",
"390 388.721 OFFCURVE",
"288.018 520 OFFCURVE",
"177 520 CURVE SMOOTH",
"109.007 520 OFFCURVE",
"65.713 496.251 OFFCURVE",
"40 473.851 CURVE",
"40 700 LINE SMOOTH",
"40 711.046 OFFCURVE",
"31.046 720 OFFCURVE",
"20 720 CURVE SMOOTH",
"8.954 720 OFFCURVE",
"0 711.046 OFFCURVE",
"0 700 CURVE SMOOTH",
"0 0 LINE SMOOTH",
"0 -11.046 OFFCURVE",
"8.954 -20 OFFCURVE",
"20 -20 CURVE SMOOTH"
);
},
{
closed = 1;
nodes = (
"73.665 20 OFFCURVE",
"43.889 82.955 OFFCURVE",
"43.889 82.944 CURVE",
"40 81 LINE",
"40 419 LINE",
"41.945 418.028 LINE SMOOTH",
"43.238 417.382 OFFCURVE",
"46.423 422.881 OFFCURVE",
"54.474 432.266 CURVE SMOOTH",
"70.483 450.894 OFFCURVE",
"106.737 480 OFFCURVE",
"177 480 CURVE SMOOTH",
"264.823 480 OFFCURVE",
"350 366.25 OFFCURVE",
"350 251 CURVE SMOOTH",
"350 101.491 OFFCURVE",
"288.227 20 OFFCURVE",
"177 20 CURVE SMOOTH"
);
}
);
width = 390;
},
{
layerId = "25139FCF-725A-49A6-A058-8DCF5AC16622";
paths = (
{
closed = 0;
nodes = (
"20 700 LINE",
"20 0 LINE"
);
},
{
closed = 0;
nodes = (
"26 74 LINE",
"26 74 OFFCURVE",
"61 0 OFFCURVE",
"177 0 CURVE SMOOTH",
"295 0 OFFCURVE",
"370 84 OFFCURVE",
"370 251 CURVE SMOOTH",
"370 351 OFFCURVE",
"295 500 OFFCURVE",
"177 500 CURVE SMOOTH",
"61 500 OFFCURVE",
"26 426 OFFCURVE",
"26 426 CURVE"
);
}
);
width = 390;
},
{
layerId = "1AB63056-1127-463F-B001-FB2AC81901C9";
paths = (
{
closed = 0;
nodes = (
"20 700 LINE",
"20 0 LINE"
);
},
{
closed = 0;
nodes = (
"26 74 LINE",
"26 74 OFFCURVE",
"61 0 OFFCURVE",
"177 0 CURVE SMOOTH",
"295 0 OFFCURVE",
"370 84 OFFCURVE",
"370 251 CURVE SMOOTH",
"370 351 OFFCURVE",
"295 500 OFFCURVE",
"177 500 CURVE SMOOTH",
"61 500 OFFCURVE",
"26 426 OFFCURVE",
"26 426 CURVE"
);
}
);
width = 390;
},
{
associatedMasterId = "6F4F10D2-8254-4335-A627-9F8D8891324D";
layerId = "6580A50B-65CF-421A-8603-6C13D53647D6";
name = path;
paths = (
{
closed = 0;
nodes = (
"20 700 LINE",
"20 0 LINE"
);
},
{
closed = 0;
nodes = (
"26 74 LINE",
"26 74 OFFCURVE",
"61 0 OFFCURVE",
"177 0 CURVE SMOOTH",
"295 0 OFFCURVE",
"370 84 OFFCURVE",
"370 251 CURVE SMOOTH",
"370 351 OFFCURVE",
"295 500 OFFCURVE",
"177 500 CURVE SMOOTH",
"61 500 OFFCURVE",
"26 426 OFFCURVE",
"26 426 CURVE"
);
}
);
visible = 1;
width = 390;
}
);
unicode = 0062;
},
{
color = 1;
glyphname = c;
lastChange = "2018-10-03 15:13:05 +0000";
layers = (
{
layerId = "6F4F10D2-8254-4335-A627-9F8D8891324D";
paths = (
{
closed = 1;
nodes = (
"269.483 -20 OFFCURVE",
"322.826 -1.153 OFFCURVE",
"362.831 32.658 CURVE SMOOTH",
"367.213 36.327 OFFCURVE",
"370 41.838 OFFCURVE",
"370 48 CURVE SMOOTH",
"370 59.046 OFFCURVE",
"361.046 68 OFFCURVE",
"350 68 CURVE SMOOTH",
"345.067 68 OFFCURVE",
"340.552 66.214 OFFCURVE",
"337.065 63.254 CURVE SMOOTH",
"303.557 34.908 OFFCURVE",
"260.483 20 OFFCURVE",
"214 20 CURVE SMOOTH",
"107.49 20 OFFCURVE",
"40 110.917 OFFCURVE",
"40 251 CURVE SMOOTH",
"40 384.901 OFFCURVE",
"111.097 480 OFFCURVE",
"214 480 CURVE SMOOTH",
"311.041 480 OFFCURVE",
"344.194 441.836 OFFCURVE",
"353.807 425.913 CURVE",
"338.118 392.967 LINE SMOOTH",
"336.763 390.27 OFFCURVE",
"336 387.224 OFFCURVE",
"336 384 CURVE SMOOTH",
"336 372.954 OFFCURVE",
"344.954 364 OFFCURVE",
"356 364 CURVE SMOOTH",
"364.124 364 OFFCURVE",
"371.117 368.844 OFFCURVE",
"374.248 375.801 CURVE SMOOTH",
"388.551 405.839 LINE SMOOTH",
"392.574 414.287 OFFCURVE",
"394.152 419.493 OFFCURVE",
"394.408 425.168 CURVE SMOOTH",
"394.664 430.83 OFFCURVE",
"393.86 436.408 OFFCURVE",
"389.008 444.575 CURVE SMOOTH",
"374.869 468.293 OFFCURVE",
"330.657 520 OFFCURVE",
"214 520 CURVE SMOOTH",
"88.015 520 OFFCURVE",
"0 406.727 OFFCURVE",
"0 251 CURVE SMOOTH",
"0 88.98 OFFCURVE",
"84.013 -20 OFFCURVE",
"214 -20 CURVE SMOOTH"
);
}
);
width = 539;
},
{
layerId = "25139FCF-725A-49A6-A058-8DCF5AC16622";
paths = (
{
closed = 0;
nodes = (
"356 384 LINE",
"376 426 LINE",
"376 426 OFFCURVE",
"351 500 OFFCURVE",
"214 500 CURVE SMOOTH",
"71 500 OFFCURVE",
"20 354 OFFCURVE",
"20 251 CURVE SMOOTH",
"20 136 OFFCURVE",
"71 0 OFFCURVE",
"214 0 CURVE SMOOTH",
"279 0 OFFCURVE",
"324 26 OFFCURVE",
"350 48 CURVE"
);
}
);
width = 539;
},
{
layerId = "1AB63056-1127-463F-B001-FB2AC81901C9";
paths = (
{
closed = 0;
nodes = (
"356 384 LINE",
"376 426 LINE",
"376 426 OFFCURVE",
"351 500 OFFCURVE",
"214 500 CURVE SMOOTH",
"71 500 OFFCURVE",
"20 354 OFFCURVE",
"20 251 CURVE SMOOTH",
"20 136 OFFCURVE",
"71 0 OFFCURVE",
"214 0 CURVE SMOOTH",
"279 0 OFFCURVE",
"324 26 OFFCURVE",
"350 48 CURVE"
);
}
);
width = 539;
},
{
associatedMasterId = "6F4F10D2-8254-4335-A627-9F8D8891324D";
layerId = "55BE9E8F-BB2C-4165-A12C-9EEFC24186A1";
name = path;
paths = (
{
closed = 0;
nodes = (
"356 384 LINE",
"376 426 LINE",
"376 426 OFFCURVE",
"351 500 OFFCURVE",
"214 500 CURVE SMOOTH",
"71 500 OFFCURVE",
"20 354 OFFCURVE",
"20 251 CURVE SMOOTH",
"20 136 OFFCURVE",
"71 0 OFFCURVE",
"214 0 CURVE SMOOTH",
"279 0 OFFCURVE",
"324 26 OFFCURVE",
"350 48 CURVE"
);
}
);
visible = 1;
width = 539;
}
);
unicode = 0063;
},
{
glyphname = d;
lastChange = "2018-10-03 14:26:40 +0000";
layers = (
{
layerId = "6F4F10D2-8254-4335-A627-9F8D8891324D";
paths = (
{
closed = 1;
nodes = (
"281.195 -20 OFFCURVE",
"324.373 3.52 OFFCURVE",
"350 25.851 CURVE",
"350 0 LINE SMOOTH",
"350 -11.046 OFFCURVE",
"358.954 -20 OFFCURVE",
"370 -20 CURVE SMOOTH",
"381.046 -20 OFFCURVE",
"390 -11.046 OFFCURVE",
"390 0 CURVE SMOOTH",
"390 700 LINE SMOOTH",
"390 711.046 OFFCURVE",
"381.046 720 OFFCURVE",
"370 720 CURVE SMOOTH",
"358.954 720 OFFCURVE",
"350 711.046 OFFCURVE",
"350 700 CURVE SMOOTH",
"350 474.149 LINE",
"324.373 496.48 OFFCURVE",
"281.195 520 OFFCURVE",
"213 520 CURVE SMOOTH",
"101.869 520 OFFCURVE",
"0 388.365 OFFCURVE",
"0 250 CURVE SMOOTH",
"0 80.849 OFFCURVE",
"78.92 -20 OFFCURVE",
"213 -20 CURVE SMOOTH"
);
},
{
closed = 1;
nodes = (
"102.764 20 OFFCURVE",
"40 102.469 OFFCURVE",
"40 250 CURVE SMOOTH",
"40 365.922 OFFCURVE",
"125.058 480 OFFCURVE",
"213 480 CURVE SMOOTH",
"317.179 480 OFFCURVE",
"346.017 417.235 OFFCURVE",
"346.017 417.247 CURVE",
"350 419.186 LINE",
"350 80.814 LINE",
"348.009 81.784 LINE SMOOTH",
"346.683 82.429 OFFCURVE",
"343.558 76.909 OFFCURVE",
"335.558 67.503 CURVE SMOOTH",
"319.73 48.929 OFFCURVE",
"283.728 20 OFFCURVE",
"213 20 CURVE SMOOTH"
);
}
);
width = 390;
},
{
layerId = "25139FCF-725A-49A6-A058-8DCF5AC16622";
paths = (
{
closed = 0;
nodes = (
"370 700 LINE",
"370 0 LINE"
);
},
{
closed = 0;
nodes = (
"364 74 LINE",
"364 74 OFFCURVE",
"330 0 OFFCURVE",
"213 0 CURVE SMOOTH",
"96 0 OFFCURVE",
"20 85 OFFCURVE",
"20 250 CURVE SMOOTH",
"20 352 OFFCURVE",
"96 500 OFFCURVE",
"213 500 CURVE SMOOTH",
"330 500 OFFCURVE",
"364 426 OFFCURVE",
"364 426 CURVE"
);
}
);
width = 390;
},
{
layerId = "1AB63056-1127-463F-B001-FB2AC81901C9";
paths = (
{
closed = 0;
nodes = (
"370 700 LINE",
"370 0 LINE"
);
},
{
closed = 0;
nodes = (
"364 74 LINE",
"364 74 OFFCURVE",
"330 0 OFFCURVE",
"213 0 CURVE SMOOTH",
"96 0 OFFCURVE",
"20 85 OFFCURVE",
"20 250 CURVE SMOOTH",
"20 352 OFFCURVE",
"96 500 OFFCURVE",
"213 500 CURVE SMOOTH",
"330 500 OFFCURVE",
"364 426 OFFCURVE",
"364 426 CURVE"
);
}
);
width = 390;
},
{
associatedMasterId = "6F4F10D2-8254-4335-A627-9F8D8891324D";
layerId = "8E897748-89C8-4336-893C-D6254943C043";
name = path;
paths = (
{
closed = 0;
nodes = (
"370 700 LINE",
"370 0 LINE"
);
},
{
closed = 0;
nodes = (
"364 74 LINE",
"364 74 OFFCURVE",
"330 0 OFFCURVE",
"213 0 CURVE SMOOTH",
"96 0 OFFCURVE",
"20 85 OFFCURVE",
"20 250 CURVE SMOOTH",
"20 352 OFFCURVE",
"96 500 OFFCURVE",
"213 500 CURVE SMOOTH",
"330 500 OFFCURVE",
"364 426 OFFCURVE",
"364 426 CURVE"
);
}
);
visible = 1;
width = 390;
}
);
unicode = 0064;
},
{
color = 1;
glyphname = e;
lastChange = "2018-10-03 15:31:51 +0000";
layers = (
{
layerId = "6F4F10D2-8254-4335-A627-9F8D8891324D";
paths = (
{
closed = 1;
nodes = (
"284.456 -20 OFFCURVE",
"335.361 10.492 OFFCURVE",
"362.469 32.362 CURVE SMOOTH",
"367.059 36.026 OFFCURVE",
"370 41.669 OFFCURVE",
"370 48 CURVE SMOOTH",
"370 59.046 OFFCURVE",
"361.046 68 OFFCURVE",
"350 68 CURVE SMOOTH",
"345.222 68 OFFCURVE",
"340.835 66.324 OFFCURVE",
"337.395 63.529 CURVE SMOOTH",
"302.446 35.313 OFFCURVE",
"260.698 20 OFFCURVE",
"215 20 CURVE SMOOTH",
"113.633 20 OFFCURVE",
"46.78 102.545 OFFCURVE",
"40.487 230 CURVE",
"379.774 230 LINE SMOOTH",
"389.924 230 OFFCURVE",
"396.852 232.588 OFFCURVE",
"403.953 239.031 CURVE SMOOTH",
"411.04 245.462 OFFCURVE",
"414.397 252.175 OFFCURVE",
"414.75 262.385 CURVE SMOOTH",
"414.878 266.09 OFFCURVE",
"414.969 270.417 OFFCURVE",
"414.969 275.249 CURVE SMOOTH",
"414.969 339.735 OFFCURVE",
"396.942 520 OFFCURVE",
"215 520 CURVE SMOOTH",
"88.598 520 OFFCURVE",
"0 406.107 OFFCURVE",
"0 250 CURVE SMOOTH",
"0 89.333 OFFCURVE",
"85.039 -20 OFFCURVE",
"215 -20 CURVE SMOOTH"
);
},
{
closed = 1;
nodes = (
"47.3 393.712 OFFCURVE",
"116.851 480 OFFCURVE",
"215 480 CURVE SMOOTH",
"360.743 480 OFFCURVE",
"374.969 337.74 OFFCURVE",
"374.969 275.249 CURVE SMOOTH",
"374.969 273.404 OFFCURVE",
"374.955 271.652 OFFCURVE",
"374.93 270 CURVE",
"40.541 270 LINE"
);
}
);
width = 409;
},
{
layerId = "25139FCF-725A-49A6-A058-8DCF5AC16622";
paths = (
{
closed = 0;
nodes = (
"20 250 LINE",
"394 250 LINE",
"394 250 OFFCURVE",
"419 500 OFFCURVE",
"215 500 CURVE SMOOTH",
"72 500 OFFCURVE",
"20 354 OFFCURVE",
"20 250 CURVE SMOOTH",
"20 136 OFFCURVE",
"72 0 OFFCURVE",
"215 0 CURVE SMOOTH",
"279 0 OFFCURVE",
"324 27 OFFCURVE",
"350 48 CURVE"
);
}
);
width = 409;
},
{
layerId = "1AB63056-1127-463F-B001-FB2AC81901C9";
paths = (
{
closed = 0;
nodes = (
"20 250 LINE",
"394 250 LINE",
"394 250 OFFCURVE",
"419 500 OFFCURVE",
"215 500 CURVE SMOOTH",
"72 500 OFFCURVE",
"20 354 OFFCURVE",
"20 250 CURVE SMOOTH",
"20 136 OFFCURVE",
"72 0 OFFCURVE",
"215 0 CURVE SMOOTH",
"279 0 OFFCURVE",
"324 27 OFFCURVE",
"350 48 CURVE"
);
}
);
width = 409;
},
{
associatedMasterId = "6F4F10D2-8254-4335-A627-9F8D8891324D";
layerId = "FF7947BE-F7C1-4CFD-BDCB-A1964E48B8AF";
name = path;
paths = (
{
closed = 0;
nodes = (
"20 250 LINE",
"394 250 LINE",
"394 250 OFFCURVE",
"419 500 OFFCURVE",
"215 500 CURVE SMOOTH",
"72 500 OFFCURVE",
"20 354 OFFCURVE",
"20 250 CURVE SMOOTH",
"20 136 OFFCURVE",
"72 0 OFFCURVE",
"215 0 CURVE SMOOTH",
"279 0 OFFCURVE",
"324 27 OFFCURVE",
"350 48 CURVE"
);
}
);
visible = 1;
width = 409;
}
);
unicode = 0065;
},
{
glyphname = f;
lastChange = "2018-10-03 14:27:02 +0000";
layers = (
{
layerId = "6F4F10D2-8254-4335-A627-9F8D8891324D";
paths = (
{
closed = 1;
nodes = (
"31.046 -20 OFFCURVE",
"40 -11.046 OFFCURVE",
"40 0 CURVE SMOOTH",
"40 398 LINE",
"202 398 LINE SMOOTH",
"213.046 398 OFFCURVE",
"222 406.954 OFFCURVE",
"222 418 CURVE SMOOTH",
"222 429.046 OFFCURVE",
"213.046 438 OFFCURVE",
"202 438 CURVE SMOOTH",
"40 438 LINE",
"40 524 LINE SMOOTH",
"40 597.291 OFFCURVE",
"37.591 680 OFFCURVE",
"126 680 CURVE SMOOTH",
"165.395 680 OFFCURVE",
"194.641 670.11 OFFCURVE",
"217.504 649.24 CURVE SMOOTH",
"221.061 645.985 OFFCURVE",
"225.799 644 OFFCURVE",
"231 644 CURVE SMOOTH",
"242.046 644 OFFCURVE",
"251 652.954 OFFCURVE",
"251 664 CURVE SMOOTH",
"251 669.902 OFFCURVE",
"248.443 675.206 OFFCURVE",
"244.378 678.867 CURVE SMOOTH",
"214.811 705.807 OFFCURVE",
"173.837 720 OFFCURVE",
"126 720 CURVE SMOOTH",
"-3.591 720 OFFCURVE",
"0 596.709 OFFCURVE",
"0 524 CURVE SMOOTH",
"0 0 LINE SMOOTH",
"0 -11.046 OFFCURVE",
"8.954 -20 OFFCURVE",
"20 -20 CURVE SMOOTH"
);
}
);
width = 251;
},
{
layerId = "25139FCF-725A-49A6-A058-8DCF5AC16622";
paths = (
{
closed = 0;
nodes = (
"202 418 LINE",
"27 418 LINE"
);
},
{
closed = 0;
nodes = (
"20 0 LINE",
"20 0 OFFCURVE",
"20 279 OFFCURVE",
"20 421 CURVE SMOOTH",
"20 524 LINE SMOOTH",
"20 597 OFFCURVE",
"17 700 OFFCURVE",
"126 700 CURVE SMOOTH",
"175 700 OFFCURVE",
"208 685 OFFCURVE",
"231 664 CURVE"
);
}
);
width = 251;
},
{
layerId = "1AB63056-1127-463F-B001-FB2AC81901C9";
paths = (
{
closed = 0;
nodes = (
"202 418 LINE",
"27 418 LINE"
);
},
{
closed = 0;
nodes = (
"20 0 LINE",
"20 0 OFFCURVE",
"20 279 OFFCURVE",
"20 421 CURVE SMOOTH",
"20 524 LINE SMOOTH",
"20 597 OFFCURVE",
"17 700 OFFCURVE",
"126 700 CURVE SMOOTH",
"175 700 OFFCURVE",
"208 685 OFFCURVE",
"231 664 CURVE"
);
}
);
width = 251;
},
{
associatedMasterId = "6F4F10D2-8254-4335-A627-9F8D8891324D";
layerId = "E1DFB8B1-65CC-4325-9AE0-F0FCE1FB997A";
name = path;
paths = (
{
closed = 0;
nodes = (
"202 418 LINE",
"27 418 LINE"
);
},
{
closed = 0;
nodes = (
"20 0 LINE",
"20 0 OFFCURVE",
"20 279 OFFCURVE",
"20 421 CURVE SMOOTH",
"20 524 LINE SMOOTH",
"20 597 OFFCURVE",
"17 700 OFFCURVE",
"126 700 CURVE SMOOTH",
"175 700 OFFCURVE",
"208 685 OFFCURVE",
"231 664 CURVE"
);
}
);
visible = 1;
width = 251;
}
);
unicode = 0066;
},
{
glyphname = g;
lastChange = "2018-10-03 15:24:45 +0000";
layers = (
{
layerId = "6F4F10D2-8254-4335-A627-9F8D8891324D";
paths = (
{
closed = 1;
nodes = (
"353 -351 OFFCURVE",
"386 -207.756 OFFCURVE",
"386 -121 CURVE SMOOTH",
"386 500 LINE SMOOTH",
"386 511.046 OFFCURVE",
"377.046 520 OFFCURVE",
"366 520 CURVE SMOOTH",
"354.954 520 OFFCURVE",
"346 511.046 OFFCURVE",
"346 500 CURVE SMOOTH",
"346 476.717 LINE",
"319.878 498.324 OFFCURVE",
"260 520 OFFCURVE",
"196 520 CURVE SMOOTH",
"55 520 OFFCURVE",
"0 426.755 OFFCURVE",
"0 249 CURVE SMOOTH",
"0 90.105 OFFCURVE",
"68 -20 OFFCURVE",
"196 -20 CURVE SMOOTH",
"260 -20 OFFCURVE",
"319.892 1.18 OFFCURVE",
"346 22.264 CURVE",
"346 -121 LINE SMOOTH",
"346 -208.244 OFFCURVE",
"312 -311 OFFCURVE",
"203 -311 CURVE SMOOTH",
"119 -311 OFFCURVE",
"57 -273 OFFCURVE",
"39 -193 CURVE SMOOTH",
"37 -184 OFFCURVE",
"29 -178 OFFCURVE",
"20 -178 CURVE SMOOTH",
"8 -178 OFFCURVE",
"0 -187 OFFCURVE",
"0 -198 CURVE SMOOTH",
"0 -199 OFFCURVE",
"0 -201 OFFCURVE",
"0 -203 CURVE SMOOTH",
"0 -303 OFFCURVE",
"101 -351 OFFCURVE",
"203 -351 CURVE SMOOTH"
);
},
{
closed = 1;
nodes = (
"92 20 OFFCURVE",
"40 111.509 OFFCURVE",
"40 249 CURVE SMOOTH",
"40 406.448 OFFCURVE",
"79 480 OFFCURVE",
"196 480 CURVE SMOOTH",
"296 480 OFFCURVE",
"344.431 419.485 OFFCURVE",
"346 416.284 CURVE",
"346 81.724 LINE",
"343.531 76.949 OFFCURVE",
"295 20 OFFCURVE",
"196 20 CURVE SMOOTH"
);
}
);
width = 386;
},
{
layerId = "25139FCF-725A-49A6-A058-8DCF5AC16622";
paths = (
{
closed = 0;
nodes = (
"364 425 LINE",
"364 425 OFFCURVE",
"329 500 OFFCURVE",
"213 500 CURVE SMOOTH",
"83 500 OFFCURVE",
"20 415 OFFCURVE",
"20 249 CURVE SMOOTH",
"20 123 OFFCURVE",
"81 0 OFFCURVE",
"213 0 CURVE SMOOTH",
"329 0 OFFCURVE",
"364 73 OFFCURVE",
"364 73 CURVE"
);
},
{
closed = 0;
nodes = (
"366 500 LINE",
"366 500 OFFCURVE",
"366 169 OFFCURVE",
"366 0 CURVE SMOOTH",
"366 -121 LINE SMOOTH",
"366 -208 OFFCURVE",
"369 -331 OFFCURVE",
"239 -331 CURVE SMOOTH",
"123 -331 OFFCURVE",
"81 -261 OFFCURVE",
"65 -198 CURVE"
);
}
);
width = 386;
},
{
layerId = "1AB63056-1127-463F-B001-FB2AC81901C9";
paths = (
{
closed = 0;
nodes = (
"364 425 LINE",
"364 425 OFFCURVE",
"329 500 OFFCURVE",
"213 500 CURVE SMOOTH",
"83 500 OFFCURVE",
"20 415 OFFCURVE",
"20 249 CURVE SMOOTH",
"20 123 OFFCURVE",
"81 0 OFFCURVE",
"213 0 CURVE SMOOTH",
"329 0 OFFCURVE",
"364 73 OFFCURVE",
"364 73 CURVE"
);
},
{
closed = 0;
nodes = (
"366 500 LINE",
"366 500 OFFCURVE",
"366 169 OFFCURVE",
"366 0 CURVE SMOOTH",
"366 -121 LINE SMOOTH",
"366 -208 OFFCURVE",
"369 -331 OFFCURVE",
"239 -331 CURVE SMOOTH",
"123 -331 OFFCURVE",
"81 -261 OFFCURVE",
"65 -198 CURVE"
);
}
);
width = 386;
},
{
associatedMasterId = "6F4F10D2-8254-4335-A627-9F8D8891324D";
layerId = "9698DB69-C01F-41DE-8F34-79EB3B12F7C2";
name = path;
paths = (
{
closed = 0;
nodes = (
"364 425 LINE",
"364 425 OFFCURVE",
"329 500 OFFCURVE",
"213 500 CURVE SMOOTH",
"83 500 OFFCURVE",
"20 415 OFFCURVE",
"20 249 CURVE SMOOTH",
"20 123 OFFCURVE",
"81 0 OFFCURVE",
"213 0 CURVE SMOOTH",
"329 0 OFFCURVE",
"364 73 OFFCURVE",
"364 73 CURVE"
);
},
{
closed = 0;
nodes = (
"366 500 LINE",
"366 500 OFFCURVE",
"366 169 OFFCURVE",
"366 0 CURVE SMOOTH",
"366 -121 LINE SMOOTH",
"366 -208 OFFCURVE",
"369 -331 OFFCURVE",
"239 -331 CURVE SMOOTH",
"123 -331 OFFCURVE",
"81 -261 OFFCURVE",
"65 -198 CURVE"
);
}
);
visible = 1;
width = 386;
}
);
unicode = 0067;
},
{
glyphname = h;
lastChange = "2018-10-03 14:27:45 +0000";
layers = (
{
layerId = "6F4F10D2-8254-4335-A627-9F8D8891324D";
paths = (
{
closed = 1;
nodes = (
"11.4 -20 OFFCURVE",
"20.354 -11.046 OFFCURVE",
"20.354 0 CURVE",
"20.158 386.718 LINE",
"24.181 393.093 OFFCURVE",
"80.653 480 OFFCURVE",
"171 480 CURVE SMOOTH",
"270.776 480 OFFCURVE",
"316 453.231 OFFCURVE",
"316 400 CURVE SMOOTH",
"316 0 LINE SMOOTH",
"316 -11.046 OFFCURVE",
"324.954 -20 OFFCURVE",
"336 -20 CURVE SMOOTH",
"347.046 -20 OFFCURVE",
"356 -11.046 OFFCURVE",
"356 0 CURVE SMOOTH",
"356 400 LINE SMOOTH",
"356 479.434 OFFCURVE",
"291.431 520 OFFCURVE",
"171 520 CURVE SMOOTH",
"103.065 520 OFFCURVE",
"51.361 481.608 OFFCURVE",
"20.127 449.709 CURVE",
"20 700.01 LINE SMOOTH",
"19.994 711.051 OFFCURVE",
"11.043 720 OFFCURVE",
"0 720 CURVE SMOOTH",
"-11.046 720 OFFCURVE",
"-20 711.046 OFFCURVE",
"-20 700 CURVE SMOOTH",
"-19.646 -0.01 LINE SMOOTH",
"-19.64 -11.051 OFFCURVE",
"-10.689 -20 OFFCURVE",
"0.354 -20 CURVE SMOOTH"
);
}
);
width = 600;
},
{
layerId = "25139FCF-725A-49A6-A058-8DCF5AC16622";
paths = (
{
closed = 0;
nodes = (
"0.354 0 LINE",
"0 700 LINE"
);
},
{
closed = 0;
nodes = (
"3 397 LINE",
"3 397 OFFCURVE",
"66 500 OFFCURVE",
"171 500 CURVE",
"294 500 OFFCURVE",
"336 458 OFFCURVE",
"336 400 CURVE",
"336 333 OFFCURVE",
"336 0 OFFCURVE",
"336 0 CURVE"
);
}
);
width = 600;
},
{
layerId = "1AB63056-1127-463F-B001-FB2AC81901C9";
paths = (
{
closed = 0;
nodes = (
"0.354 0 LINE",
"0 700 LINE"
);
},
{
closed = 0;
nodes = (
"3 397 LINE",
"3 397 OFFCURVE",
"66 500 OFFCURVE",
"171 500 CURVE",
"294 500 OFFCURVE",
"336 458 OFFCURVE",
"336 400 CURVE",
"336 333 OFFCURVE",
"336 0 OFFCURVE",
"336 0 CURVE"
);
}
);
width = 600;
},
{
associatedMasterId = "6F4F10D2-8254-4335-A627-9F8D8891324D";
layerId = "5131BE62-B943-4723-810F-DCD50F33B664";
name = path;
paths = (
{
closed = 0;
nodes = (
"0.354 0 LINE",
"0 700 LINE"
);
},
{
closed = 0;
nodes = (
"3 397 LINE",
"3 397 OFFCURVE",
"66 500 OFFCURVE",
"171 500 CURVE",
"294 500 OFFCURVE",
"336 458 OFFCURVE",
"336 400 CURVE",
"336 333 OFFCURVE",
"336 0 OFFCURVE",
"336 0 CURVE"
);
}
);
width = 600;
}
);
unicode = 0068;
},
{
glyphname = i;
lastChange = "2018-10-03 14:27:52 +0000";
layers = (
{
layerId = "6F4F10D2-8254-4335-A627-9F8D8891324D";
paths = (
{
closed = 1;
nodes = (
"31.046 -20 OFFCURVE",
"40 -11.046 OFFCURVE",
"40 0 CURVE SMOOTH",
"40 500 LINE SMOOTH",
"40 511.046 OFFCURVE",
"31.046 520 OFFCURVE",
"20 520 CURVE SMOOTH",
"8.954 520 OFFCURVE",
"0 511.046 OFFCURVE",
"0 500 CURVE SMOOTH",
"0 0 LINE SMOOTH",
"0 -11.046 OFFCURVE",
"8.954 -20 OFFCURVE",
"20 -20 CURVE SMOOTH"
);
}
);
width = 40;
},
{
layerId = "25139FCF-725A-49A6-A058-8DCF5AC16622";
paths = (
{
closed = 0;
nodes = (
"20 0 LINE",
"20 500 LINE"
);
},
{
closed = 0;
nodes = (
"20 667 LINE"
);
}
);
width = 40;
},
{
layerId = "1AB63056-1127-463F-B001-FB2AC81901C9";
paths = (
{
closed = 0;
nodes = (
"20 0 LINE",
"20 500 LINE"
);
},
{
closed = 0;
nodes = (
"20 667 LINE"
);
}
);
width = 40;
},
{
associatedMasterId = "6F4F10D2-8254-4335-A627-9F8D8891324D";
layerId = "3966C843-B7D4-4C34-B8AF-CEDBBC2568F4";
name = path;
paths = (
{
closed = 0;
nodes = (
"20 0 LINE",
"20 500 LINE"
);
},
{
closed = 0;
nodes = (
"20 667 LINE"
);
}
);
width = 40;
}
);
unicode = 0069;
},
{
glyphname = j;
lastChange = "2018-10-03 14:28:10 +0000";
layers = (
{
layerId = "6F4F10D2-8254-4335-A627-9F8D8891324D";
paths = (
{
closed = 1;
nodes = (
"287.506 -350 OFFCURVE",
"284 -209.75 OFFCURVE",
"284 -126 CURVE SMOOTH",
"284 500 LINE SMOOTH",
"284 511.046 OFFCURVE",
"275.046 520 OFFCURVE",
"264 520 CURVE SMOOTH",
"252.954 520 OFFCURVE",
"244 511.046 OFFCURVE",
"244 500 CURVE SMOOTH",
"244 -126 LINE SMOOTH",
"244 -210.25 OFFCURVE",
"246.494 -310 OFFCURVE",
"142 -310 CURVE SMOOTH",
"96.014 -310 OFFCURVE",
"60.762 -298.573 OFFCURVE",
"33.068 -274.859 CURVE SMOOTH",
"29.563 -271.831 OFFCURVE",
"24.996 -270 OFFCURVE",
"20 -270 CURVE SMOOTH",
"8.954 -270 OFFCURVE",
"0 -278.954 OFFCURVE",
"0 -290 CURVE SMOOTH",
"0 -296.147 OFFCURVE",
"2.773 -301.645 OFFCURVE",
"7.135 -305.314 CURVE SMOOTH",
"41.47 -334.672 OFFCURVE",
"87.86 -350 OFFCURVE",
"142 -350 CURVE SMOOTH"
);
}
);
width = 284;
},
{
layerId = "25139FCF-725A-49A6-A058-8DCF5AC16622";
paths = (
{
closed = 0;
nodes = (
"264 500 LINE",
"264 500 OFFCURVE",
"264 157 OFFCURVE",
"264 -8 CURVE SMOOTH",
"264 -126 LINE SMOOTH",
"264 -210 OFFCURVE",
"267 -330 OFFCURVE",
"142 -330 CURVE SMOOTH",
"87 -330 OFFCURVE",
"48 -314 OFFCURVE",
"20 -290 CURVE"
);
}
);
width = 284;
},
{
layerId = "1AB63056-1127-463F-B001-FB2AC81901C9";
paths = (
{
closed = 0;
nodes = (
"264 500 LINE",
"264 500 OFFCURVE",
"264 157 OFFCURVE",
"264 -8 CURVE SMOOTH",
"264 -126 LINE SMOOTH",
"264 -210 OFFCURVE",
"267 -330 OFFCURVE",
"142 -330 CURVE SMOOTH",
"87 -330 OFFCURVE",
"48 -314 OFFCURVE",
"20 -290 CURVE"
);
}
);
width = 284;
},
{
associatedMasterId = "6F4F10D2-8254-4335-A627-9F8D8891324D";
layerId = "5A27AB66-550C-4BB1-B930-98BA9523F95F";
name = path;
paths = (
{
closed = 0;
nodes = (
"264 500 LINE",
"264 500 OFFCURVE",
"264 157 OFFCURVE",
"264 -8 CURVE SMOOTH",
"264 -126 LINE SMOOTH",
"264 -210 OFFCURVE",
"267 -330 OFFCURVE",
"142 -330 CURVE SMOOTH",
"87 -330 OFFCURVE",
"48 -314 OFFCURVE",
"20 -290 CURVE"
);
}
);
visible = 1;
width = 284;
}
);
unicode = 006A;
},
{
color = 4;
glyphname = k;
lastChange = "2018-10-03 15:12:11 +0000";
layers = (
{
layerId = "6F4F10D2-8254-4335-A627-9F8D8891324D";
paths = (
{
closed = 1;
nodes = (
"31.046 -20 OFFCURVE",
"40 -11.046 OFFCURVE",
"40 0 CURVE SMOOTH",
"40 199.716 LINE",
"126.006 285.722 LINE",
"126.466 284.328 OFFCURVE",
"127.075 283.003 OFFCURVE",
"127.815 281.764 CURVE SMOOTH",
"294.444 -9.587 LINE SMOOTH",
"297.839 -15.792 OFFCURVE",
"304.428 -20 OFFCURVE",
"312 -20 CURVE SMOOTH",
"323.046 -20 OFFCURVE",
"332 -11.046 OFFCURVE",
"332 0 CURVE SMOOTH",
"332 3.741 OFFCURVE",
"330.973 7.242 OFFCURVE",
"329.185 10.237 CURVE SMOOTH",
"162.557 301.587 LINE SMOOTH",
"160.145 305.995 OFFCURVE",
"156.121 309.395 OFFCURVE",
"151.278 310.994 CURVE",
"326.101 485.817 LINE SMOOTH",
"329.744 489.44 OFFCURVE",
"332 494.456 OFFCURVE",
"332 500 CURVE SMOOTH",
"332 511.046 OFFCURVE",
"323.046 520 OFFCURVE",
"312 520 CURVE SMOOTH",
"306.456 520 OFFCURVE",
"301.44 517.744 OFFCURVE",
"297.817 514.101 CURVE SMOOTH",
"40 256.284 LINE",
"40 700 LINE SMOOTH",
"40 711.046 OFFCURVE",
"31.046 720 OFFCURVE",
"20 720 CURVE SMOOTH",
"8.954 720 OFFCURVE",
"0 711.046 OFFCURVE",
"0 700 CURVE SMOOTH",
"0 0 LINE SMOOTH",
"0 -11.046 OFFCURVE",
"8.954 -20 OFFCURVE",
"20 -20 CURVE SMOOTH"
);
}
);
width = 332;
},
{
layerId = "25139FCF-725A-49A6-A058-8DCF5AC16622";
paths = (
{
closed = 0;
nodes = (
"20 0 LINE",
"20 700 LINE"
);
},
{
closed = 0;
nodes = (
"312 500 LINE",
"20 208 LINE"
);
},
{
closed = 0;
nodes = (
"312 0 LINE",
"145 292 LINE"
);
}
);
width = 332;
},
{
layerId = "1AB63056-1127-463F-B001-FB2AC81901C9";
paths = (
{
closed = 0;
nodes = (
"20 0 LINE",
"20 700 LINE"
);
},
{
closed = 0;
nodes = (
"312 500 LINE",
"20 208 LINE"
);
},
{
closed = 0;
nodes = (
"312 0 LINE",
"145 292 LINE"
);
}
);
width = 332;
},
{
associatedMasterId = "6F4F10D2-8254-4335-A627-9F8D8891324D";
layerId = "F26C5B55-654E-4D1D-AFC2-2BC73BDB521E";
name = path;
paths = (
{
closed = 0;
nodes = (
"20 0 LINE",
"20 700 LINE"
);
},
{
closed = 0;
nodes = (
"312 500 LINE",
"20 208 LINE"
);
},
{
closed = 0;
nodes = (
"312 0 LINE",
"145 292 LINE"
);
}
);
visible = 1;
width = 332;
}
);
unicode = 006B;
},
{
glyphname = l;
lastChange = "2018-10-03 14:28:46 +0000";
layers = (
{
layerId = "6F4F10D2-8254-4335-A627-9F8D8891324D";
paths = (
{
closed = 1;
nodes = (
"31.046 -20 OFFCURVE",
"40 -11.046 OFFCURVE",
"40 0 CURVE SMOOTH",
"40 700 LINE SMOOTH",
"40 711.046 OFFCURVE",
"31.046 720 OFFCURVE",
"20 720 CURVE SMOOTH",
"8.954 720 OFFCURVE",
"0 711.046 OFFCURVE",
"0 700 CURVE SMOOTH",
"0 0 LINE SMOOTH",
"0 -11.046 OFFCURVE",
"8.954 -20 OFFCURVE",
"20 -20 CURVE SMOOTH"
);
}
);
width = 40;
},
{
layerId = "25139FCF-725A-49A6-A058-8DCF5AC16622";
paths = (
{
closed = 0;
nodes = (
"20 700 LINE",
"20 0 LINE"
);
}
);
width = 40;
},
{
layerId = "1AB63056-1127-463F-B001-FB2AC81901C9";
paths = (
{
closed = 0;
nodes = (
"20 700 LINE",
"20 0 LINE"
);
}
);
width = 40;
},
{
associatedMasterId = "6F4F10D2-8254-4335-A627-9F8D8891324D";
layerId = "6468C33E-C6D4-42E5-8DE7-FA7B36001286";
name = path;
paths = (
{
closed = 0;
nodes = (
"20 700 LINE",
"20 0 LINE"
);
}
);
visible = 1;
width = 40;
}
);
unicode = 006C;
},
{
glyphname = m;
lastChange = "2018-10-03 14:28:54 +0000";
layers = (
{
layerId = "6F4F10D2-8254-4335-A627-9F8D8891324D";
paths = (
{
closed = 1;
nodes = (
"31.046 -20 OFFCURVE",
"40 -11.046 OFFCURVE",
"40 0 CURVE SMOOTH",
"40 389.607 LINE",
"57.793 409.805 OFFCURVE",
"124.216 480 OFFCURVE",
"188 480 CURVE SMOOTH",
"288.333 480 OFFCURVE",
"333 453.538 OFFCURVE",
"333 400 CURVE SMOOTH",
"333 0 LINE SMOOTH",
"333 -11.046 OFFCURVE",
"341.954 -20 OFFCURVE",
"353 -20 CURVE SMOOTH",
"364.046 -20 OFFCURVE",
"373 -11.046 OFFCURVE",
"373 0 CURVE SMOOTH",
"373 389.668 LINE",
"390.57 409.819 OFFCURVE",
"456.399 480 OFFCURVE",
"521 480 CURVE SMOOTH",
"620.776 480 OFFCURVE",
"666 453.231 OFFCURVE",
"666 400 CURVE SMOOTH",
"666 0 LINE SMOOTH",
"666 -11.046 OFFCURVE",
"674.954 -20 OFFCURVE",
"686 -20 CURVE SMOOTH",
"697.046 -20 OFFCURVE",
"706 -11.046 OFFCURVE",
"706 0 CURVE SMOOTH",
"706 400 LINE SMOOTH",
"706 479.434 OFFCURVE",
"641.431 520 OFFCURVE",
"521 520 CURVE SMOOTH",
"459.36 520 OFFCURVE",
"400.13 473.132 OFFCURVE",
"366.355 440.493 CURVE",
"347.108 493.354 OFFCURVE",
"286.343 520 OFFCURVE",
"188 520 CURVE SMOOTH",
"130.688 520 OFFCURVE",
"74.73 478.582 OFFCURVE",
"40 446.523 CURVE",
"40 499 LINE SMOOTH",
"40 510.046 OFFCURVE",
"31.046 519 OFFCURVE",
"20 519 CURVE SMOOTH",
"8.954 519 OFFCURVE",
"0 510.046 OFFCURVE",
"0 499 CURVE SMOOTH",
"0 0 LINE SMOOTH",
"0 -11.046 OFFCURVE",
"8.954 -20 OFFCURVE",
"20 -20 CURVE SMOOTH"
);
}
);
width = 706;
},
{
layerId = "25139FCF-725A-49A6-A058-8DCF5AC16622";
paths = (
{
closed = 0;
nodes = (
"20 0 LINE",
"20 499 LINE"
);
},
{
closed = 0;
nodes = (
"20 397 LINE",
"20 397 OFFCURVE",
"104 500 OFFCURVE",
"188 500 CURVE SMOOTH",
"312 500 OFFCURVE",
"353 458 OFFCURVE",
"353 400 CURVE SMOOTH",
"353 0 LINE"
);
},
{
closed = 0;
nodes = (
"353 397 LINE",
"353 397 OFFCURVE",
"436 500 OFFCURVE",
"521 500 CURVE SMOOTH",
"644 500 OFFCURVE",
"686 458 OFFCURVE",
"686 400 CURVE SMOOTH",
"686 0 LINE"
);
}
);
width = 706;
},
{
layerId = "1AB63056-1127-463F-B001-FB2AC81901C9";
paths = (
{
closed = 0;
nodes = (
"20 0 LINE",
"20 499 LINE"
);
},
{
closed = 0;
nodes = (
"20 397 LINE",
"20 397 OFFCURVE",
"104 500 OFFCURVE",
"188 500 CURVE SMOOTH",
"312 500 OFFCURVE",
"353 458 OFFCURVE",
"353 400 CURVE SMOOTH",
"353 0 LINE"
);
},
{
closed = 0;
nodes = (
"353 397 LINE",
"353 397 OFFCURVE",
"436 500 OFFCURVE",
"521 500 CURVE SMOOTH",
"644 500 OFFCURVE",
"686 458 OFFCURVE",
"686 400 CURVE SMOOTH",
"686 0 LINE"
);
}
);
width = 706;
},
{
associatedMasterId = "6F4F10D2-8254-4335-A627-9F8D8891324D";
layerId = "FBCD9E58-2354-48AA-A8CD-D7F607E73EF8";
name = path;
paths = (
{
closed = 0;
nodes = (
"20 0 LINE",
"20 499 LINE"
);
},
{
closed = 0;
nodes = (
"20 397 LINE",
"20 397 OFFCURVE",
"104 500 OFFCURVE",
"188 500 CURVE SMOOTH",
"312 500 OFFCURVE",
"353 458 OFFCURVE",
"353 400 CURVE SMOOTH",
"353 0 LINE"
);
},
{
closed = 0;
nodes = (
"353 397 LINE",
"353 397 OFFCURVE",
"436 500 OFFCURVE",
"521 500 CURVE SMOOTH",
"644 500 OFFCURVE",
"686 458 OFFCURVE",
"686 400 CURVE SMOOTH",
"686 0 LINE"
);
}
);
visible = 1;
width = 706;
}
);
unicode = 006D;
},
{
color = 1;
glyphname = n;
lastChange = "2018-10-03 15:26:15 +0000";
layers = (
{
layerId = "6F4F10D2-8254-4335-A627-9F8D8891324D";
paths = (
{
closed = 1;
nodes = (
"11.4 -20 OFFCURVE",
"20.354 -11.046 OFFCURVE",
"20.354 0 CURVE",
"20.078 389.695 LINE",
"37.986 410.009 OFFCURVE",
"104.309 480 OFFCURVE",
"168 480 CURVE SMOOTH",
"268.333 480 OFFCURVE",
"313 424 OFFCURVE",
"313 370 CURVE SMOOTH",
"313 0 LINE SMOOTH",
"313 -11.046 OFFCURVE",
"321.954 -20 OFFCURVE",
"333 -20 CURVE SMOOTH",
"344.046 -20 OFFCURVE",
"353 -11.046 OFFCURVE",
"353 0 CURVE SMOOTH",
"353 370 LINE SMOOTH",
"353 450 OFFCURVE",
"288.893 520 OFFCURVE",
"168 520 CURVE SMOOTH",
"110.709 520 OFFCURVE",
"54.771 478.612 OFFCURVE",
"20.038 446.558 CURVE",
"20 500.014 LINE SMOOTH",
"19.992 511.053 OFFCURVE",
"11.041 520 OFFCURVE",
"0 520 CURVE SMOOTH",
"-11.046 520 OFFCURVE",
"-20 511.046 OFFCURVE",
"-20 500 CURVE SMOOTH",
"-19.646 -0.014 LINE SMOOTH",
"-19.638 -11.054 OFFCURVE",
"-10.687 -20 OFFCURVE",
"0.354 -20 CURVE SMOOTH"
);
}
);
width = 600;
},
{
layerId = "25139FCF-725A-49A6-A058-8DCF5AC16622";
paths = (
{
closed = 0;
nodes = (
"0.354 0 LINE",
"0 500 LINE"
);
},
{
closed = 0;
nodes = (
"0 397 LINE",
"0 397 OFFCURVE",
"84 500 OFFCURVE",
"168 500 CURVE SMOOTH",
"292 500 OFFCURVE",
"333 458 OFFCURVE",
"333 400 CURVE SMOOTH",
"333 0 LINE"
);
}
);
width = 600;
},
{
layerId = "1AB63056-1127-463F-B001-FB2AC81901C9";
paths = (
{
closed = 0;
nodes = (
"0.354 0 LINE",
"0 500 LINE"
);
},
{
closed = 0;
nodes = (
"0 397 LINE",
"0 397 OFFCURVE",
"84 500 OFFCURVE",
"168 500 CURVE SMOOTH",
"292 500 OFFCURVE",
"333 458 OFFCURVE",
"333 400 CURVE SMOOTH",
"333 0 LINE"
);
}
);
width = 600;
},
{
associatedMasterId = "6F4F10D2-8254-4335-A627-9F8D8891324D";
layerId = "A8D31436-2892-46E5-8A13-FCFFD2A97782";
name = path;
paths = (
{
closed = 0;
nodes = (
"0.354 0 LINE",
"0 500 LINE"
);
},
{
closed = 0;
nodes = (
"0 397 LINE",
"0 397 OFFCURVE",
"84 500 OFFCURVE",
"168 500 CURVE SMOOTH",
"292 500 OFFCURVE",
"333 458 OFFCURVE",
"333 400 CURVE SMOOTH",
"333 0 LINE"
);
}
);
visible = 1;
width = 600;
}
);
unicode = 006E;
},
{
color = 4;
glyphname = o;
lastChange = "2018-10-03 15:30:34 +0000";
layers = (
{
layerId = "6F4F10D2-8254-4335-A627-9F8D8891324D";
paths = (
{
closed = 1;
nodes = (
"366.63 -20 OFFCURVE",
"453 83.369 OFFCURVE",
"453 250 CURVE SMOOTH",
"453 417.127 OFFCURVE",
"367.047 520 OFFCURVE",
"226 520 CURVE SMOOTH",
"85.29 520 OFFCURVE",
"0 417.449 OFFCURVE",
"0 250 CURVE SMOOTH",
"0 83.046 OFFCURVE",
"85.705 -20 OFFCURVE",
"226 -20 CURVE SMOOTH"
);
},
{
closed = 1;
nodes = (
"109.104 20 OFFCURVE",
"40 104.828 OFFCURVE",
"40 250 CURVE SMOOTH",
"40 395.678 OFFCURVE",
"108.695 480 OFFCURVE",
"226 480 CURVE SMOOTH",
"343.666 480 OFFCURVE",
"413 395.989 OFFCURVE",
"413 250 CURVE SMOOTH",
"413 105.176 OFFCURVE",
"343.256 20 OFFCURVE",
"226 20 CURVE SMOOTH"
);
}
);
width = 453;
},
{
layerId = "25139FCF-725A-49A6-A058-8DCF5AC16622";
paths = (
{
closed = 1;
nodes = (
"433 77 OFFCURVE",
"340 0 OFFCURVE",
"226 0 CURVE SMOOTH",
"112 0 OFFCURVE",
"20 77 OFFCURVE",
"20 250 CURVE SMOOTH",
"20 424 OFFCURVE",
"112 500 OFFCURVE",
"226 500 CURVE SMOOTH",
"340 500 OFFCURVE",
"433 424 OFFCURVE",
"433 250 CURVE SMOOTH"
);
}
);
width = 453;
},
{
layerId = "1AB63056-1127-463F-B001-FB2AC81901C9";
paths = (
{
closed = 1;
nodes = (
"433 77 OFFCURVE",
"340 0 OFFCURVE",
"226 0 CURVE SMOOTH",
"112 0 OFFCURVE",
"20 77 OFFCURVE",
"20 250 CURVE SMOOTH",
"20 424 OFFCURVE",
"112 500 OFFCURVE",
"226 500 CURVE SMOOTH",
"340 500 OFFCURVE",
"433 424 OFFCURVE",
"433 250 CURVE SMOOTH"
);
}
);
width = 453;
},
{
associatedMasterId = "6F4F10D2-8254-4335-A627-9F8D8891324D";
layerId = "F383D2E4-DDD1-4E4B-87EA-08B9D9509250";
name = path;
paths = (
{
closed = 1;
nodes = (
"433 77 OFFCURVE",
"340 0 OFFCURVE",
"226 0 CURVE SMOOTH",
"112 0 OFFCURVE",
"20 77 OFFCURVE",
"20 250 CURVE SMOOTH",
"20 424 OFFCURVE",
"112 500 OFFCURVE",
"226 500 CURVE SMOOTH",
"340 500 OFFCURVE",
"433 424 OFFCURVE",
"433 250 CURVE SMOOTH"
);
}
);
visible = 1;
width = 453;
}
);
unicode = 006F;
},
{
glyphname = oe;
lastChange = "2018-10-03 14:29:22 +0000";
layers = (
{
layerId = "6F4F10D2-8254-4335-A627-9F8D8891324D";
paths = (
{
closed = 1;
nodes = (
"310.974 -20 OFFCURVE",
"378.326 18.519 OFFCURVE",
"416.343 87.013 CURVE",
"453.291 17.765 OFFCURVE",
"514.876 -20 OFFCURVE",
"593 -20 CURVE SMOOTH",
"646.481 -20 OFFCURVE",
"699.884 -1.171 OFFCURVE",
"741.429 32.33 CURVE SMOOTH",
"746.042 35.993 OFFCURVE",
"749 41.651 OFFCURVE",
"749 48 CURVE SMOOTH",
"749 59.046 OFFCURVE",
"740.046 68 OFFCURVE",
"729 68 CURVE SMOOTH",
"724.222 68 OFFCURVE",
"719.836 66.324 OFFCURVE",
"716.396 63.529 CURVE SMOOTH",
"681.774 35.579 OFFCURVE",
"638.934 20 OFFCURVE",
"593 20 CURVE SMOOTH",
"520.581 20 OFFCURVE",
"468.179 58.26 OFFCURVE",
"439.66 132.197 CURVE SMOOTH",
"428.168 160.219 OFFCURVE",
"421.278 193.682 OFFCURVE",
"419.476 231 CURVE",
"751.839 231 LINE SMOOTH",
"761.954 231 OFFCURVE",
"768.835 233.502 OFFCURVE",
"775.923 239.757 CURVE SMOOTH",
"782.996 246 OFFCURVE",
"786.447 252.581 OFFCURVE",
"787.082 262.74 CURVE SMOOTH",
"787.475 269.044 OFFCURVE",
"787.811 277.174 OFFCURVE",
"787.811 286.577 CURVE SMOOTH",
"787.811 432.579 OFFCURVE",
"716.671 520 OFFCURVE",
"593 520 CURVE SMOOTH",
"516.869 520 OFFCURVE",
"455.386 481.34 OFFCURVE",
"417.186 410.715 CURVE",
"379.547 480.24 OFFCURVE",
"312.179 519 OFFCURVE",
"227 519 CURVE SMOOTH",
"85.669 519 OFFCURVE",
"0 416.857 OFFCURVE",
"0 250 CURVE SMOOTH",
"0 83.369 OFFCURVE",
"86.37 -20 OFFCURVE",
"227 -20 CURVE SMOOTH"
);
},
{
closed = 1;
nodes = (
"109.744 20 OFFCURVE",
"40 105.176 OFFCURVE",
"40 250 CURVE SMOOTH",
"40 395.709 OFFCURVE",
"109.037 479 OFFCURVE",
"227 479 CURVE SMOOTH",
"300.598 479 OFFCURVE",
"355.521 446.205 OFFCURVE",
"385.518 384.913 CURVE SMOOTH",
"391.166 373.23 OFFCURVE",
"395.192 367.625 OFFCURVE",
"398.78 368.986 CURVE",
"386.055 332.545 OFFCURVE",
"379 290.703 OFFCURVE",
"379 251 CURVE SMOOTH",
"379 206.777 OFFCURVE",
"385.351 165.516 OFFCURVE",
"397.523 130.555 CURVE",
"395.425 131.36 LINE SMOOTH",
"394.051 131.887 OFFCURVE",
"391.169 125.854 OFFCURVE",
"385.473 114.195 CURVE SMOOTH",
"355.244 53.101 OFFCURVE",
"299.928 20 OFFCURVE",
"227 20 CURVE SMOOTH"
);
},
{
closed = 1;
nodes = (
"421.812 304.169 OFFCURVE",
"429.167 338.066 OFFCURVE",
"440.57 366.572 CURVE SMOOTH",
"470.729 440.892 OFFCURVE",
"523.428 480 OFFCURVE",
"593 480 CURVE SMOOTH",
"731.633 480 OFFCURVE",
"747.811 354.109 OFFCURVE",
"747.811 286.577 CURVE SMOOTH",
"747.811 280.726 OFFCURVE",
"747.672 275.489 OFFCURVE",
"747.475 271 CURVE",
"419.659 271 LINE"
);
}
);
width = 788;
},
{
layerId = "25139FCF-725A-49A6-A058-8DCF5AC16622";
paths = (
{
closed = 0;
nodes = (
"399 251 LINE",
"766 251 LINE",
"766 251 OFFCURVE",
"798 500 OFFCURVE",
"593 500 CURVE SMOOTH",
"504 500 OFFCURVE",
"450 443 OFFCURVE",
"422 374 CURVE SMOOTH",
"406 334 OFFCURVE",
"399 289 OFFCURVE",
"399 251 CURVE SMOOTH",
"399 209 OFFCURVE",
"405 164 OFFCURVE",
"421 125 CURVE SMOOTH",
"448 55 OFFCURVE",
"502 0 OFFCURVE",
"593 0 CURVE SMOOTH",
"657 0 OFFCURVE",
"703 27 OFFCURVE",
"729 48 CURVE"
);
},
{
closed = 0;
nodes = (
"412 125 LINE",
"379 39 OFFCURVE",
"308 0 OFFCURVE",
"227 0 CURVE SMOOTH",
"113 0 OFFCURVE",
"20 77 OFFCURVE",
"20 250 CURVE SMOOTH",
"20 424 OFFCURVE",
"113 499 OFFCURVE",
"227 499 CURVE SMOOTH",
"308 499 OFFCURVE",
"379 461 OFFCURVE",
"412 374 CURVE"
);
}
);
width = 788;
},
{
layerId = "1AB63056-1127-463F-B001-FB2AC81901C9";
paths = (
{
closed = 0;
nodes = (
"399 251 LINE",
"766 251 LINE",
"766 251 OFFCURVE",
"798 500 OFFCURVE",
"593 500 CURVE SMOOTH",
"504 500 OFFCURVE",
"450 443 OFFCURVE",
"422 374 CURVE SMOOTH",
"406 334 OFFCURVE",
"399 289 OFFCURVE",
"399 251 CURVE SMOOTH",
"399 209 OFFCURVE",
"405 164 OFFCURVE",
"421 125 CURVE SMOOTH",
"448 55 OFFCURVE",
"502 0 OFFCURVE",
"593 0 CURVE SMOOTH",
"657 0 OFFCURVE",
"703 27 OFFCURVE",
"729 48 CURVE"
);
},
{
closed = 0;
nodes = (
"412 125 LINE",
"379 39 OFFCURVE",
"308 0 OFFCURVE",
"227 0 CURVE SMOOTH",
"113 0 OFFCURVE",
"20 77 OFFCURVE",
"20 250 CURVE SMOOTH",
"20 424 OFFCURVE",
"113 499 OFFCURVE",
"227 499 CURVE SMOOTH",
"308 499 OFFCURVE",
"379 461 OFFCURVE",
"412 374 CURVE"
);
}
);
width = 788;
},
{
associatedMasterId = "6F4F10D2-8254-4335-A627-9F8D8891324D";
layerId = "984BED48-9BB9-4FC1-817B-F0643E821B9B";
name = path;
paths = (
{
closed = 0;
nodes = (
"399 251 LINE",
"766 251 LINE",
"766 251 OFFCURVE",
"798 500 OFFCURVE",
"593 500 CURVE SMOOTH",
"504 500 OFFCURVE",
"450 443 OFFCURVE",
"422 374 CURVE SMOOTH",
"406 334 OFFCURVE",
"399 289 OFFCURVE",
"399 251 CURVE SMOOTH",
"399 209 OFFCURVE",
"405 164 OFFCURVE",
"421 125 CURVE SMOOTH",
"448 55 OFFCURVE",
"502 0 OFFCURVE",
"593 0 CURVE SMOOTH",
"657 0 OFFCURVE",
"703 27 OFFCURVE",
"729 48 CURVE"
);
},
{
closed = 0;
nodes = (
"412 125 LINE",
"379 39 OFFCURVE",
"308 0 OFFCURVE",
"227 0 CURVE SMOOTH",
"113 0 OFFCURVE",
"20 77 OFFCURVE",
"20 250 CURVE SMOOTH",
"20 424 OFFCURVE",
"113 499 OFFCURVE",
"227 499 CURVE SMOOTH",
"308 499 OFFCURVE",
"379 461 OFFCURVE",
"412 374 CURVE"
);
}
);
visible = 1;
width = 788;
}
);
unicode = 0153;
},
{
glyphname = p;
lastChange = "2018-10-03 14:29:36 +0000";
layers = (
{
layerId = "6F4F10D2-8254-4335-A627-9F8D8891324D";
paths = (
{
closed = 1;
nodes = (
"32.046 -350 OFFCURVE",
"41 -341.046 OFFCURVE",
"41 -330 CURVE",
"40.57 27.079 LINE",
"66.237 4.293 OFFCURVE",
"109.634 -20 OFFCURVE",
"178 -20 CURVE SMOOTH",
"288.469 -20 OFFCURVE",
"391 112.977 OFFCURVE",
"391 251 CURVE SMOOTH",
"391 418.712 OFFCURVE",
"311.428 520 OFFCURVE",
"178 520 CURVE SMOOTH",
"109.155 520 OFFCURVE",
"65.631 495.366 OFFCURVE",
"40.033 472.443 CURVE",
"40 500.024 LINE SMOOTH",
"39.987 511.059 OFFCURVE",
"31.038 520 OFFCURVE",
"20 520 CURVE SMOOTH",
"8.954 520 OFFCURVE",
"0 511.046 OFFCURVE",
"0 500 CURVE SMOOTH",
"1 -330.024 LINE SMOOTH",
"1.013 -341.059 OFFCURVE",
"9.962 -350 OFFCURVE",
"21 -350 CURVE SMOOTH"
);
},
{
closed = 1;
nodes = (
"74.737 20 OFFCURVE",
"44.936 83.86 OFFCURVE",
"44.936 83.848 CURVE",
"40.504 81.662 LINE",
"40.098 418.538 LINE",
"42.517 417.345 LINE SMOOTH",
"44.125 416.552 OFFCURVE",
"47.443 421.997 OFFCURVE",
"55.421 431.457 CURVE SMOOTH",
"71.378 450.347 OFFCURVE",
"107.633 480 OFFCURVE",
"178 480 CURVE SMOOTH",
"287.628 480 OFFCURVE",
"351 397.071 OFFCURVE",
"351 251 CURVE SMOOTH",
"351 135.433 OFFCURVE",
"265.291 20 OFFCURVE",
"178 20 CURVE SMOOTH"
);
}
);
width = 391;
},
{
layerId = "25139FCF-725A-49A6-A058-8DCF5AC16622";
paths = (
{
closed = 0;
nodes = (
"21 -330 LINE",
"20 500 LINE"
);
},
{
closed = 0;
nodes = (
"27 425 LINE",
"27 425 OFFCURVE",
"62 500 OFFCURVE",
"178 500 CURVE SMOOTH",
"294 500 OFFCURVE",
"371 415 OFFCURVE",
"371 251 CURVE SMOOTH",
"371 149 OFFCURVE",
"294 0 OFFCURVE",
"178 0 CURVE SMOOTH",
"62 0 OFFCURVE",
"27 75 OFFCURVE",
"27 75 CURVE"
);
}
);
width = 391;
},
{
layerId = "1AB63056-1127-463F-B001-FB2AC81901C9";
paths = (
{
closed = 0;
nodes = (
"21 -330 LINE",
"20 500 LINE"
);
},
{
closed = 0;
nodes = (
"27 425 LINE",
"27 425 OFFCURVE",
"62 500 OFFCURVE",
"178 500 CURVE SMOOTH",
"294 500 OFFCURVE",
"371 415 OFFCURVE",
"371 251 CURVE SMOOTH",
"371 149 OFFCURVE",
"294 0 OFFCURVE",
"178 0 CURVE SMOOTH",
"62 0 OFFCURVE",
"27 75 OFFCURVE",
"27 75 CURVE"
);
}
);
width = 391;
},
{
associatedMasterId = "6F4F10D2-8254-4335-A627-9F8D8891324D";
layerId = "F8386EB3-F5AD-4C55-98CD-26FC62B35DB5";
name = path;
paths = (
{
closed = 0;
nodes = (
"21 -330 LINE",
"20 500 LINE"
);
},
{
closed = 0;
nodes = (
"27 425 LINE",
"27 425 OFFCURVE",
"62 500 OFFCURVE",
"178 500 CURVE SMOOTH",
"294 500 OFFCURVE",
"371 415 OFFCURVE",
"371 251 CURVE SMOOTH",
"371 149 OFFCURVE",
"294 0 OFFCURVE",
"178 0 CURVE SMOOTH",
"62 0 OFFCURVE",
"27 75 OFFCURVE",
"27 75 CURVE"
);
}
);
visible = 1;
width = 391;
}
);
unicode = 0070;
},
{
glyphname = q;
lastChange = "2018-10-03 14:29:50 +0000";
layers = (
{
layerId = "6F4F10D2-8254-4335-A627-9F8D8891324D";
paths = (
{
closed = 1;
nodes = (
"381.046 -350 OFFCURVE",
"390 -341.046 OFFCURVE",
"390 -330 CURVE SMOOTH",
"390 500 LINE SMOOTH",
"390 511.046 OFFCURVE",
"381.046 520 OFFCURVE",
"370 520 CURVE SMOOTH",
"358.954 520 OFFCURVE",
"350 511.046 OFFCURVE",
"350 500 CURVE SMOOTH",
"350 473.301 LINE",
"324.279 495.977 OFFCURVE",
"280.986 520 OFFCURVE",
"213 520 CURVE SMOOTH",
"79.063 520 OFFCURVE",
"0 419.356 OFFCURVE",
"0 251 CURVE SMOOTH",
"0 112.813 OFFCURVE",
"102.402 -20 OFFCURVE",
"213 -20 CURVE SMOOTH",
"280.986 -20 OFFCURVE",
"324.279 4.023 OFFCURVE",
"350 26.698 CURVE",
"350 -330 LINE SMOOTH",
"350 -341.046 OFFCURVE",
"358.954 -350 OFFCURVE",
"370 -350 CURVE SMOOTH"
);
},
{
closed = 1;
nodes = (
"125.606 20 OFFCURVE",
"40 135.297 OFFCURVE",
"40 251 CURVE SMOOTH",
"40 397.719 OFFCURVE",
"102.883 480 OFFCURVE",
"213 480 CURVE SMOOTH",
"316.263 480 OFFCURVE",
"346.064 416.14 OFFCURVE",
"346.064 416.152 CURVE",
"350 418.094 LINE",
"350 81.906 LINE",
"348.032 82.877 LINE SMOOTH",
"346.723 83.523 OFFCURVE",
"343.557 78.003 OFFCURVE",
"335.579 68.543 CURVE SMOOTH",
"319.621 49.653 OFFCURVE",
"283.367 20 OFFCURVE",
"213 20 CURVE SMOOTH"
);
}
);
width = 390;
},
{
layerId = "25139FCF-725A-49A6-A058-8DCF5AC16622";
paths = (
{
closed = 0;
nodes = (
"370 -330 LINE",
"370 500 LINE"
);
},
{
closed = 0;
nodes = (
"364 425 LINE",
"364 425 OFFCURVE",
"329 500 OFFCURVE",
"213 500 CURVE SMOOTH",
"96 500 OFFCURVE",
"20 415 OFFCURVE",
"20 251 CURVE SMOOTH",
"20 150 OFFCURVE",
"96 0 OFFCURVE",
"213 0 CURVE SMOOTH",
"329 0 OFFCURVE",
"364 75 OFFCURVE",
"364 75 CURVE"
);
}
);
width = 390;
},
{
layerId = "1AB63056-1127-463F-B001-FB2AC81901C9";
paths = (
{
closed = 0;
nodes = (
"370 -330 LINE",
"370 500 LINE"
);
},
{
closed = 0;
nodes = (
"364 425 LINE",
"364 425 OFFCURVE",
"329 500 OFFCURVE",
"213 500 CURVE SMOOTH",
"96 500 OFFCURVE",
"20 415 OFFCURVE",
"20 251 CURVE SMOOTH",
"20 150 OFFCURVE",
"96 0 OFFCURVE",
"213 0 CURVE SMOOTH",
"329 0 OFFCURVE",
"364 75 OFFCURVE",
"364 75 CURVE"
);
}
);
width = 390;
},
{
associatedMasterId = "6F4F10D2-8254-4335-A627-9F8D8891324D";
layerId = "E98FCB14-0399-48A1-A1D4-B8EA37B4FC4B";
name = path;
paths = (
{
closed = 0;
nodes = (
"370 -330 LINE",
"370 500 LINE"
);
},
{
closed = 0;
nodes = (
"364 425 LINE",
"364 425 OFFCURVE",
"329 500 OFFCURVE",
"213 500 CURVE SMOOTH",
"96 500 OFFCURVE",
"20 415 OFFCURVE",
"20 251 CURVE SMOOTH",
"20 150 OFFCURVE",
"96 0 OFFCURVE",
"213 0 CURVE SMOOTH",
"329 0 OFFCURVE",
"364 75 OFFCURVE",
"364 75 CURVE"
);
}
);
visible = 1;
width = 390;
}
);
unicode = 0071;
},
{
glyphname = r;
lastChange = "2018-10-03 14:29:58 +0000";
layers = (
{
layerId = "6F4F10D2-8254-4335-A627-9F8D8891324D";
paths = (
{
closed = 1;
nodes = (
"31.046 -20 OFFCURVE",
"40 -11.046 OFFCURVE",
"40 0 CURVE SMOOTH",
"40 415.241 LINE",
"55.717 431.49 OFFCURVE",
"109.232 480 OFFCURVE",
"188 480 CURVE SMOOTH",
"265.798 480 OFFCURVE",
"344.34 438.516 OFFCURVE",
"346.933 401.857 CURVE",
"334 341 LINE SMOOTH",
"333 339 OFFCURVE",
"333 338 OFFCURVE",
"333 336 CURVE SMOOTH",
"333 325 OFFCURVE",
"342 316 OFFCURVE",
"353 316 CURVE SMOOTH",
"363 316 OFFCURVE",
"371 323 OFFCURVE",
"373 332 CURVE SMOOTH",
"384.014 384.187 LINE SMOOTH",
"386 393 OFFCURVE",
"386.657 396.824 OFFCURVE",
"387 400 CURVE",
"387 463.199 OFFCURVE",
"291.418 520 OFFCURVE",
"188 520 CURVE SMOOTH",
"122.378 520 OFFCURVE",
"71.348 491.861 OFFCURVE",
"40 468.154 CURVE",
"40 500 LINE SMOOTH",
"40 511.046 OFFCURVE",
"31.046 520 OFFCURVE",
"20 520 CURVE SMOOTH",
"8.954 520 OFFCURVE",
"0 511.046 OFFCURVE",
"0 500 CURVE SMOOTH",
"0 0 LINE SMOOTH",
"0 -11.046 OFFCURVE",
"8.954 -20 OFFCURVE",
"20 -20 CURVE SMOOTH"
);
}
);
width = 387;
},
{
layerId = "25139FCF-725A-49A6-A058-8DCF5AC16622";
paths = (
{
closed = 0;
nodes = (
"20 0 LINE",
"20 500 LINE"
);
},
{
closed = 0;
nodes = (
"20 423 LINE",
"20 423 OFFCURVE",
"84 500 OFFCURVE",
"188 500 CURVE SMOOTH",
"293 500 OFFCURVE",
"367 443 OFFCURVE",
"367 400 CURVE",
"353 336 LINE"
);
}
);
width = 387;
},
{
layerId = "1AB63056-1127-463F-B001-FB2AC81901C9";
paths = (
{
closed = 0;
nodes = (
"20 0 LINE",
"20 500 LINE"
);
},
{
closed = 0;
nodes = (
"20 423 LINE",
"20 423 OFFCURVE",
"84 500 OFFCURVE",
"188 500 CURVE SMOOTH",
"293 500 OFFCURVE",
"367 443 OFFCURVE",
"367 400 CURVE",
"353 336 LINE"
);
}
);
width = 387;
},
{
associatedMasterId = "6F4F10D2-8254-4335-A627-9F8D8891324D";
layerId = "3F276907-04D5-4D5E-9553-AAC4AACF099D";
name = path;
paths = (
{
closed = 0;
nodes = (
"20 0 LINE",
"20 500 LINE"
);
},
{
closed = 0;
nodes = (
"20 423 LINE",
"20 423 OFFCURVE",
"84 500 OFFCURVE",
"188 500 CURVE SMOOTH",
"293 500 OFFCURVE",
"367 443 OFFCURVE",
"367 400 CURVE",
"353 336 LINE"
);
}
);
visible = 1;
width = 387;
}
);
unicode = 0072;
},
{
glyphname = s;
lastChange = "2018-10-03 14:30:16 +0000";
layers = (
{
layerId = "6F4F10D2-8254-4335-A627-9F8D8891324D";
paths = (
{
closed = 1;
nodes = (
"313.426 -20 OFFCURVE",
"374 28.781 OFFCURVE",
"374 125 CURVE SMOOTH",
"374 206.753 OFFCURVE",
"321.171 246.404 OFFCURVE",
"190.509 269.69 CURVE SMOOTH",
"75.688 290.153 OFFCURVE",
"40 315.607 OFFCURVE",
"40 375 CURVE SMOOTH",
"40 451.774 OFFCURVE",
"78.878 480 OFFCURVE",
"196 480 CURVE SMOOTH",
"295.408 480 OFFCURVE",
"333.178 413.5 OFFCURVE",
"336.138 407.994 CURVE SMOOTH",
"339.432 401.472 OFFCURVE",
"346.194 397 OFFCURVE",
"354 397 CURVE SMOOTH",
"365.046 397 OFFCURVE",
"374 405.954 OFFCURVE",
"374 417 CURVE SMOOTH",
"374 420.458 OFFCURVE",
"373.122 423.711 OFFCURVE",
"371.578 426.548 CURVE SMOOTH",
"369.203 431.088 OFFCURVE",
"321.024 520 OFFCURVE",
"196 520 CURVE SMOOTH",
"58.861 520 OFFCURVE",
"0 477.335 OFFCURVE",
"0 375 CURVE SMOOTH",
"0 292.133 OFFCURVE",
"51.002 253.922 OFFCURVE",
"183.491 230.31 CURVE SMOOTH",
"296.311 210.204 OFFCURVE",
"334 183.189 OFFCURVE",
"334 125 CURVE SMOOTH",
"334 52.542 OFFCURVE",
"292.154 20 OFFCURVE",
"196 20 CURVE SMOOTH",
"79.491 20 OFFCURVE",
"40.928 86.377 OFFCURVE",
"37.847 92.035 CURVE SMOOTH",
"34.547 98.541 OFFCURVE",
"27.795 103 OFFCURVE",
"20 103 CURVE SMOOTH",
"8.954 103 OFFCURVE",
"0 94.046 OFFCURVE",
"0 83 CURVE SMOOTH",
"0 79.52 OFFCURVE",
"0.889 76.249 OFFCURVE",
"2.451 73.399 CURVE SMOOTH",
"4.85 68.834 OFFCURVE",
"53.456 -20 OFFCURVE",
"196 -20 CURVE SMOOTH"
);
}
);
width = 374;
},
{
layerId = "25139FCF-725A-49A6-A058-8DCF5AC16622";
paths = (
{
closed = 0;
nodes = (
"354 417 LINE",
"354 417 OFFCURVE",
"312 500 OFFCURVE",
"196 500 CURVE SMOOTH",
"60 500 OFFCURVE",
"20 458 OFFCURVE",
"20 375 CURVE SMOOTH",
"20 292 OFFCURVE",
"86 268 OFFCURVE",
"187 250 CURVE SMOOTH",
"288 232 OFFCURVE",
"354 206 OFFCURVE",
"354 125 CURVE SMOOTH",
"354 48 OFFCURVE",
"312 0 OFFCURVE",
"196 0 CURVE SMOOTH",
"62 0 OFFCURVE",
"20 83 OFFCURVE",
"20 83 CURVE"
);
}
);
width = 374;
},
{
layerId = "1AB63056-1127-463F-B001-FB2AC81901C9";
paths = (
{
closed = 0;
nodes = (
"354 417 LINE",
"354 417 OFFCURVE",
"312 500 OFFCURVE",
"196 500 CURVE SMOOTH",
"60 500 OFFCURVE",
"20 458 OFFCURVE",
"20 375 CURVE SMOOTH",
"20 292 OFFCURVE",
"86 268 OFFCURVE",
"187 250 CURVE SMOOTH",
"288 232 OFFCURVE",
"354 206 OFFCURVE",
"354 125 CURVE SMOOTH",
"354 48 OFFCURVE",
"312 0 OFFCURVE",
"196 0 CURVE SMOOTH",
"62 0 OFFCURVE",
"20 83 OFFCURVE",
"20 83 CURVE"
);
}
);
width = 374;
},
{
associatedMasterId = "6F4F10D2-8254-4335-A627-9F8D8891324D";
layerId = "8687FAFC-7602-492D-AC7C-F011139AC09D";
name = path;
paths = (
{
closed = 0;
nodes = (
"354 417 LINE",
"354 417 OFFCURVE",
"312 500 OFFCURVE",
"196 500 CURVE SMOOTH",
"60 500 OFFCURVE",
"20 458 OFFCURVE",
"20 375 CURVE SMOOTH",
"20 292 OFFCURVE",
"86 268 OFFCURVE",
"187 250 CURVE SMOOTH",
"288 232 OFFCURVE",
"354 206 OFFCURVE",
"354 125 CURVE SMOOTH",
"354 48 OFFCURVE",
"312 0 OFFCURVE",
"196 0 CURVE SMOOTH",
"62 0 OFFCURVE",
"20 83 OFFCURVE",
"20 83 CURVE"
);
}
);
visible = 1;
width = 374;
}
);
unicode = 0073;
},
{
glyphname = t;
lastChange = "2018-10-03 15:28:50 +0000";
layers = (
{
layerId = "6F4F10D2-8254-4335-A627-9F8D8891324D";
paths = (
{
closed = 1;
nodes = (
"199 -17 OFFCURVE",
"245 3 OFFCURVE",
"277 27 CURVE SMOOTH",
"281 30 OFFCURVE",
"283 35 OFFCURVE",
"283 41 CURVE SMOOTH",
"283 52 OFFCURVE",
"274 61 OFFCURVE",
"263 61 CURVE SMOOTH",
"258 61 OFFCURVE",
"253 59 OFFCURVE",
"249 56 CURVE SMOOTH",
"225 38 OFFCURVE",
"191 23 OFFCURVE",
"150 23 CURVE SMOOTH",
"62 23 OFFCURVE",
"40 102.709 OFFCURVE",
"40 176 CURVE SMOOTH",
"40 478 LINE",
"251 480 LINE SMOOTH",
"262 480 OFFCURVE",
"271 489 OFFCURVE",
"271 500 CURVE SMOOTH",
"271 511 OFFCURVE",
"262 520 OFFCURVE",
"251 520 CURVE SMOOTH",
"40 518 LINE",
"40 700 LINE SMOOTH",
"40 711.046 OFFCURVE",
"31.046 720 OFFCURVE",
"20 720 CURVE SMOOTH",
"8.954 720 OFFCURVE",
"0 711.046 OFFCURVE",
"0 700 CURVE SMOOTH",
"0 176 LINE SMOOTH",
"0 103.291 OFFCURVE",
"20 -17 OFFCURVE",
"150 -17 CURVE SMOOTH"
);
}
);
width = 321;
},
{
layerId = "25139FCF-725A-49A6-A058-8DCF5AC16622";
paths = (
{
closed = 0;
nodes = (
"185 420 LINE",
"10 418 LINE"
);
},
{
closed = 0;
nodes = (
"3 700 LINE",
"3 700 OFFCURVE",
"3 421 OFFCURVE",
"3 279 CURVE SMOOTH",
"3 176 LINE SMOOTH",
"3 103 OFFCURVE",
"-0.096 0 OFFCURVE",
"109 0 CURVE SMOOTH",
"158 0 OFFCURVE",
"191 14 OFFCURVE",
"214 36 CURVE"
);
}
);
width = 600;
},
{
layerId = "1AB63056-1127-463F-B001-FB2AC81901C9";
paths = (
{
closed = 0;
nodes = (
"185 420 LINE",
"10 418 LINE"
);
},
{
closed = 0;
nodes = (
"3 700 LINE",
"3 700 OFFCURVE",
"3 421 OFFCURVE",
"3 279 CURVE SMOOTH",
"3 176 LINE SMOOTH",
"3 103 OFFCURVE",
"-0.096 0 OFFCURVE",
"109 0 CURVE SMOOTH",
"158 0 OFFCURVE",
"191 14 OFFCURVE",
"214 36 CURVE"
);
}
);
width = 600;
},
{
associatedMasterId = "6F4F10D2-8254-4335-A627-9F8D8891324D";
layerId = "D86B9D2A-8C4C-4D6E-9CC4-293CA834A508";
name = path;
paths = (
{
closed = 0;
nodes = (
"202 420 LINE",
"27 418 LINE"
);
},
{
closed = 0;
nodes = (
"20 700 LINE",
"20 700 OFFCURVE",
"20 421 OFFCURVE",
"20 279 CURVE SMOOTH",
"20 176 LINE SMOOTH",
"20 103 OFFCURVE",
"17 0 OFFCURVE",
"126 0 CURVE SMOOTH",
"175 0 OFFCURVE",
"208 14 OFFCURVE",
"231 36 CURVE"
);
}
);
visible = 1;
width = 261;
}
);
unicode = 0074;
},
{
glyphname = u;
lastChange = "2018-10-03 15:29:41 +0000";
layers = (
{
layerId = "6F4F10D2-8254-4335-A627-9F8D8891324D";
paths = (
{
closed = 1;
nodes = (
"212 -21 OFFCURVE",
"267 20 OFFCURVE",
"302 52 CURVE",
"302 0 LINE SMOOTH",
"302 -11 OFFCURVE",
"311 -20 OFFCURVE",
"322 -20 CURVE SMOOTH",
"333 -20 OFFCURVE",
"342 -11 OFFCURVE",
"342 0 CURVE SMOOTH",
"342 499 LINE SMOOTH",
"342 510 OFFCURVE",
"333 519 OFFCURVE",
"322 519 CURVE SMOOTH",
"311 519 OFFCURVE",
"302 510 OFFCURVE",
"302 499 CURVE SMOOTH",
"302 109 LINE",
"284 89 OFFCURVE",
"219 19 OFFCURVE",
"165 20 CURVE SMOOTH",
"65 22 OFFCURVE",
"20 46.769 OFFCURVE",
"20 100 CURVE SMOOTH",
"20 500 LINE SMOOTH",
"20 511.046 OFFCURVE",
"11.046 520 OFFCURVE",
"0 520 CURVE SMOOTH",
"-11.046 520 OFFCURVE",
"-20 511.046 OFFCURVE",
"-20 500 CURVE SMOOTH",
"-20 100 LINE SMOOTH",
"-20 20.566 OFFCURVE",
"44 -17 OFFCURVE",
"165 -20 CURVE SMOOTH"
);
}
);
width = 353;
},
{
layerId = "25139FCF-725A-49A6-A058-8DCF5AC16622";
paths = (
{
closed = 0;
nodes = (
"333 500 LINE",
"333 1 LINE"
);
},
{
closed = 0;
nodes = (
"333 103 LINE",
"333 103 OFFCURVE",
"250 0 OFFCURVE",
"165 0 CURVE SMOOTH",
"42 0 OFFCURVE",
"0 42 OFFCURVE",
"0 100 CURVE SMOOTH",
"0 500 LINE"
);
}
);
width = 600;
},
{
layerId = "1AB63056-1127-463F-B001-FB2AC81901C9";
paths = (
{
closed = 0;
nodes = (
"333 500 LINE",
"333 1 LINE"
);
},
{
closed = 0;
nodes = (
"333 103 LINE",
"333 103 OFFCURVE",
"250 0 OFFCURVE",
"165 0 CURVE SMOOTH",
"42 0 OFFCURVE",
"0 42 OFFCURVE",
"0 100 CURVE SMOOTH",
"0 500 LINE"
);
}
);
width = 600;
},
{
associatedMasterId = "6F4F10D2-8254-4335-A627-9F8D8891324D";
layerId = "22F47F4A-C2C3-4C1C-B4A4-27AC02646416";
name = path;
paths = (
{
closed = 0;
nodes = (
"333 500 LINE",
"333 1 LINE"
);
},
{
closed = 0;
nodes = (
"333 103 LINE",
"333 103 OFFCURVE",
"250 0 OFFCURVE",
"165 0 CURVE SMOOTH",
"42 0 OFFCURVE",
"0 42 OFFCURVE",
"0 100 CURVE SMOOTH",
"0 500 LINE"
);
}
);
visible = 1;
width = 600;
}
);
unicode = 0075;
},
{
glyphname = v;
lastChange = "2018-10-03 14:30:42 +0000";
layers = (
{
layerId = "6F4F10D2-8254-4335-A627-9F8D8891324D";
paths = (
{
closed = 1;
nodes = (
"230.752 -7.696 LINE SMOOTH",
"242.201 -7.686 OFFCURVE",
"249.488 -2.821 OFFCURVE",
"253.886 7.75 CURVE SMOOTH",
"455.301 491.921 LINE SMOOTH",
"456.393 494.391 OFFCURVE",
"457 497.125 OFFCURVE",
"457 500 CURVE SMOOTH",
"457 511.046 OFFCURVE",
"448.046 520 OFFCURVE",
"437 520 CURVE SMOOTH",
"428.519 520 OFFCURVE",
"421.271 514.721 OFFCURVE",
"418.362 507.269 CURVE SMOOTH",
"228.956 51.965 LINE",
"38.628 507.294 LINE SMOOTH",
"35.713 514.733 OFFCURVE",
"28.472 520 OFFCURVE",
"20 520 CURVE SMOOTH",
"8.954 520 OFFCURVE",
"0 511.046 OFFCURVE",
"0 500 CURVE SMOOTH",
"0 497.113 OFFCURVE",
"0.612 494.369 OFFCURVE",
"1.713 491.89 CURVE SMOOTH",
"204.101 7.708 LINE SMOOTH",
"208.517 -2.856 OFFCURVE",
"215.811 -7.709 OFFCURVE",
"227.261 -7.699 CURVE SMOOTH"
);
}
);
width = 457;
},
{
layerId = "25139FCF-725A-49A6-A058-8DCF5AC16622";
paths = (
{
closed = 0;
nodes = (
"20 500 LINE",
"229 0 LINE",
"437 500 LINE"
);
}
);
width = 457;
},
{
layerId = "1AB63056-1127-463F-B001-FB2AC81901C9";
paths = (
{
closed = 0;
nodes = (
"20 500 LINE",
"229 0 LINE",
"437 500 LINE"
);
}
);
width = 457;
},
{
associatedMasterId = "6F4F10D2-8254-4335-A627-9F8D8891324D";
layerId = "18248BD3-2444-4CD5-A09C-77F15A5330B9";
name = path;
paths = (
{
closed = 0;
nodes = (
"20 500 LINE",
"229 0 LINE",
"437 500 LINE"
);
}
);
visible = 1;
width = 457;
}
);
unicode = 0076;
},
{
glyphname = w;
lastChange = "2018-10-03 14:30:54 +0000";
layers = (
{
layerId = "6F4F10D2-8254-4335-A627-9F8D8891324D";
paths = (
{
closed = 1;
nodes = (
"188.744 -6.336 LINE SMOOTH",
"200.447 -6.336 OFFCURVE",
"207.72 -1.098 OFFCURVE",
"211.427 10.003 CURVE SMOOTH",
"353.943 436.697 LINE",
"495.589 10.053 LINE SMOOTH",
"499.278 -1.057 OFFCURVE",
"506.545 -6.307 OFFCURVE",
"518.251 -6.317 CURVE SMOOTH",
"521.738 -6.321 LINE SMOOTH",
"533.444 -6.331 OFFCURVE",
"540.721 -1.095 OFFCURVE",
"544.429 10.009 CURVE SMOOTH",
"705.828 493.24 LINE SMOOTH",
"706.586 495.351 OFFCURVE",
"707 497.627 OFFCURVE",
"707 500 CURVE SMOOTH",
"707 511.046 OFFCURVE",
"698.046 520 OFFCURVE",
"687 520 CURVE SMOOTH",
"678.012 520 OFFCURVE",
"670.409 514.071 OFFCURVE",
"667.888 505.91 CURVE SMOOTH",
"520.057 63.303 LINE",
"378.411 489.947 LINE SMOOTH",
"374.722 501.057 OFFCURVE",
"367.455 506.307 OFFCURVE",
"355.749 506.317 CURVE SMOOTH",
"352.262 506.321 LINE SMOOTH",
"340.556 506.331 OFFCURVE",
"333.279 501.095 OFFCURVE",
"329.571 489.991 CURVE SMOOTH",
"187 63.132 LINE",
"39.112 505.91 LINE SMOOTH",
"36.592 514.071 OFFCURVE",
"28.989 520 OFFCURVE",
"20 520 CURVE SMOOTH",
"8.954 520 OFFCURVE",
"0 511.046 OFFCURVE",
"0 500 CURVE SMOOTH",
"0 497.628 OFFCURVE",
"0.413 495.352 OFFCURVE",
"1.172 493.24 CURVE SMOOTH",
"162.573 10.003 LINE SMOOTH",
"166.28 -1.098 OFFCURVE",
"173.553 -6.336 OFFCURVE",
"185.256 -6.336 CURVE SMOOTH"
);
}
);
width = 707;
},
{
layerId = "25139FCF-725A-49A6-A058-8DCF5AC16622";
paths = (
{
closed = 0;
nodes = (
"20 500 LINE",
"187 0 LINE",
"354 500 LINE",
"520 0 LINE",
"687 500 LINE"
);
}
);
width = 707;
},
{
layerId = "1AB63056-1127-463F-B001-FB2AC81901C9";
paths = (
{
closed = 0;
nodes = (
"20 500 LINE",
"187 0 LINE",
"354 500 LINE",
"520 0 LINE",
"687 500 LINE"
);
}
);
width = 707;
},
{
associatedMasterId = "6F4F10D2-8254-4335-A627-9F8D8891324D";
layerId = "633B0165-595A-45A6-B2C9-4EB267821027";
name = path;
paths = (
{
closed = 0;
nodes = (
"20 500 LINE",
"187 0 LINE",
"354 500 LINE",
"520 0 LINE",
"687 500 LINE"
);
}
);
visible = 1;
width = 707;
}
);
unicode = 0077;
},
{
glyphname = x;
lastChange = "2018-10-03 14:31:01 +0000";
layers = (
{
layerId = "6F4F10D2-8254-4335-A627-9F8D8891324D";
paths = (
{
closed = 1;
nodes = (
"26.622 -20 OFFCURVE",
"32.492 -16.782 OFFCURVE",
"36.132 -11.824 CURVE SMOOTH",
"207.5 216.667 LINE",
"378.868 -11.824 LINE SMOOTH",
"382.508 -16.782 OFFCURVE",
"388.378 -20 OFFCURVE",
"395 -20 CURVE SMOOTH",
"406.046 -20 OFFCURVE",
"415 -11.046 OFFCURVE",
"415 0 CURVE SMOOTH",
"415 4.578 OFFCURVE",
"413.462 8.797 OFFCURVE",
"410.874 12.167 CURVE SMOOTH",
"232.5 250 LINE",
"410.874 487.832 LINE SMOOTH",
"413.462 491.203 OFFCURVE",
"415 495.422 OFFCURVE",
"415 500 CURVE SMOOTH",
"415 511.046 OFFCURVE",
"406.046 520 OFFCURVE",
"395 520 CURVE SMOOTH",
"388.378 520 OFFCURVE",
"382.508 516.782 OFFCURVE",
"378.868 511.824 CURVE SMOOTH",
"207.5 283.333 LINE",
"36.132 511.824 LINE SMOOTH",
"32.492 516.782 OFFCURVE",
"26.622 520 OFFCURVE",
"20 520 CURVE SMOOTH",
"8.954 520 OFFCURVE",
"0 511.046 OFFCURVE",
"0 500 CURVE SMOOTH",
"0 495.422 OFFCURVE",
"1.538 491.203 OFFCURVE",
"4.126 487.832 CURVE SMOOTH",
"182.5 250 LINE",
"4.126 12.168 LINE SMOOTH",
"1.538 8.797 OFFCURVE",
"0 4.578 OFFCURVE",
"0 0 CURVE SMOOTH",
"0 -11.046 OFFCURVE",
"8.954 -20 OFFCURVE",
"20 -20 CURVE SMOOTH"
);
}
);
width = 415;
},
{
layerId = "25139FCF-725A-49A6-A058-8DCF5AC16622";
paths = (
{
closed = 0;
nodes = (
"20 500 LINE",
"395 0 LINE"
);
},
{
closed = 0;
nodes = (
"20 0 LINE",
"395 500 LINE"
);
}
);
width = 415;
},
{
layerId = "1AB63056-1127-463F-B001-FB2AC81901C9";
paths = (
{
closed = 0;
nodes = (
"20 500 LINE",
"395 0 LINE"
);
},
{
closed = 0;
nodes = (
"20 0 LINE",
"395 500 LINE"
);
}
);
width = 415;
},
{
associatedMasterId = "6F4F10D2-8254-4335-A627-9F8D8891324D";
layerId = "8EC35D25-D3F1-4856-955B-AADA21ACE33F";
name = path;
paths = (
{
closed = 0;
nodes = (
"20 500 LINE",
"395 0 LINE"
);
},
{
closed = 0;
nodes = (
"20 0 LINE",
"395 500 LINE"
);
}
);
visible = 1;
width = 415;
}
);
unicode = 0078;
},
{
glyphname = y;
lastChange = "2018-10-03 14:31:09 +0000";
layers = (
{
layerId = "6F4F10D2-8254-4335-A627-9F8D8891324D";
paths = (
{
closed = 1;
nodes = (
"69.975 -350 OFFCURVE",
"76.859 -345.332 OFFCURVE",
"80.071 -338.58 CURVE SMOOTH",
"494.716 490.711 LINE SMOOTH",
"496.175 493.486 OFFCURVE",
"497 496.647 OFFCURVE",
"497 500 CURVE SMOOTH",
"497 511.046 OFFCURVE",
"488.046 520 OFFCURVE",
"477 520 CURVE SMOOTH",
"469.025 520 OFFCURVE",
"462.141 515.333 OFFCURVE",
"458.929 508.581 CURVE SMOOTH",
"238.846 68.414 LINE",
"38.386 507.883 LINE SMOOTH",
"35.327 515.009 OFFCURVE",
"28.247 520 OFFCURVE",
"20 520 CURVE SMOOTH",
"8.954 520 OFFCURVE",
"0 511.046 OFFCURVE",
"0 500 CURVE SMOOTH",
"0 496.881 OFFCURVE",
"0.714 493.929 OFFCURVE",
"1.987 491.298 CURVE SMOOTH",
"201.504 53.896 LINE SMOOTH",
"206.899 42.069 OFFCURVE",
"215.556 38.324 OFFCURVE",
"226.237 43.196 CURVE",
"44.283 -320.712 LINE SMOOTH",
"42.825 -323.487 OFFCURVE",
"42 -326.647 OFFCURVE",
"42 -330 CURVE SMOOTH",
"42 -341.046 OFFCURVE",
"50.954 -350 OFFCURVE",
"62 -350 CURVE SMOOTH"
);
}
);
width = 497;
},
{
layerId = "25139FCF-725A-49A6-A058-8DCF5AC16622";
paths = (
{
closed = 0;
nodes = (
"20 500 LINE",
"228 44 LINE"
);
},
{
closed = 0;
nodes = (
"477 500 LINE",
"62 -330 LINE"
);
}
);
width = 497;
},
{
layerId = "1AB63056-1127-463F-B001-FB2AC81901C9";
paths = (
{
closed = 0;
nodes = (
"20 500 LINE",
"228 44 LINE"
);
},
{
closed = 0;
nodes = (
"477 500 LINE",
"62 -330 LINE"
);
}
);
width = 497;
},
{
associatedMasterId = "6F4F10D2-8254-4335-A627-9F8D8891324D";
layerId = "366E8C8C-77B3-499D-AC43-B4DB1AD04A06";
name = path;
paths = (
{
closed = 0;
nodes = (
"20 500 LINE",
"228 44 LINE"
);
},
{
closed = 0;
nodes = (
"477 500 LINE",
"62 -330 LINE"
);
}
);
visible = 1;
width = 497;
}
);
unicode = 0079;
},
{
glyphname = z;
lastChange = "2018-10-03 14:31:18 +0000";
layers = (
{
layerId = "6F4F10D2-8254-4335-A627-9F8D8891324D";
paths = (
{
closed = 1;
nodes = (
"395 -20 LINE SMOOTH",
"406.046 -20 OFFCURVE",
"415 -11.046 OFFCURVE",
"415 0 CURVE SMOOTH",
"415 11.046 OFFCURVE",
"406.046 20 OFFCURVE",
"395 20 CURVE SMOOTH",
"60 20 LINE",
"401.243 474.991 LINE SMOOTH",
"407.976 483.968 OFFCURVE",
"408.746 492.508 OFFCURVE",
"403.727 502.545 CURVE SMOOTH",
"402.273 505.455 LINE SMOOTH",
"397.254 515.492 OFFCURVE",
"389.96 520 OFFCURVE",
"378.738 520 CURVE SMOOTH",
"20 520 LINE SMOOTH",
"8.954 520 OFFCURVE",
"0 511.046 OFFCURVE",
"0 500 CURVE SMOOTH",
"0 488.954 OFFCURVE",
"8.954 480 OFFCURVE",
"20 480 CURVE SMOOTH",
"355 480 LINE",
"13.757 25.009 LINE SMOOTH",
"7.024 16.032 OFFCURVE",
"6.254 7.492 OFFCURVE",
"11.273 -2.545 CURVE SMOOTH",
"12.727 -5.455 LINE SMOOTH",
"17.746 -15.492 OFFCURVE",
"25.04 -20 OFFCURVE",
"36.262 -20 CURVE SMOOTH"
);
}
);
width = 415;
},
{
layerId = "25139FCF-725A-49A6-A058-8DCF5AC16622";
paths = (
{
closed = 0;
nodes = (
"20 500 LINE",
"395 500 LINE",
"20 0 LINE",
"395 0 LINE"
);
}
);
width = 415;
},
{
layerId = "1AB63056-1127-463F-B001-FB2AC81901C9";
paths = (
{
closed = 0;
nodes = (
"20 500 LINE",
"395 500 LINE",
"20 0 LINE",
"395 0 LINE"
);
}
);
width = 415;
},
{
associatedMasterId = "6F4F10D2-8254-4335-A627-9F8D8891324D";
layerId = "EED7CEEA-7F20-468D-84C6-EDD1EB205F09";
name = path;
paths = (
{
closed = 0;
nodes = (
"20 500 LINE",
"395 500 LINE",
"20 0 LINE",
"395 0 LINE"
);
}
);
visible = 1;
width = 415;
}
);
unicode = 007A;
},
{
glyphname = a.ss01;
lastChange = "2018-10-03 14:31:27 +0000";
layers = (
{
layerId = "6F4F10D2-8254-4335-A627-9F8D8891324D";
paths = (
{
closed = 1;
nodes = (
"240.583 -20 OFFCURVE",
"319.222 29.77 OFFCURVE",
"354.976 55.514 CURVE",
"409.25 -12.328 LINE SMOOTH",
"412.911 -16.999 OFFCURVE",
"418.605 -20 OFFCURVE",
"425 -20 CURVE SMOOTH",
"436.046 -20 OFFCURVE",
"445 -11.046 OFFCURVE",
"445 0 CURVE SMOOTH",
"445 4.786 OFFCURVE",
"443.319 9.18 OFFCURVE",
"440.514 12.622 CURVE SMOOTH",
"385 82.015 LINE",
"385 341 LINE SMOOTH",
"385 463.476 OFFCURVE",
"317.567 520 OFFCURVE",
"178 520 CURVE SMOOTH",
"76.511 520 OFFCURVE",
"20.915 440.812 OFFCURVE",
"18.667 437.545 CURVE SMOOTH",
"16.357 434.283 OFFCURVE",
"15 430.3 OFFCURVE",
"15 426 CURVE SMOOTH",
"15 414.954 OFFCURVE",
"23.954 406 OFFCURVE",
"35 406 CURVE SMOOTH",
"41.915 406 OFFCURVE",
"48.011 409.51 OFFCURVE",
"51.602 414.845 CURVE SMOOTH",
"54.875 419.51 OFFCURVE",
"98.803 480 OFFCURVE",
"178 480 CURVE SMOOTH",
"296.159 480 OFFCURVE",
"345 440.008 OFFCURVE",
"345 341 CURVE SMOOTH",
"345 301.117 LINE",
"318.469 323.841 OFFCURVE",
"272.509 346 OFFCURVE",
"174 346 CURVE SMOOTH",
"77.128 346 OFFCURVE",
"0 266.151 OFFCURVE",
"0 169 CURVE SMOOTH",
"0 60.089 OFFCURVE",
"70.412 -20 OFFCURVE",
"167 -20 CURVE SMOOTH"
);
},
{
closed = 1;
nodes = (
"92.812 20 OFFCURVE",
"40 82.281 OFFCURVE",
"40 169 CURVE SMOOTH",
"40 243.928 OFFCURVE",
"99.45 306 OFFCURVE",
"174 306 CURVE SMOOTH",
"297.97 306 OFFCURVE",
"318.604 271.682 OFFCURVE",
"345 242.072 CURVE",
"345 97.996 LINE",
"325.28 82.486 OFFCURVE",
"241.23 20 OFFCURVE",
"167 20 CURVE SMOOTH"
);
}
);
width = 445;
},
{
layerId = "25139FCF-725A-49A6-A058-8DCF5AC16622";
paths = (
{
closed = 0;
nodes = (
"362 86 LINE",
"362 86 OFFCURVE",
"259 0 OFFCURVE",
"167 0 CURVE SMOOTH",
"72 0 OFFCURVE",
"20 83 OFFCURVE",
"20 169 CURVE SMOOTH",
"20 237 OFFCURVE",
"72 326 OFFCURVE",
"174 326 CURVE SMOOTH",
"316 326 OFFCURVE",
"337 280 OFFCURVE",
"363 252 CURVE"
);
},
{
closed = 0;
nodes = (
"35 426 LINE",
"35 426 OFFCURVE",
"85 500 OFFCURVE",
"178 500 CURVE SMOOTH",
"270 500 OFFCURVE",
"365 479 OFFCURVE",
"365 341 CURVE SMOOTH",
"365 75 LINE",
"425 0 LINE"
);
}
);
width = 445;
},
{
layerId = "1AB63056-1127-463F-B001-FB2AC81901C9";
paths = (
{
closed = 0;
nodes = (
"362 86 LINE",
"362 86 OFFCURVE",
"259 0 OFFCURVE",
"167 0 CURVE SMOOTH",
"72 0 OFFCURVE",
"20 83 OFFCURVE",
"20 169 CURVE SMOOTH",
"20 237 OFFCURVE",
"72 326 OFFCURVE",
"174 326 CURVE SMOOTH",
"316 326 OFFCURVE",
"337 280 OFFCURVE",
"363 252 CURVE"
);
},
{
closed = 0;
nodes = (
"35 426 LINE",
"35 426 OFFCURVE",
"85 500 OFFCURVE",
"178 500 CURVE SMOOTH",
"270 500 OFFCURVE",
"365 479 OFFCURVE",
"365 341 CURVE SMOOTH",
"365 75 LINE",
"425 0 LINE"
);
}
);
width = 445;
},
{
associatedMasterId = "6F4F10D2-8254-4335-A627-9F8D8891324D";
layerId = "B0355615-8E67-4844-85E2-37EE7AB62226";
name = path;
paths = (
{
closed = 0;
nodes = (
"362 86 LINE",
"362 86 OFFCURVE",
"259 0 OFFCURVE",
"167 0 CURVE SMOOTH",
"72 0 OFFCURVE",
"20 83 OFFCURVE",
"20 169 CURVE SMOOTH",
"20 237 OFFCURVE",
"72 326 OFFCURVE",
"174 326 CURVE SMOOTH",
"316 326 OFFCURVE",
"337 280 OFFCURVE",
"363 252 CURVE"
);
},
{
closed = 0;
nodes = (
"35 426 LINE",
"35 426 OFFCURVE",
"85 500 OFFCURVE",
"178 500 CURVE SMOOTH",
"270 500 OFFCURVE",
"365 479 OFFCURVE",
"365 341 CURVE SMOOTH",
"365 75 LINE",
"425 0 LINE"
);
}
);
visible = 1;
width = 445;
}
);
},
{
glyphname = m.ss01;
lastChange = "2018-10-03 14:31:35 +0000";
layers = (
{
layerId = "6F4F10D2-8254-4335-A627-9F8D8891324D";
paths = (
{
closed = 1;
nodes = (
"73.046 -20 OFFCURVE",
"82 -11.046 OFFCURVE",
"82 0 CURVE SMOOTH",
"82 389.668 LINE",
"99.571 409.819 OFFCURVE",
"165.399 480 OFFCURVE",
"230 480 CURVE SMOOTH",
"329.522 480 OFFCURVE",
"374 453.482 OFFCURVE",
"374 400 CURVE SMOOTH",
"374 0 LINE SMOOTH",
"374 -11.046 OFFCURVE",
"382.954 -20 OFFCURVE",
"394 -20 CURVE SMOOTH",
"405.046 -20 OFFCURVE",
"414 -11.046 OFFCURVE",
"414 0 CURVE SMOOTH",
"414 389.607 LINE",
"431.793 409.805 OFFCURVE",
"498.216 480 OFFCURVE",
"562 480 CURVE SMOOTH",
"662.333 480 OFFCURVE",
"707 453.538 OFFCURVE",
"707 400 CURVE SMOOTH",
"707 0 LINE SMOOTH",
"707 -11.046 OFFCURVE",
"715.954 -20 OFFCURVE",
"727 -20 CURVE SMOOTH",
"738.046 -20 OFFCURVE",
"747 -11.046 OFFCURVE",
"747 0 CURVE SMOOTH",
"747 400 LINE SMOOTH",
"747 479.734 OFFCURVE",
"682.893 520 OFFCURVE",
"562 520 CURVE SMOOTH",
"500.918 520 OFFCURVE",
"441.373 472.953 OFFCURVE",
"407.427 440.332 CURVE",
"388.307 493.25 OFFCURVE",
"327.79 520 OFFCURVE",
"230 520 CURVE SMOOTH",
"167.189 520 OFFCURVE",
"106.881 471.335 OFFCURVE",
"73.459 438.65 CURVE",
"38.045 508.634 LINE SMOOTH",
"34.823 515.357 OFFCURVE",
"27.954 520 OFFCURVE",
"20 520 CURVE SMOOTH",
"8.954 520 OFFCURVE",
"0 511.046 OFFCURVE",
"0 500 CURVE SMOOTH",
"0 496.605 OFFCURVE",
"0.846 493.408 OFFCURVE",
"2.338 490.608 CURVE SMOOTH",
"42 412.229 LINE",
"42 0 LINE SMOOTH",
"42 -11.046 OFFCURVE",
"50.954 -20 OFFCURVE",
"62 -20 CURVE SMOOTH"
);
}
);
width = 747;
},
{
layerId = "25139FCF-725A-49A6-A058-8DCF5AC16622";
paths = (
{
closed = 0;
nodes = (
"62 0 LINE",
"62 417 LINE",
"20 500 LINE"
);
},
{
closed = 0;
nodes = (
"62 397 LINE",
"62 397 OFFCURVE",
"145 500 OFFCURVE",
"230 500 CURVE SMOOTH",
"353 500 OFFCURVE",
"394 458 OFFCURVE",
"394 400 CURVE SMOOTH",
"394 0 LINE"
);
},
{
closed = 0;
nodes = (
"394 397 LINE",
"394 397 OFFCURVE",
"478 500 OFFCURVE",
"562 500 CURVE SMOOTH",
"686 500 OFFCURVE",
"727 458 OFFCURVE",
"727 400 CURVE SMOOTH",
"727 0 LINE"
);
}
);
width = 747;
},
{
layerId = "1AB63056-1127-463F-B001-FB2AC81901C9";
paths = (
{
closed = 0;
nodes = (
"62 0 LINE",
"62 417 LINE",
"20 500 LINE"
);
},
{
closed = 0;
nodes = (
"62 397 LINE",
"62 397 OFFCURVE",
"145 500 OFFCURVE",
"230 500 CURVE SMOOTH",
"353 500 OFFCURVE",
"394 458 OFFCURVE",
"394 400 CURVE SMOOTH",
"394 0 LINE"
);
},
{
closed = 0;
nodes = (
"394 397 LINE",
"394 397 OFFCURVE",
"478 500 OFFCURVE",
"562 500 CURVE SMOOTH",
"686 500 OFFCURVE",
"727 458 OFFCURVE",
"727 400 CURVE SMOOTH",
"727 0 LINE"
);
}
);
width = 747;
},
{
associatedMasterId = "6F4F10D2-8254-4335-A627-9F8D8891324D";
layerId = "45A3577A-0F56-4CB1-831F-2EF8100DF23A";
name = path;
paths = (
{
closed = 0;
nodes = (
"62 0 LINE",
"62 417 LINE",
"20 500 LINE"
);
},
{
closed = 0;
nodes = (
"62 397 LINE",
"62 397 OFFCURVE",
"145 500 OFFCURVE",
"230 500 CURVE SMOOTH",
"353 500 OFFCURVE",
"394 458 OFFCURVE",
"394 400 CURVE SMOOTH",
"394 0 LINE"
);
},
{
closed = 0;
nodes = (
"394 397 LINE",
"394 397 OFFCURVE",
"478 500 OFFCURVE",
"562 500 CURVE SMOOTH",
"686 500 OFFCURVE",
"727 458 OFFCURVE",
"727 400 CURVE SMOOTH",
"727 0 LINE"
);
}
);
visible = 1;
width = 747;
}
);
},
{
glyphname = n.ss01;
lastChange = "2018-10-03 14:31:51 +0000";
layers = (
{
layerId = "6F4F10D2-8254-4335-A627-9F8D8891324D";
paths = (
{
closed = 1;
nodes = (
"73.046 -20 OFFCURVE",
"82 -11.046 OFFCURVE",
"82 0 CURVE SMOOTH",
"82 389.668 LINE",
"99.571 409.819 OFFCURVE",
"165 480 OFFCURVE",
"230 480 CURVE SMOOTH",
"330 480 OFFCURVE",
"374 453.482 OFFCURVE",
"374 400 CURVE SMOOTH",
"374 0 LINE SMOOTH",
"374 -11.046 OFFCURVE",
"382.954 -20 OFFCURVE",
"394 -20 CURVE SMOOTH",
"405.046 -20 OFFCURVE",
"414 -11.046 OFFCURVE",
"414 0 CURVE SMOOTH",
"414 400 LINE SMOOTH",
"414 479.641 OFFCURVE",
"350 520 OFFCURVE",
"230 520 CURVE SMOOTH",
"167 520 OFFCURVE",
"106.881 471.335 OFFCURVE",
"73.459 438.65 CURVE",
"38.045 508.634 LINE SMOOTH",
"34.823 515.357 OFFCURVE",
"27.954 520 OFFCURVE",
"20 520 CURVE SMOOTH",
"8.954 520 OFFCURVE",
"0 511.046 OFFCURVE",
"0 500 CURVE SMOOTH",
"0 496.605 OFFCURVE",
"0.846 493.408 OFFCURVE",
"2.338 490.608 CURVE SMOOTH",
"42 412.229 LINE",
"42 0 LINE SMOOTH",
"42 -11.046 OFFCURVE",
"50.954 -20 OFFCURVE",
"62 -20 CURVE SMOOTH"
);
}
);
width = 414;
},
{
layerId = "25139FCF-725A-49A6-A058-8DCF5AC16622";
paths = (
{
closed = 0;
nodes = (
"62 0 LINE",
"62 417 LINE",
"20 500 LINE"
);
},
{
closed = 0;
nodes = (
"62 397 LINE",
"62 397 OFFCURVE",
"145 500 OFFCURVE",
"230 500 CURVE SMOOTH",
"353 500 OFFCURVE",
"394 458 OFFCURVE",
"394 400 CURVE SMOOTH",
"394 0 LINE"
);
},
{
closed = 0;
nodes = (
"394 397 LINE"
);
}
);
width = 414;
},
{
layerId = "1AB63056-1127-463F-B001-FB2AC81901C9";
paths = (
{
closed = 0;
nodes = (
"62 0 LINE",
"62 417 LINE",
"20 500 LINE"
);
},
{
closed = 0;
nodes = (
"62 397 LINE",
"62 397 OFFCURVE",
"145 500 OFFCURVE",
"230 500 CURVE SMOOTH",
"353 500 OFFCURVE",
"394 458 OFFCURVE",
"394 400 CURVE SMOOTH",
"394 0 LINE"
);
},
{
closed = 0;
nodes = (
"394 397 LINE"
);
}
);
width = 414;
},
{
associatedMasterId = "6F4F10D2-8254-4335-A627-9F8D8891324D";
layerId = "B25E07C3-8928-4CE7-84B7-D8D753B3E287";
name = path;
paths = (
{
closed = 0;
nodes = (
"62 0 LINE",
"62 417 LINE",
"20 500 LINE"
);
},
{
closed = 0;
nodes = (
"62 397 LINE",
"62 397 OFFCURVE",
"145 500 OFFCURVE",
"230 500 CURVE SMOOTH",
"353 500 OFFCURVE",
"394 458 OFFCURVE",
"394 400 CURVE SMOOTH",
"394 0 LINE"
);
},
{
closed = 0;
nodes = (
"394 397 LINE"
);
}
);
visible = 1;
width = 414;
}
);
},
{
glyphname = p.ss01;
lastChange = "2018-10-03 14:31:58 +0000";
layers = (
{
layerId = "6F4F10D2-8254-4335-A627-9F8D8891324D";
paths = (
{
closed = 1;
nodes = (
"94.046 -320 OFFCURVE",
"103 -311.046 OFFCURVE",
"103 -300 CURVE SMOOTH",
"103 25.969 LINE",
"128.507 3.697 OFFCURVE",
"172.077 -20 OFFCURVE",
"242 -20 CURVE SMOOTH",
"352.617 -20 OFFCURVE",
"455 112.287 OFFCURVE",
"455 250 CURVE SMOOTH",
"455 419.484 OFFCURVE",
"376.343 520 OFFCURVE",
"242 520 CURVE SMOOTH",
"143.271 520 OFFCURVE",
"97.082 472.758 OFFCURVE",
"80.093 448.987 CURVE",
"14.056 514.228 LINE SMOOTH",
"10.443 517.797 OFFCURVE",
"5.479 520 OFFCURVE",
"0 520 CURVE SMOOTH",
"-11.046 520 OFFCURVE",
"-20 511.046 OFFCURVE",
"-20 500 CURVE SMOOTH",
"-20 494.433 OFFCURVE",
"-17.726 489.398 OFFCURVE",
"-14.056 485.772 CURVE SMOOTH",
"63 409.644 LINE",
"63 -300 LINE SMOOTH",
"63 -311.046 OFFCURVE",
"71.954 -320 OFFCURVE",
"83 -320 CURVE SMOOTH"
);
},
{
closed = 1;
nodes = (
"142.798 20 OFFCURVE",
"111.98 73.92 OFFCURVE",
"108.396 80.913 CURVE SMOOTH",
"108.258 81.183 OFFCURVE",
"106.351 80.851 OFFCURVE",
"103 79.242 CURVE",
"103 418 LINE",
"101.559 421.45 LINE",
"104.794 419.896 LINE SMOOTH",
"106.949 418.861 OFFCURVE",
"110.438 424.18 OFFCURVE",
"118.477 433.51 CURVE SMOOTH",
"134.238 451.766 OFFCURVE",
"170.215 480 OFFCURVE",
"242 480 CURVE SMOOTH",
"352.518 480 OFFCURVE",
"415 397.907 OFFCURVE",
"415 250 CURVE SMOOTH",
"415 134.723 OFFCURVE",
"329.457 20 OFFCURVE",
"242 20 CURVE SMOOTH"
);
}
);
width = 600;
},
{
layerId = "25139FCF-725A-49A6-A058-8DCF5AC16622";
paths = (
{
closed = 0;
nodes = (
"83 -300 LINE",
"83 418 LINE",
"0 500 LINE"
);
},
{
closed = 0;
nodes = (
"90 427 LINE",
"90 427 OFFCURVE",
"123 500 OFFCURVE",
"242 500 CURVE SMOOTH",
"358 500 OFFCURVE",
"435 417 OFFCURVE",
"435 250 CURVE SMOOTH",
"435 148 OFFCURVE",
"358 0 OFFCURVE",
"242 0 CURVE SMOOTH",
"123 0 OFFCURVE",
"90 73 OFFCURVE",
"90 73 CURVE"
);
}
);
width = 600;
},
{
layerId = "1AB63056-1127-463F-B001-FB2AC81901C9";
paths = (
{
closed = 0;
nodes = (
"83 -300 LINE",
"83 418 LINE",
"0 500 LINE"
);
},
{
closed = 0;
nodes = (
"90 427 LINE",
"90 427 OFFCURVE",
"123 500 OFFCURVE",
"242 500 CURVE SMOOTH",
"358 500 OFFCURVE",
"435 417 OFFCURVE",
"435 250 CURVE SMOOTH",
"435 148 OFFCURVE",
"358 0 OFFCURVE",
"242 0 CURVE SMOOTH",
"123 0 OFFCURVE",
"90 73 OFFCURVE",
"90 73 CURVE"
);
}
);
width = 600;
},
{
associatedMasterId = "6F4F10D2-8254-4335-A627-9F8D8891324D";
layerId = "37997420-BD33-4906-8A66-129106ED1647";
name = path;
paths = (
{
closed = 0;
nodes = (
"83 -300 LINE",
"83 418 LINE",
"0 500 LINE"
);
},
{
closed = 0;
nodes = (
"90 427 LINE",
"90 427 OFFCURVE",
"123 500 OFFCURVE",
"242 500 CURVE SMOOTH",
"358 500 OFFCURVE",
"435 417 OFFCURVE",
"435 250 CURVE SMOOTH",
"435 148 OFFCURVE",
"358 0 OFFCURVE",
"242 0 CURVE SMOOTH",
"123 0 OFFCURVE",
"90 73 OFFCURVE",
"90 73 CURVE"
);
}
);
visible = 1;
width = 600;
}
);
},
{
glyphname = y.ss01;
lastChange = "2018-10-03 14:32:11 +0000";
layers = (
{
layerId = "6F4F10D2-8254-4335-A627-9F8D8891324D";
paths = (
{
closed = 1;
nodes = (
"65.588 -320 OFFCURVE",
"70.64 -317.709 OFFCURVE",
"74.269 -314.014 CURVE SMOOTH",
"75.776 -312.503 OFFCURVE",
"189.417 -198.16 OFFCURVE",
"246.626 -35.322 CURVE",
"302.133 91.927 OFFCURVE",
"426.28 479.02 OFFCURVE",
"430.912 493.477 CURVE SMOOTH",
"431.617 495.521 OFFCURVE",
"432 497.716 OFFCURVE",
"432 500 CURVE SMOOTH",
"432 511.046 OFFCURVE",
"423.046 520 OFFCURVE",
"412 520 CURVE SMOOTH",
"402.926 520 OFFCURVE",
"395.264 513.958 OFFCURVE",
"392.818 505.678 CURVE SMOOTH",
"389.274 494.618 OFFCURVE",
"317.89 272.041 OFFCURVE",
"259.626 109.855 CURVE",
"37.675 509.366 LINE SMOOTH",
"34.317 515.692 OFFCURVE",
"27.662 520 OFFCURVE",
"20 520 CURVE SMOOTH",
"8.954 520 OFFCURVE",
"0 511.046 OFFCURVE",
"0 500 CURVE SMOOTH",
"0 496.347 OFFCURVE",
"0.979 492.923 OFFCURVE",
"2.69 489.976 CURVE SMOOTH",
"241.465 60.18 LINE",
"229.546 28.236 OFFCURVE",
"218.669 0.568 OFFCURVE",
"209.677 -19.984 CURVE",
"209.123 -21.393 LINE",
"155.796 -173.758 OFFCURVE",
"50.376 -281.294 OFFCURVE",
"45.895 -285.821 CURVE SMOOTH",
"42.254 -289.443 OFFCURVE",
"40 -294.458 OFFCURVE",
"40 -300 CURVE SMOOTH",
"40 -311.046 OFFCURVE",
"48.954 -320 OFFCURVE",
"60 -320 CURVE SMOOTH"
);
}
);
width = 432;
},
{
layerId = "25139FCF-725A-49A6-A058-8DCF5AC16622";
width = 600;
},
{
layerId = "1AB63056-1127-463F-B001-FB2AC81901C9";
width = 600;
},
{
associatedMasterId = "6F4F10D2-8254-4335-A627-9F8D8891324D";
layerId = "A7227704-9A57-4696-8599-0FF80154FDF3";
name = path;
paths = (
{
closed = 0;
nodes = (
"60 -300 LINE",
"60 -300 OFFCURVE",
"172 -188 OFFCURVE",
"228 -28 CURVE",
"284 100 OFFCURVE",
"412 500 OFFCURVE",
"412 500 CURVE"
);
},
{
closed = 0;
nodes = (
"20 500 LINE",
"260 68 LINE"
);
}
);
visible = 1;
width = 432;
}
);
},
{
color = 1;
glyphname = f_f;
lastChange = "2018-10-03 15:13:11 +0000";
layers = (
{
layerId = "6F4F10D2-8254-4335-A627-9F8D8891324D";
paths = (
{
closed = 1;
nodes = (
"31.046 -20 OFFCURVE",
"40 -11.046 OFFCURVE",
"40 0 CURVE SMOOTH",
"40 400.949 LINE",
"211 400.514 LINE",
"211 0 LINE SMOOTH",
"211 -11.046 OFFCURVE",
"219.954 -20 OFFCURVE",
"231 -20 CURVE SMOOTH",
"242.046 -20 OFFCURVE",
"251 -11.046 OFFCURVE",
"251 0 CURVE SMOOTH",
"251 400.412 LINE",
"413 400 LINE SMOOTH",
"424.046 400 OFFCURVE",
"433 408.954 OFFCURVE",
"433 420 CURVE SMOOTH",
"433 431.029 OFFCURVE",
"424.073 439.972 OFFCURVE",
"413.051 440 CURVE SMOOTH",
"251 440.412 LINE",
"251 524 LINE SMOOTH",
"251 597.291 OFFCURVE",
"248.591 680 OFFCURVE",
"336 680 CURVE SMOOTH",
"377.064 680 OFFCURVE",
"406.614 670.161 OFFCURVE",
"428.157 649.565 CURVE SMOOTH",
"431.75 646.118 OFFCURVE",
"436.628 644 OFFCURVE",
"442 644 CURVE SMOOTH",
"453.046 644 OFFCURVE",
"462 652.954 OFFCURVE",
"462 664 CURVE SMOOTH",
"462 669.741 OFFCURVE",
"459.581 674.917 OFFCURVE",
"455.706 678.565 CURVE SMOOTH",
"427.315 705.652 OFFCURVE",
"385.69 720 OFFCURVE",
"336 720 CURVE SMOOTH",
"289.987 720 OFFCURVE",
"260.898 704.214 OFFCURVE",
"242.513 680.607 CURVE",
"214.191 706.373 OFFCURVE",
"173.425 720 OFFCURVE",
"125 720 CURVE SMOOTH",
"-3.591 720 OFFCURVE",
"0 596.709 OFFCURVE",
"0 524 CURVE SMOOTH",
"0 0 LINE SMOOTH",
"0 -11.046 OFFCURVE",
"8.954 -20 OFFCURVE",
"20 -20 CURVE SMOOTH"
);
},
{
closed = 1;
nodes = (
"40 440.949 LINE",
"40 524 LINE SMOOTH",
"40 597.291 OFFCURVE",
"37.591 680 OFFCURVE",
"125 680 CURVE SMOOTH",
"166.064 680 OFFCURVE",
"195.614 670.161 OFFCURVE",
"217.157 649.565 CURVE SMOOTH",
"219.063 647.737 OFFCURVE",
"221.33 646.283 OFFCURVE",
"223.84 645.32 CURVE",
"210.16 606.162 OFFCURVE",
"211 559.165 OFFCURVE",
"211 524 CURVE SMOOTH",
"211 440.514 LINE"
);
}
);
width = 462;
},
{
layerId = "25139FCF-725A-49A6-A058-8DCF5AC16622";
paths = (
{
closed = 0;
nodes = (
"20 0 LINE",
"20 0 OFFCURVE",
"20 279 OFFCURVE",
"20 421 CURVE SMOOTH",
"20 524 LINE SMOOTH",
"20 597 OFFCURVE",
"17 700 OFFCURVE",
"125 700 CURVE SMOOTH",
"174 700 OFFCURVE",
"208 686 OFFCURVE",
"231 664 CURVE"
);
},
{
closed = 0;
nodes = (
"413 420 LINE",
"20 421 LINE"
);
},
{
closed = 0;
nodes = (
"231 0 LINE",
"231 0 OFFCURVE",
"231 279 OFFCURVE",
"231 421 CURVE SMOOTH",
"231 524 LINE SMOOTH",
"231 597 OFFCURVE",
"228 700 OFFCURVE",
"336 700 CURVE SMOOTH",
"385 700 OFFCURVE",
"419 686 OFFCURVE",
"442 664 CURVE"
);
}
);
width = 462;
},
{
layerId = "1AB63056-1127-463F-B001-FB2AC81901C9";
paths = (
{
closed = 0;
nodes = (
"20 0 LINE",
"20 0 OFFCURVE",
"20 279 OFFCURVE",
"20 421 CURVE SMOOTH",
"20 524 LINE SMOOTH",
"20 597 OFFCURVE",
"17 700 OFFCURVE",
"125 700 CURVE SMOOTH",
"174 700 OFFCURVE",
"208 686 OFFCURVE",
"231 664 CURVE"
);
},
{
closed = 0;
nodes = (
"413 420 LINE",
"20 421 LINE"
);
},
{
closed = 0;
nodes = (
"231 0 LINE",
"231 0 OFFCURVE",
"231 279 OFFCURVE",
"231 421 CURVE SMOOTH",
"231 524 LINE SMOOTH",
"231 597 OFFCURVE",
"228 700 OFFCURVE",
"336 700 CURVE SMOOTH",
"385 700 OFFCURVE",
"419 686 OFFCURVE",
"442 664 CURVE"
);
}
);
width = 462;
},
{
associatedMasterId = "6F4F10D2-8254-4335-A627-9F8D8891324D";
layerId = "1D421E11-ADC2-499B-9EE7-6383B58B7CCE";
name = path;
paths = (
{
closed = 0;
nodes = (
"20 0 LINE",
"20 0 OFFCURVE",
"20 279 OFFCURVE",
"20 421 CURVE SMOOTH",
"20 524 LINE SMOOTH",
"20 597 OFFCURVE",
"17 700 OFFCURVE",
"125 700 CURVE SMOOTH",
"174 700 OFFCURVE",
"208 686 OFFCURVE",
"231 664 CURVE"
);
},
{
closed = 0;
nodes = (
"413 420 LINE",
"20 421 LINE"
);
},
{
closed = 0;
nodes = (
"231 0 LINE",
"231 0 OFFCURVE",
"231 279 OFFCURVE",
"231 421 CURVE SMOOTH",
"231 524 LINE SMOOTH",
"231 597 OFFCURVE",
"228 700 OFFCURVE",
"336 700 CURVE SMOOTH",
"385 700 OFFCURVE",
"419 686 OFFCURVE",
"442 664 CURVE"
);
}
);
visible = 1;
width = 462;
}
);
},
{
color = 1;
glyphname = f_f_l;
lastChange = "2018-10-03 15:13:11 +0000";
layers = (
{
layerId = "6F4F10D2-8254-4335-A627-9F8D8891324D";
paths = (
{
closed = 1;
nodes = (
"31.046 -20 OFFCURVE",
"40 -11.046 OFFCURVE",
"40 0 CURVE SMOOTH",
"40 400.936 LINE",
"211 400.395 LINE",
"211 0 LINE SMOOTH",
"211 -11.046 OFFCURVE",
"219.954 -20 OFFCURVE",
"231 -20 CURVE SMOOTH",
"242.046 -20 OFFCURVE",
"251 -11.046 OFFCURVE",
"251 0 CURVE SMOOTH",
"251 400.269 LINE",
"336 400 LINE SMOOTH",
"347.046 400 OFFCURVE",
"356 408.954 OFFCURVE",
"356 420 CURVE SMOOTH",
"356 431.025 OFFCURVE",
"347.08 439.966 OFFCURVE",
"336.063 440 CURVE SMOOTH",
"251 440.269 LINE",
"251 524 LINE SMOOTH",
"251 597.291 OFFCURVE",
"248.591 680 OFFCURVE",
"336 680 CURVE SMOOTH",
"373.283 680 OFFCURVE",
"401.075 671.889 OFFCURVE",
"422 654.981 CURVE",
"422 0 LINE SMOOTH",
"422 -11.046 OFFCURVE",
"430.954 -20 OFFCURVE",
"442 -20 CURVE SMOOTH",
"453.046 -20 OFFCURVE",
"462 -11.046 OFFCURVE",
"462 0 CURVE SMOOTH",
"462 651.176 LINE SMOOTH",
"462 660.543 OFFCURVE",
"461.168 665.948 OFFCURVE",
"458.912 671.226 CURVE SMOOTH",
"456.659 676.5 OFFCURVE",
"453.503 680.934 OFFCURVE",
"446.135 686.829 CURVE SMOOTH",
"418.306 708.561 OFFCURVE",
"380.367 720 OFFCURVE",
"336 720 CURVE SMOOTH",
"289.987 720 OFFCURVE",
"260.898 704.214 OFFCURVE",
"242.513 680.607 CURVE",
"214.191 706.373 OFFCURVE",
"173.425 720 OFFCURVE",
"125 720 CURVE SMOOTH",
"-3.591 720 OFFCURVE",
"0 596.709 OFFCURVE",
"0 524 CURVE SMOOTH",
"0 0 LINE SMOOTH",
"0 -11.046 OFFCURVE",
"8.954 -20 OFFCURVE",
"20 -20 CURVE SMOOTH"
);
},
{
closed = 1;
nodes = (
"40 440.937 LINE",
"40 524 LINE SMOOTH",
"40 597.291 OFFCURVE",
"37.591 680 OFFCURVE",
"125 680 CURVE SMOOTH",
"166.064 680 OFFCURVE",
"195.614 670.161 OFFCURVE",
"217.157 649.565 CURVE SMOOTH",
"219.063 647.737 OFFCURVE",
"221.33 646.283 OFFCURVE",
"223.84 645.32 CURVE",
"210.16 606.162 OFFCURVE",
"211 559.165 OFFCURVE",
"211 524 CURVE SMOOTH",
"211 440.396 LINE"
);
}
);
width = 462;
},
{
layerId = "25139FCF-725A-49A6-A058-8DCF5AC16622";
paths = (
{
closed = 0;
nodes = (
"20 0 LINE",
"20 0 OFFCURVE",
"20 279 OFFCURVE",
"20 421 CURVE SMOOTH",
"20 524 LINE SMOOTH",
"20 597 OFFCURVE",
"17 700 OFFCURVE",
"125 700 CURVE SMOOTH",
"174 700 OFFCURVE",
"208 686 OFFCURVE",
"231 664 CURVE"
);
},
{
closed = 0;
nodes = (
"336 420 LINE",
"20 421 LINE"
);
},
{
closed = 0;
nodes = (
"231 0 LINE",
"231 0 OFFCURVE",
"231 279 OFFCURVE",
"231 421 CURVE SMOOTH",
"231 524 LINE SMOOTH",
"231 597 OFFCURVE",
"228 700 OFFCURVE",
"336 700 CURVE SMOOTH",
"385 700 OFFCURVE",
"419 686 OFFCURVE",
"442 664 CURVE",
"442 0 LINE"
);
}
);
width = 462;
},
{
layerId = "1AB63056-1127-463F-B001-FB2AC81901C9";
paths = (
{
closed = 0;
nodes = (
"20 0 LINE",
"20 0 OFFCURVE",
"20 279 OFFCURVE",
"20 421 CURVE SMOOTH",
"20 524 LINE SMOOTH",
"20 597 OFFCURVE",
"17 700 OFFCURVE",
"125 700 CURVE SMOOTH",
"174 700 OFFCURVE",
"208 686 OFFCURVE",
"231 664 CURVE"
);
},
{
closed = 0;
nodes = (
"336 420 LINE",
"20 421 LINE"
);
},
{
closed = 0;
nodes = (
"231 0 LINE",
"231 0 OFFCURVE",
"231 279 OFFCURVE",
"231 421 CURVE SMOOTH",
"231 524 LINE SMOOTH",
"231 597 OFFCURVE",
"228 700 OFFCURVE",
"336 700 CURVE SMOOTH",
"385 700 OFFCURVE",
"419 686 OFFCURVE",
"442 664 CURVE",
"442 0 LINE"
);
}
);
width = 462;
},
{
associatedMasterId = "6F4F10D2-8254-4335-A627-9F8D8891324D";
layerId = "80B668BE-1256-4BD9-9C1E-482ADA27B112";
name = path;
paths = (
{
closed = 0;
nodes = (
"20 0 LINE",
"20 0 OFFCURVE",
"20 279 OFFCURVE",
"20 421 CURVE SMOOTH",
"20 524 LINE SMOOTH",
"20 597 OFFCURVE",
"17 700 OFFCURVE",
"125 700 CURVE SMOOTH",
"174 700 OFFCURVE",
"208 686 OFFCURVE",
"231 664 CURVE"
);
},
{
closed = 0;
nodes = (
"336 420 LINE",
"20 421 LINE"
);
},
{
closed = 0;
nodes = (
"231 0 LINE",
"231 0 OFFCURVE",
"231 279 OFFCURVE",
"231 421 CURVE SMOOTH",
"231 524 LINE SMOOTH",
"231 597 OFFCURVE",
"228 700 OFFCURVE",
"336 700 CURVE SMOOTH",
"385 700 OFFCURVE",
"419 686 OFFCURVE",
"442 664 CURVE",
"442 0 LINE"
);
}
);
visible = 1;
width = 462;
}
);
},
{
color = 1;
glyphname = f_t;
lastChange = "2018-10-03 15:13:11 +0000";
layers = (
{
layerId = "6F4F10D2-8254-4335-A627-9F8D8891324D";
paths = (
{
closed = 1;
nodes = (
"31.046 -20 OFFCURVE",
"40 -11.046 OFFCURVE",
"40 0 CURVE SMOOTH",
"40 401.052 LINE",
"211 401.495 LINE",
"211 176 LINE SMOOTH",
"211 103.388 OFFCURVE",
"206.208 -20 OFFCURVE",
"336 -20 CURVE SMOOTH",
"385.691 -20 OFFCURVE",
"427.317 -5.652 OFFCURVE",
"455.708 21.437 CURVE SMOOTH",
"459.582 25.085 OFFCURVE",
"462 30.26 OFFCURVE",
"462 36 CURVE SMOOTH",
"462 47.046 OFFCURVE",
"453.046 56 OFFCURVE",
"442 56 CURVE SMOOTH",
"436.627 56 OFFCURVE",
"431.749 53.881 OFFCURVE",
"428.156 50.434 CURVE SMOOTH",
"406.613 29.839 OFFCURVE",
"377.063 20 OFFCURVE",
"336 20 CURVE SMOOTH",
"247.792 20 OFFCURVE",
"251 102.612 OFFCURVE",
"251 176 CURVE SMOOTH",
"251 401.598 LINE",
"406.052 402 LINE SMOOTH",
"417.074 402.028 OFFCURVE",
"426 410.971 OFFCURVE",
"426 422 CURVE SMOOTH",
"426 433.046 OFFCURVE",
"417.046 442 OFFCURVE",
"406 442 CURVE SMOOTH",
"251 441.599 LINE",
"251 651.176 LINE SMOOTH",
"251 660.543 OFFCURVE",
"250.168 665.948 OFFCURVE",
"247.912 671.226 CURVE SMOOTH",
"245.659 676.5 OFFCURVE",
"242.503 680.934 OFFCURVE",
"235.135 686.829 CURVE SMOOTH",
"207.306 708.561 OFFCURVE",
"169.367 720 OFFCURVE",
"125 720 CURVE SMOOTH",
"-3.591 720 OFFCURVE",
"0 596.709 OFFCURVE",
"0 524 CURVE SMOOTH",
"0 0 LINE SMOOTH",
"0 -11.046 OFFCURVE",
"8.954 -20 OFFCURVE",
"20 -20 CURVE SMOOTH"
);
},
{
closed = 1;
nodes = (
"40 524 LINE SMOOTH",
"40 597.291 OFFCURVE",
"37.591 680 OFFCURVE",
"125 680 CURVE SMOOTH",
"162.283 680 OFFCURVE",
"190.075 671.889 OFFCURVE",
"211 654.981 CURVE",
"211 441.495 LINE",
"40 441.052 LINE"
);
}
);
width = 462;
},
{
layerId = "25139FCF-725A-49A6-A058-8DCF5AC16622";
paths = (
{
closed = 0;
nodes = (
"406 422 LINE",
"20 421 LINE"
);
},
{
closed = 0;
nodes = (
"20 0 LINE",
"20 0 OFFCURVE",
"20 279 OFFCURVE",
"20 421 CURVE",
"20 524 LINE",
"20 597 OFFCURVE",
"17 700 OFFCURVE",
"125 700 CURVE",
"174 700 OFFCURVE",
"208 686 OFFCURVE",
"231 664 CURVE SMOOTH",
"231 664 OFFCURVE",
"231 421 OFFCURVE",
"231 279 CURVE",
"231 176 LINE",
"231 103 OFFCURVE",
"227 0 OFFCURVE",
"336 0 CURVE",
"385 0 OFFCURVE",
"419 14 OFFCURVE",
"442 36 CURVE SMOOTH"
);
}
);
width = 462;
},
{
layerId = "1AB63056-1127-463F-B001-FB2AC81901C9";
paths = (
{
closed = 0;
nodes = (
"406 422 LINE",
"20 421 LINE"
);
},
{
closed = 0;
nodes = (
"20 0 LINE",
"20 0 OFFCURVE",
"20 279 OFFCURVE",
"20 421 CURVE",
"20 524 LINE",
"20 597 OFFCURVE",
"17 700 OFFCURVE",
"125 700 CURVE",
"174 700 OFFCURVE",
"208 686 OFFCURVE",
"231 664 CURVE SMOOTH",
"231 664 OFFCURVE",
"231 421 OFFCURVE",
"231 279 CURVE",
"231 176 LINE",
"231 103 OFFCURVE",
"227 0 OFFCURVE",
"336 0 CURVE",
"385 0 OFFCURVE",
"419 14 OFFCURVE",
"442 36 CURVE SMOOTH"
);
}
);
width = 462;
},
{
associatedMasterId = "6F4F10D2-8254-4335-A627-9F8D8891324D";
layerId = "B6EC5363-0CFD-4271-ACC8-B967402AD500";
name = path;
paths = (
{
closed = 0;
nodes = (
"406 422 LINE",
"20 421 LINE"
);
},
{
closed = 0;
nodes = (
"20 0 LINE",
"20 0 OFFCURVE",
"20 279 OFFCURVE",
"20 421 CURVE",
"20 524 LINE",
"20 597 OFFCURVE",
"17 700 OFFCURVE",
"125 700 CURVE",
"174 700 OFFCURVE",
"208 686 OFFCURVE",
"231 664 CURVE SMOOTH",
"231 664 OFFCURVE",
"231 421 OFFCURVE",
"231 279 CURVE",
"231 176 LINE",
"231 103 OFFCURVE",
"227 0 OFFCURVE",
"336 0 CURVE",
"385 0 OFFCURVE",
"419 14 OFFCURVE",
"442 36 CURVE SMOOTH"
);
}
);
visible = 1;
width = 462;
}
);
},
{
glyphname = zero;
lastChange = "2018-10-03 14:33:14 +0000";
layers = (
{
layerId = "6F4F10D2-8254-4335-A627-9F8D8891324D";
paths = (
{
closed = 1;
nodes = (
"494.051 -20 OFFCURVE",
"534 229.408 OFFCURVE",
"534 350 CURVE SMOOTH",
"534 587.71 OFFCURVE",
"440.44 720 OFFCURVE",
"267 720 CURVE SMOOTH",
"20.81 720 OFFCURVE",
"0 500.948 OFFCURVE",
"0 350 CURVE SMOOTH",
"0 108.822 OFFCURVE",
"89.953 -20 OFFCURVE",
"267 -20 CURVE SMOOTH"
);
},
{
closed = 1;
nodes = (
"114.091 20 OFFCURVE",
"40 131.147 OFFCURVE",
"40 350 CURVE SMOOTH",
"40 499.052 OFFCURVE",
"57.19 680 OFFCURVE",
"267 680 CURVE SMOOTH",
"416.274 680 OFFCURVE",
"494 566.285 OFFCURVE",
"494 350 CURVE SMOOTH",
"494 232.592 OFFCURVE",
"459.949 20 OFFCURVE",
"267 20 CURVE SMOOTH"
);
}
);
width = 534;
},
{
layerId = "25139FCF-725A-49A6-A058-8DCF5AC16622";
paths = (
{
closed = 1;
nodes = (
"514 231 OFFCURVE",
"477 0 OFFCURVE",
"267 0 CURVE SMOOTH",
"39 0 OFFCURVE",
"20 231 OFFCURVE",
"20 350 CURVE SMOOTH",
"20 500 OFFCURVE",
"39 700 OFFCURVE",
"267 700 CURVE SMOOTH",
"477 700 OFFCURVE",
"514 496 OFFCURVE",
"514 350 CURVE SMOOTH"
);
}
);
width = 534;
},
{
layerId = "1AB63056-1127-463F-B001-FB2AC81901C9";
paths = (
{
closed = 1;
nodes = (
"514 231 OFFCURVE",
"477 0 OFFCURVE",
"267 0 CURVE SMOOTH",
"39 0 OFFCURVE",
"20 231 OFFCURVE",
"20 350 CURVE SMOOTH",
"20 500 OFFCURVE",
"39 700 OFFCURVE",
"267 700 CURVE SMOOTH",
"477 700 OFFCURVE",
"514 496 OFFCURVE",
"514 350 CURVE SMOOTH"
);
}
);
width = 534;
},
{
associatedMasterId = "6F4F10D2-8254-4335-A627-9F8D8891324D";
layerId = "6A46793A-FE78-43D2-906B-0BD7B2A4E6D8";
name = path;
paths = (
{
closed = 1;
nodes = (
"514 231 OFFCURVE",
"477 0 OFFCURVE",
"267 0 CURVE SMOOTH",
"39 0 OFFCURVE",
"20 231 OFFCURVE",
"20 350 CURVE SMOOTH",
"20 500 OFFCURVE",
"39 700 OFFCURVE",
"267 700 CURVE SMOOTH",
"477 700 OFFCURVE",
"514 496 OFFCURVE",
"514 350 CURVE SMOOTH"
);
}
);
visible = 1;
width = 534;
}
);
unicode = 0030;
},
{
glyphname = one;
lastChange = "2018-10-03 14:33:33 +0000";
layers = (
{
layerId = "6F4F10D2-8254-4335-A627-9F8D8891324D";
paths = (
{
closed = 1;
nodes = (
"172.046 -20 OFFCURVE",
"181 -11.046 OFFCURVE",
"181 0 CURVE SMOOTH",
"181 683.808 LINE SMOOTH",
"181 694.994 OFFCURVE",
"176.547 702.288 OFFCURVE",
"166.597 707.399 CURVE SMOOTH",
"163.755 708.86 LINE SMOOTH",
"153.806 713.971 OFFCURVE",
"145.283 713.344 OFFCURVE",
"136.19 706.83 CURVE SMOOTH",
"8.542 615.394 LINE SMOOTH",
"3.377 611.778 OFFCURVE",
"0 605.784 OFFCURVE",
"0 599 CURVE SMOOTH",
"0 587.954 OFFCURVE",
"8.954 579 OFFCURVE",
"20 579 CURVE SMOOTH",
"24.42 579 OFFCURVE",
"28.504 580.434 OFFCURVE",
"31.815 582.861 CURVE SMOOTH",
"141 661.072 LINE",
"141 0 LINE SMOOTH",
"141 -11.046 OFFCURVE",
"149.954 -20 OFFCURVE",
"161 -20 CURVE SMOOTH"
);
}
);
width = 181;
},
{
layerId = "25139FCF-725A-49A6-A058-8DCF5AC16622";
paths = (
{
closed = 0;
nodes = (
"161 0 LINE",
"161 700 LINE",
"20 599 LINE"
);
}
);
width = 181;
},
{
layerId = "1AB63056-1127-463F-B001-FB2AC81901C9";
paths = (
{
closed = 0;
nodes = (
"161 0 LINE",
"161 700 LINE",
"20 599 LINE"
);
}
);
width = 181;
},
{
associatedMasterId = "6F4F10D2-8254-4335-A627-9F8D8891324D";
layerId = "42DAE4EA-5DB5-4E18-AB0D-086BC37373E3";
name = path;
paths = (
{
closed = 0;
nodes = (
"161 0 LINE",
"161 700 LINE",
"20 599 LINE"
);
}
);
visible = 1;
width = 181;
}
);
unicode = 0031;
},
{
glyphname = two;
lastChange = "2018-10-03 14:33:41 +0000";
layers = (
{
layerId = "6F4F10D2-8254-4335-A627-9F8D8891324D";
paths = (
{
closed = 1;
nodes = (
"374 -20 LINE SMOOTH",
"385.046 -20 OFFCURVE",
"394 -11.046 OFFCURVE",
"394 0 CURVE SMOOTH",
"394 11.046 OFFCURVE",
"385.046 20 OFFCURVE",
"374 20 CURVE SMOOTH",
"64.856 20 LINE",
"102.749 72.842 OFFCURVE",
"180.829 180.75 OFFCURVE",
"239.721 255.637 CURVE SMOOTH",
"245.183 262.527 OFFCURVE",
"250.664 269.362 OFFCURVE",
"256.115 276.16 CURVE SMOOTH",
"314.567 349.054 OFFCURVE",
"370 418.185 OFFCURVE",
"370 524 CURVE SMOOTH",
"370 634.181 OFFCURVE",
"295.445 720 OFFCURVE",
"196 720 CURVE SMOOTH",
"43.066 720 OFFCURVE",
"16.174 640.762 OFFCURVE",
"1.127 594.634 CURVE SMOOTH",
"0.397 592.558 OFFCURVE",
"0 590.325 OFFCURVE",
"0 588 CURVE SMOOTH",
"0 576.954 OFFCURVE",
"8.954 568 OFFCURVE",
"20 568 CURVE SMOOTH",
"29.034 568 OFFCURVE",
"36.668 573.989 OFFCURVE",
"39.15 582.213 CURVE SMOOTH",
"54.099 628.05 OFFCURVE",
"71.788 680 OFFCURVE",
"196 680 CURVE SMOOTH",
"272.799 680 OFFCURVE",
"330 612.249 OFFCURVE",
"330 524 CURVE SMOOTH",
"330 432.241 OFFCURVE",
"283.36 374.078 OFFCURVE",
"224.909 301.184 CURVE SMOOTH",
"219.458 294.385 OFFCURVE",
"213.907 287.463 OFFCURVE",
"208.327 280.424 CURVE SMOOTH",
"140.798 194.554 OFFCURVE",
"48.517 66.006 OFFCURVE",
"19.102 24.793 CURVE SMOOTH",
"12.59 15.667 OFFCURVE",
"11.988 7.133 OFFCURVE",
"17.119 -2.803 CURVE SMOOTH",
"18.576 -5.625 LINE SMOOTH",
"23.706 -15.558 OFFCURVE",
"31 -20 OFFCURVE",
"42.179 -20 CURVE SMOOTH"
);
}
);
width = 394;
},
{
layerId = "25139FCF-725A-49A6-A058-8DCF5AC16622";
paths = (
{
closed = 0;
nodes = (
"374 0 LINE",
"26 0 LINE SMOOTH",
"26 0 OFFCURVE",
"143 165 OFFCURVE",
"224 268 CURVE SMOOTH",
"289 350 OFFCURVE",
"350 416 OFFCURVE",
"350 524 CURVE SMOOTH",
"350 602 OFFCURVE",
"301 700 OFFCURVE",
"196 700 CURVE SMOOTH",
"57 700 OFFCURVE",
"35 634 OFFCURVE",
"20 588 CURVE"
);
}
);
width = 394;
},
{
layerId = "1AB63056-1127-463F-B001-FB2AC81901C9";
paths = (
{
closed = 0;
nodes = (
"374 0 LINE",
"26 0 LINE SMOOTH",
"26 0 OFFCURVE",
"143 165 OFFCURVE",
"224 268 CURVE SMOOTH",
"289 350 OFFCURVE",
"350 416 OFFCURVE",
"350 524 CURVE SMOOTH",
"350 602 OFFCURVE",
"301 700 OFFCURVE",
"196 700 CURVE SMOOTH",
"57 700 OFFCURVE",
"35 634 OFFCURVE",
"20 588 CURVE"
);
}
);
width = 394;
},
{
associatedMasterId = "6F4F10D2-8254-4335-A627-9F8D8891324D";
layerId = "A705154E-8D13-463A-B8D5-E5B9DE301722";
name = path;
paths = (
{
closed = 0;
nodes = (
"374 0 LINE",
"26 0 LINE SMOOTH",
"26 0 OFFCURVE",
"143 165 OFFCURVE",
"224 268 CURVE SMOOTH",
"289 350 OFFCURVE",
"350 416 OFFCURVE",
"350 524 CURVE SMOOTH",
"350 602 OFFCURVE",
"301 700 OFFCURVE",
"196 700 CURVE SMOOTH",
"57 700 OFFCURVE",
"35 634 OFFCURVE",
"20 588 CURVE"
);
}
);
visible = 1;
width = 394;
}
);
unicode = 0032;
},
{
glyphname = three;
lastChange = "2018-10-03 14:33:49 +0000";
layers = (
{
layerId = "6F4F10D2-8254-4335-A627-9F8D8891324D";
paths = (
{
closed = 1;
nodes = (
"352.968 -20 OFFCURVE",
"457 64.564 OFFCURVE",
"457 169 CURVE SMOOTH",
"457 254.333 OFFCURVE",
"410.156 321.154 OFFCURVE",
"335.091 353.21 CURVE",
"410.764 383.34 OFFCURVE",
"457 447.046 OFFCURVE",
"457 531 CURVE SMOOTH",
"457 635.436 OFFCURVE",
"352.968 720 OFFCURVE",
"229 720 CURVE SMOOTH",
"16.181 720 OFFCURVE",
"0.609 601.406 OFFCURVE",
"0.195 597.804 CURVE SMOOTH",
"0.067 596.888 OFFCURVE",
"0 595.952 OFFCURVE",
"0 595 CURVE SMOOTH",
"0 583.954 OFFCURVE",
"8.954 575 OFFCURVE",
"20 575 CURVE SMOOTH",
"30.237 575 OFFCURVE",
"38.676 582.69 OFFCURVE",
"39.858 592.609 CURVE SMOOTH",
"40.707 598.443 OFFCURVE",
"55.55 680 OFFCURVE",
"229 680 CURVE SMOOTH",
"331.431 680 OFFCURVE",
"417 612.231 OFFCURVE",
"417 531 CURVE SMOOTH",
"417 441.092 OFFCURVE",
"352.105 381.289 OFFCURVE",
"246.98 374.622 CURVE SMOOTH",
"233.946 373.795 OFFCURVE",
"227 367.175 OFFCURVE",
"227 354.316 CURVE SMOOTH",
"227 353.643 LINE SMOOTH",
"227 340.803 OFFCURVE",
"233.903 334.227 OFFCURVE",
"246.868 333.303 CURVE SMOOTH",
"349.554 325.981 OFFCURVE",
"417 261.603 OFFCURVE",
"417 169 CURVE SMOOTH",
"417 87.769 OFFCURVE",
"331.431 20 OFFCURVE",
"229 20 CURVE SMOOTH",
"55.55 20 OFFCURVE",
"40.708 101.556 OFFCURVE",
"39.858 107.391 CURVE SMOOTH",
"38.676 117.31 OFFCURVE",
"30.237 125 OFFCURVE",
"20 125 CURVE SMOOTH",
"8.954 125 OFFCURVE",
"0 116.046 OFFCURVE",
"0 105 CURVE SMOOTH",
"0 104.048 OFFCURVE",
"0.067 103.112 OFFCURVE",
"0.195 102.196 CURVE SMOOTH",
"0.609 98.595 OFFCURVE",
"16.179 -20 OFFCURVE",
"229 -20 CURVE SMOOTH"
);
}
);
width = 457;
},
{
layerId = "25139FCF-725A-49A6-A058-8DCF5AC16622";
paths = (
{
closed = 0;
nodes = (
"20 105 LINE",
"20 105 OFFCURVE",
"31 0 OFFCURVE",
"229 0 CURVE SMOOTH",
"332 0 OFFCURVE",
"437 68 OFFCURVE",
"437 169 CURVE SMOOTH",
"437 272 OFFCURVE",
"359 354 OFFCURVE",
"227 354 CURVE",
"359 354 OFFCURVE",
"437 428 OFFCURVE",
"437 531 CURVE SMOOTH",
"437 632 OFFCURVE",
"332 700 OFFCURVE",
"229 700 CURVE SMOOTH",
"31 700 OFFCURVE",
"20 595 OFFCURVE",
"20 595 CURVE"
);
}
);
width = 457;
},
{
layerId = "1AB63056-1127-463F-B001-FB2AC81901C9";
paths = (
{
closed = 0;
nodes = (
"20 105 LINE",
"20 105 OFFCURVE",
"31 0 OFFCURVE",
"229 0 CURVE SMOOTH",
"332 0 OFFCURVE",
"437 68 OFFCURVE",
"437 169 CURVE SMOOTH",
"437 272 OFFCURVE",
"359 354 OFFCURVE",
"227 354 CURVE",
"359 354 OFFCURVE",
"437 428 OFFCURVE",
"437 531 CURVE SMOOTH",
"437 632 OFFCURVE",
"332 700 OFFCURVE",
"229 700 CURVE SMOOTH",
"31 700 OFFCURVE",
"20 595 OFFCURVE",
"20 595 CURVE"
);
}
);
width = 457;
},
{
associatedMasterId = "6F4F10D2-8254-4335-A627-9F8D8891324D";
layerId = "CA756AD3-CEBD-4446-A96C-CAF0C8355ADC";
name = path;
paths = (
{
closed = 0;
nodes = (
"20 105 LINE",
"20 105 OFFCURVE",
"31 0 OFFCURVE",
"229 0 CURVE SMOOTH",
"332 0 OFFCURVE",
"437 68 OFFCURVE",
"437 169 CURVE SMOOTH",
"437 272 OFFCURVE",
"359 354 OFFCURVE",
"227 354 CURVE",
"359 354 OFFCURVE",
"437 428 OFFCURVE",
"437 531 CURVE SMOOTH",
"437 632 OFFCURVE",
"332 700 OFFCURVE",
"229 700 CURVE SMOOTH",
"31 700 OFFCURVE",
"20 595 OFFCURVE",
"20 595 CURVE"
);
}
);
visible = 1;
width = 457;
}
);
unicode = 0033;
},
{
glyphname = four;
lastChange = "2018-10-03 14:33:58 +0000";
layers = (
{
layerId = "6F4F10D2-8254-4335-A627-9F8D8891324D";
paths = (
{
closed = 1;
nodes = (
"363.046 -20 OFFCURVE",
"372 -11.046 OFFCURVE",
"372 0 CURVE SMOOTH",
"372 166 LINE",
"514 166 LINE SMOOTH",
"525.046 166 OFFCURVE",
"534 174.954 OFFCURVE",
"534 186 CURVE SMOOTH",
"534 197.046 OFFCURVE",
"525.046 206 OFFCURVE",
"514 206 CURVE SMOOTH",
"372 206 LINE",
"372 682.511 LINE SMOOTH",
"372 694.343 OFFCURVE",
"366.574 701.6 OFFCURVE",
"355.225 704.946 CURVE SMOOTH",
"351.975 705.905 LINE SMOOTH",
"340.626 709.251 OFFCURVE",
"332.13 706.099 OFFCURVE",
"325.711 696.16 CURVE SMOOTH",
"11.904 210.326 LINE SMOOTH",
"5.876 200.994 OFFCURVE",
"5.559 192.519 OFFCURVE",
"10.872 182.763 CURVE SMOOTH",
"12.328 180.088 LINE SMOOTH",
"17.641 170.332 OFFCURVE",
"24.932 166 OFFCURVE",
"36.041 166 CURVE SMOOTH",
"332 166 LINE",
"332 0 LINE SMOOTH",
"332 -11.046 OFFCURVE",
"340.954 -20 OFFCURVE",
"352 -20 CURVE SMOOTH"
);
},
{
closed = 1;
nodes = (
"332 632.176 LINE",
"332 206 LINE",
"56.727 206 LINE"
);
}
);
width = 534;
},
{
layerId = "25139FCF-725A-49A6-A058-8DCF5AC16622";
paths = (
{
closed = 0;
nodes = (
"352 0 LINE",
"352 700 LINE",
"20 186 LINE",
"514 186 LINE"
);
}
);
width = 534;
},
{
layerId = "1AB63056-1127-463F-B001-FB2AC81901C9";
paths = (
{
closed = 0;
nodes = (
"352 0 LINE",
"352 700 LINE",
"20 186 LINE",
"514 186 LINE"
);
}
);
width = 534;
},
{
associatedMasterId = "6F4F10D2-8254-4335-A627-9F8D8891324D";
layerId = "60AB2E47-AD76-40EA-89C8-CE537952BB31";
name = path;
paths = (
{
closed = 0;
nodes = (
"352 0 LINE",
"352 700 LINE",
"20 186 LINE",
"514 186 LINE"
);
}
);
visible = 1;
width = 534;
}
);
unicode = 0034;
},
{
glyphname = five;
lastChange = "2018-10-03 14:34:05 +0000";
layers = (
{
layerId = "6F4F10D2-8254-4335-A627-9F8D8891324D";
paths = (
{
closed = 1;
nodes = (
"352.867 -20 OFFCURVE",
"460 94.694 OFFCURVE",
"460 245 CURVE SMOOTH",
"460 401.663 OFFCURVE",
"372.484 520 OFFCURVE",
"252 520 CURVE SMOOTH",
"155.016 520 OFFCURVE",
"80.23 483.848 OFFCURVE",
"40 458.751 CURVE",
"40 680 LINE",
"440 680 LINE SMOOTH",
"451.046 680 OFFCURVE",
"460 688.954 OFFCURVE",
"460 700 CURVE SMOOTH",
"460 711.046 OFFCURVE",
"451.046 720 OFFCURVE",
"440 720 CURVE SMOOTH",
"34.46 720 LINE SMOOTH",
"24.183 720 OFFCURVE",
"17.107 717.107 OFFCURVE",
"10 710 CURVE SMOOTH",
"2.893 702.893 OFFCURVE",
"0 695.817 OFFCURVE",
"0 685.54 CURVE SMOOTH",
"0 436.471 LINE SMOOTH",
"0 425.144 OFFCURVE",
"4.673 417.849 OFFCURVE",
"14.963 413.113 CURVE SMOOTH",
"18.301 411.577 LINE SMOOTH",
"28.462 406.901 OFFCURVE",
"36.731 408.188 OFFCURVE",
"45.846 414.712 CURVE SMOOTH",
"74.407 435.128 OFFCURVE",
"148.903 480 OFFCURVE",
"252 480 CURVE SMOOTH",
"348.924 480 OFFCURVE",
"420 379.651 OFFCURVE",
"420 245 CURVE SMOOTH",
"420 116.746 OFFCURVE",
"330.491 20 OFFCURVE",
"209 20 CURVE SMOOTH",
"73.634 20 OFFCURVE",
"41.559 103.908 OFFCURVE",
"39.096 110.964 CURVE SMOOTH",
"36.558 119.097 OFFCURVE",
"28.969 125 OFFCURVE",
"20 125 CURVE SMOOTH",
"8.954 125 OFFCURVE",
"0 116.046 OFFCURVE",
"0 105 CURVE SMOOTH",
"0 102.65 OFFCURVE",
"0.405 100.396 OFFCURVE",
"1.15 98.301 CURVE SMOOTH",
"3.203 92.148 OFFCURVE",
"42.991 -20 OFFCURVE",
"209 -20 CURVE SMOOTH"
);
}
);
width = 460;
},
{
layerId = "25139FCF-725A-49A6-A058-8DCF5AC16622";
paths = (
{
closed = 0;
nodes = (
"440 700 LINE",
"20 700 LINE",
"20 420 LINE",
"20 420 OFFCURVE",
"111 500 OFFCURVE",
"252 500 CURVE SMOOTH",
"378 500 OFFCURVE",
"440 365 OFFCURVE",
"440 245 CURVE SMOOTH",
"440 140 OFFCURVE",
"371 0 OFFCURVE",
"209 0 CURVE SMOOTH",
"53 0 OFFCURVE",
"20 105 OFFCURVE",
"20 105 CURVE"
);
}
);
width = 460;
},
{
layerId = "1AB63056-1127-463F-B001-FB2AC81901C9";
paths = (
{
closed = 0;
nodes = (
"440 700 LINE",
"20 700 LINE",
"20 420 LINE",
"20 420 OFFCURVE",
"111 500 OFFCURVE",
"252 500 CURVE SMOOTH",
"378 500 OFFCURVE",
"440 365 OFFCURVE",
"440 245 CURVE SMOOTH",
"440 140 OFFCURVE",
"371 0 OFFCURVE",
"209 0 CURVE SMOOTH",
"53 0 OFFCURVE",
"20 105 OFFCURVE",
"20 105 CURVE"
);
}
);
width = 460;
},
{
associatedMasterId = "6F4F10D2-8254-4335-A627-9F8D8891324D";
layerId = "36A1AC3C-1441-4F10-9469-8B15D0AED522";
name = path;
paths = (
{
closed = 0;
nodes = (
"440 700 LINE",
"20 700 LINE",
"20 420 LINE",
"20 420 OFFCURVE",
"111 500 OFFCURVE",
"252 500 CURVE SMOOTH",
"378 500 OFFCURVE",
"440 365 OFFCURVE",
"440 245 CURVE SMOOTH",
"440 140 OFFCURVE",
"371 0 OFFCURVE",
"209 0 CURVE SMOOTH",
"53 0 OFFCURVE",
"20 105 OFFCURVE",
"20 105 CURVE"
);
}
);
visible = 1;
width = 460;
}
);
unicode = 0035;
},
{
glyphname = six;
lastChange = "2018-10-03 14:34:12 +0000";
layers = (
{
layerId = "6F4F10D2-8254-4335-A627-9F8D8891324D";
paths = (
{
closed = 1;
nodes = (
"406.745 -20 OFFCURVE",
"495 82.146 OFFCURVE",
"495 245 CURVE SMOOTH",
"495 395.956 OFFCURVE",
"415.956 475 OFFCURVE",
"265 475 CURVE SMOOTH",
"166.645 475 OFFCURVE",
"84.826 426.299 OFFCURVE",
"40.878 393.502 CURVE",
"49.249 592.24 OFFCURVE",
"117.88 680 OFFCURVE",
"265 680 CURVE SMOOTH",
"341.216 680 OFFCURVE",
"392.156 662.407 OFFCURVE",
"430.65 623.069 CURVE SMOOTH",
"434.285 619.326 OFFCURVE",
"439.371 617 OFFCURVE",
"445 617 CURVE SMOOTH",
"456.046 617 OFFCURVE",
"465 625.954 OFFCURVE",
"465 637 CURVE SMOOTH",
"465 642.486 OFFCURVE",
"462.791 647.456 OFFCURVE",
"459.214 651.07 CURVE SMOOTH",
"413.691 697.575 OFFCURVE",
"350.298 720 OFFCURVE",
"265 720 CURVE SMOOTH",
"82.697 720 OFFCURVE",
"0 600.928 OFFCURVE",
"0 350 CURVE SMOOTH",
"0 99.072 OFFCURVE",
"82.697 -20 OFFCURVE",
"265 -20 CURVE SMOOTH"
);
},
{
closed = 1;
nodes = (
"109.545 20 OFFCURVE",
"41.725 117.985 OFFCURVE",
"40.033 341.348 CURVE",
"63.44 362.39 OFFCURVE",
"152.37 435 OFFCURVE",
"265 435 CURVE SMOOTH",
"393.74 435 OFFCURVE",
"455 373.74 OFFCURVE",
"455 245 CURVE SMOOTH",
"455 103.459 OFFCURVE",
"383.556 20 OFFCURVE",
"265 20 CURVE SMOOTH"
);
}
);
width = 495;
},
{
layerId = "25139FCF-725A-49A6-A058-8DCF5AC16622";
paths = (
{
closed = 0;
nodes = (
"20 350 LINE",
"20 350 OFFCURVE",
"125 455 OFFCURVE",
"265 455 CURVE SMOOTH",
"405 455 OFFCURVE",
"475 385 OFFCURVE",
"475 245 CURVE SMOOTH",
"475 105 OFFCURVE",
"405 0 OFFCURVE",
"265 0 CURVE SMOOTH",
"55 0 OFFCURVE",
"20 175 OFFCURVE",
"20 350 CURVE SMOOTH",
"20 525 OFFCURVE",
"55 700 OFFCURVE",
"265 700 CURVE SMOOTH",
"342 700 OFFCURVE",
"401 682 OFFCURVE",
"445 637 CURVE"
);
}
);
width = 495;
},
{
layerId = "1AB63056-1127-463F-B001-FB2AC81901C9";
paths = (
{
closed = 0;
nodes = (
"20 350 LINE",
"20 350 OFFCURVE",
"125 455 OFFCURVE",
"265 455 CURVE SMOOTH",
"405 455 OFFCURVE",
"475 385 OFFCURVE",
"475 245 CURVE SMOOTH",
"475 105 OFFCURVE",
"405 0 OFFCURVE",
"265 0 CURVE SMOOTH",
"55 0 OFFCURVE",
"20 175 OFFCURVE",
"20 350 CURVE SMOOTH",
"20 525 OFFCURVE",
"55 700 OFFCURVE",
"265 700 CURVE SMOOTH",
"342 700 OFFCURVE",
"401 682 OFFCURVE",
"445 637 CURVE"
);
}
);
width = 495;
},
{
associatedMasterId = "6F4F10D2-8254-4335-A627-9F8D8891324D";
layerId = "BFCD62CE-79C5-4DC1-AC45-D7953E121F4B";
name = path;
paths = (
{
closed = 0;
nodes = (
"20 350 LINE",
"20 350 OFFCURVE",
"125 455 OFFCURVE",
"265 455 CURVE SMOOTH",
"405 455 OFFCURVE",
"475 385 OFFCURVE",
"475 245 CURVE SMOOTH",
"475 105 OFFCURVE",
"405 0 OFFCURVE",
"265 0 CURVE SMOOTH",
"55 0 OFFCURVE",
"20 175 OFFCURVE",
"20 350 CURVE SMOOTH",
"20 525 OFFCURVE",
"55 700 OFFCURVE",
"265 700 CURVE SMOOTH",
"342 700 OFFCURVE",
"401 682 OFFCURVE",
"445 637 CURVE"
);
}
);
visible = 1;
width = 495;
}
);
unicode = 0036;
},
{
glyphname = seven;
lastChange = "2018-10-03 14:34:19 +0000";
layers = (
{
layerId = "6F4F10D2-8254-4335-A627-9F8D8891324D";
paths = (
{
closed = 1;
nodes = (
"118.89 -20 OFFCURVE",
"126.426 -14.2 OFFCURVE",
"129.028 -6.177 CURVE SMOOTH",
"246.806 329.45 OFFCURVE",
"448.791 611.386 OFFCURVE",
"495.851 674.578 CURVE SMOOTH",
"502.688 683.759 OFFCURVE",
"503.629 692.328 OFFCURVE",
"498.671 702.394 CURVE SMOOTH",
"497.202 705.377 LINE SMOOTH",
"492.235 715.461 OFFCURVE",
"484.941 720 OFFCURVE",
"473.7 720 CURVE SMOOTH",
"14.46 720 LINE SMOOTH",
"4.183 720 OFFCURVE",
"-2.893 717.107 OFFCURVE",
"-10 710 CURVE SMOOTH",
"-17.107 702.893 OFFCURVE",
"-20 695.817 OFFCURVE",
"-20 685.54 CURVE SMOOTH",
"-20 595 LINE SMOOTH",
"-20 583.954 OFFCURVE",
"-11.046 575 OFFCURVE",
"0 575 CURVE SMOOTH",
"11.046 575 OFFCURVE",
"20 583.954 OFFCURVE",
"20 595 CURVE SMOOTH",
"20 680 LINE",
"450.217 680 LINE",
"385.018 590.03 OFFCURVE",
"201.734 321.806 OFFCURVE",
"91.288 7.077 CURVE SMOOTH",
"90.456 4.877 OFFCURVE",
"90 2.492 OFFCURVE",
"90 0 CURVE SMOOTH",
"90 -11.046 OFFCURVE",
"98.954 -20 OFFCURVE",
"110 -20 CURVE SMOOTH"
);
}
);
width = 600;
},
{
layerId = "25139FCF-725A-49A6-A058-8DCF5AC16622";
paths = (
{
closed = 0;
nodes = (
"110 0 LINE",
"245 385 OFFCURVE",
"490 700 OFFCURVE",
"490 700 CURVE SMOOTH",
"0 700 LINE",
"0 595 LINE"
);
}
);
width = 600;
},
{
layerId = "1AB63056-1127-463F-B001-FB2AC81901C9";
paths = (
{
closed = 0;
nodes = (
"110 0 LINE",
"245 385 OFFCURVE",
"490 700 OFFCURVE",
"490 700 CURVE SMOOTH",
"0 700 LINE",
"0 595 LINE"
);
}
);
width = 600;
},
{
associatedMasterId = "6F4F10D2-8254-4335-A627-9F8D8891324D";
layerId = "36EC9443-C3AC-4AB5-85DA-AEAD23DCF694";
name = path;
paths = (
{
closed = 0;
nodes = (
"110 0 LINE",
"245 385 OFFCURVE",
"490 700 OFFCURVE",
"490 700 CURVE SMOOTH",
"0 700 LINE",
"0 595 LINE"
);
}
);
visible = 1;
width = 600;
}
);
unicode = 0037;
},
{
glyphname = eight;
lastChange = "2018-10-03 14:34:26 +0000";
layers = (
{
layerId = "6F4F10D2-8254-4335-A627-9F8D8891324D";
paths = (
{
closed = 1;
nodes = (
"397.638 -20 OFFCURVE",
"513 67.215 OFFCURVE",
"513 177 CURVE SMOOTH",
"513 259.813 OFFCURVE",
"446.359 330.251 OFFCURVE",
"352.727 359.508 CURVE",
"422.328 390.952 OFFCURVE",
"470 455.34 OFFCURVE",
"470 530 CURVE SMOOTH",
"470 635.051 OFFCURVE",
"373.98 720 OFFCURVE",
"256 720 CURVE SMOOTH",
"138.297 720 OFFCURVE",
"43 635.284 OFFCURVE",
"43 530 CURVE SMOOTH",
"43 455.163 OFFCURVE",
"90.327 390.835 OFFCURVE",
"159.636 359.45 CURVE",
"66.459 330.131 OFFCURVE",
"0 259.646 OFFCURVE",
"0 177 CURVE SMOOTH",
"0 67.394 OFFCURVE",
"115.136 -20 OFFCURVE",
"256 -20 CURVE SMOOTH"
);
},
{
closed = 1;
nodes = (
"136.782 20 OFFCURVE",
"40 91.151 OFFCURVE",
"40 177 CURVE SMOOTH",
"40 262.362 OFFCURVE",
"137.451 334 OFFCURVE",
"256 334 CURVE SMOOTH",
"375.326 334 OFFCURVE",
"473 262.517 OFFCURVE",
"473 177 CURVE SMOOTH",
"473 90.996 OFFCURVE",
"375.998 20 OFFCURVE",
"256 20 CURVE SMOOTH"
);
},
{
closed = 1;
nodes = (
"159.673 379 OFFCURVE",
"83 446.256 OFFCURVE",
"83 530 CURVE SMOOTH",
"83 612.956 OFFCURVE",
"159.921 680 OFFCURVE",
"256 680 CURVE SMOOTH",
"352.355 680 OFFCURVE",
"430 612.702 OFFCURVE",
"430 530 CURVE SMOOTH",
"430 446.512 OFFCURVE",
"352.605 379 OFFCURVE",
"256 379 CURVE SMOOTH"
);
}
);
width = 513;
},
{
layerId = "25139FCF-725A-49A6-A058-8DCF5AC16622";
paths = (
{
closed = 1;
nodes = (
"493 79 OFFCURVE",
"387 0 OFFCURVE",
"256 0 CURVE SMOOTH",
"126 0 OFFCURVE",
"20 79 OFFCURVE",
"20 177 CURVE SMOOTH",
"20 274 OFFCURVE",
"126 354 OFFCURVE",
"256 354 CURVE SMOOTH",
"387 354 OFFCURVE",
"493 274 OFFCURVE",
"493 177 CURVE SMOOTH"
);
},
{
closed = 1;
nodes = (
"450 435 OFFCURVE",
"363 359 OFFCURVE",
"256 359 CURVE SMOOTH",
"149 359 OFFCURVE",
"63 435 OFFCURVE",
"63 530 CURVE SMOOTH",
"63 624 OFFCURVE",
"149 700 OFFCURVE",
"256 700 CURVE SMOOTH",
"363 700 OFFCURVE",
"450 624 OFFCURVE",
"450 530 CURVE SMOOTH"
);
}
);
width = 513;
},
{
layerId = "1AB63056-1127-463F-B001-FB2AC81901C9";
paths = (
{
closed = 1;
nodes = (
"493 79 OFFCURVE",
"387 0 OFFCURVE",
"256 0 CURVE SMOOTH",
"126 0 OFFCURVE",
"20 79 OFFCURVE",
"20 177 CURVE SMOOTH",
"20 274 OFFCURVE",
"126 354 OFFCURVE",
"256 354 CURVE SMOOTH",
"387 354 OFFCURVE",
"493 274 OFFCURVE",
"493 177 CURVE SMOOTH"
);
},
{
closed = 1;
nodes = (
"450 435 OFFCURVE",
"363 359 OFFCURVE",
"256 359 CURVE SMOOTH",
"149 359 OFFCURVE",
"63 435 OFFCURVE",
"63 530 CURVE SMOOTH",
"63 624 OFFCURVE",
"149 700 OFFCURVE",
"256 700 CURVE SMOOTH",
"363 700 OFFCURVE",
"450 624 OFFCURVE",
"450 530 CURVE SMOOTH"
);
}
);
width = 513;
},
{
associatedMasterId = "6F4F10D2-8254-4335-A627-9F8D8891324D";
layerId = "51EDDB0D-3AB3-4321-856C-8B1279AC6FAF";
name = path;
paths = (
{
closed = 1;
nodes = (
"493 79 OFFCURVE",
"387 0 OFFCURVE",
"256 0 CURVE SMOOTH",
"126 0 OFFCURVE",
"20 79 OFFCURVE",
"20 177 CURVE SMOOTH",
"20 274 OFFCURVE",
"126 354 OFFCURVE",
"256 354 CURVE SMOOTH",
"387 354 OFFCURVE",
"493 274 OFFCURVE",
"493 177 CURVE SMOOTH"
);
},
{
closed = 1;
nodes = (
"450 435 OFFCURVE",
"363 359 OFFCURVE",
"256 359 CURVE SMOOTH",
"149 359 OFFCURVE",
"63 435 OFFCURVE",
"63 530 CURVE SMOOTH",
"63 624 OFFCURVE",
"149 700 OFFCURVE",
"256 700 CURVE SMOOTH",
"363 700 OFFCURVE",
"450 624 OFFCURVE",
"450 530 CURVE SMOOTH"
);
}
);
visible = 1;
width = 513;
}
);
unicode = 0038;
},
{
glyphname = nine;
lastChange = "2018-10-03 14:34:32 +0000";
layers = (
{
layerId = "6F4F10D2-8254-4335-A627-9F8D8891324D";
paths = (
{
closed = 1;
nodes = (
"412.303 -20 OFFCURVE",
"495 99.072 OFFCURVE",
"495 350 CURVE SMOOTH",
"495 600.928 OFFCURVE",
"412.303 720 OFFCURVE",
"230 720 CURVE SMOOTH",
"88.255 720 OFFCURVE",
"0 617.854 OFFCURVE",
"0 455 CURVE SMOOTH",
"0 304.044 OFFCURVE",
"79.044 225 OFFCURVE",
"230 225 CURVE SMOOTH",
"328.355 225 OFFCURVE",
"410.174 273.701 OFFCURVE",
"454.122 306.498 CURVE",
"445.751 107.76 OFFCURVE",
"377.12 20 OFFCURVE",
"230 20 CURVE SMOOTH",
"153.785 20 OFFCURVE",
"102.845 37.592 OFFCURVE",
"64.351 76.93 CURVE SMOOTH",
"60.717 80.674 OFFCURVE",
"55.63 83 OFFCURVE",
"50 83 CURVE SMOOTH",
"38.954 83 OFFCURVE",
"30 74.046 OFFCURVE",
"30 63 CURVE SMOOTH",
"30 57.515 OFFCURVE",
"32.208 52.545 OFFCURVE",
"35.784 48.932 CURVE SMOOTH",
"81.307 2.425 OFFCURVE",
"144.701 -20 OFFCURVE",
"230 -20 CURVE SMOOTH"
);
},
{
closed = 1;
nodes = (
"101.26 265 OFFCURVE",
"40 326.26 OFFCURVE",
"40 455 CURVE SMOOTH",
"40 596.541 OFFCURVE",
"111.444 680 OFFCURVE",
"230 680 CURVE SMOOTH",
"385.455 680 OFFCURVE",
"453.275 582.015 OFFCURVE",
"454.967 358.652 CURVE",
"431.56 337.61 OFFCURVE",
"342.63 265 OFFCURVE",
"230 265 CURVE SMOOTH"
);
}
);
width = 495;
},
{
layerId = "25139FCF-725A-49A6-A058-8DCF5AC16622";
paths = (
{
closed = 0;
nodes = (
"475 350 LINE",
"475 350 OFFCURVE",
"370 245 OFFCURVE",
"230 245 CURVE SMOOTH",
"90 245 OFFCURVE",
"20 315 OFFCURVE",
"20 455 CURVE SMOOTH",
"20 595 OFFCURVE",
"90 700 OFFCURVE",
"230 700 CURVE SMOOTH",
"440 700 OFFCURVE",
"475 525 OFFCURVE",
"475 350 CURVE SMOOTH",
"475 175 OFFCURVE",
"440 0 OFFCURVE",
"230 0 CURVE SMOOTH",
"153 0 OFFCURVE",
"94 18 OFFCURVE",
"50 63 CURVE"
);
}
);
width = 495;
},
{
layerId = "1AB63056-1127-463F-B001-FB2AC81901C9";
paths = (
{
closed = 0;
nodes = (
"475 350 LINE",
"475 350 OFFCURVE",
"370 245 OFFCURVE",
"230 245 CURVE SMOOTH",
"90 245 OFFCURVE",
"20 315 OFFCURVE",
"20 455 CURVE SMOOTH",
"20 595 OFFCURVE",
"90 700 OFFCURVE",
"230 700 CURVE SMOOTH",
"440 700 OFFCURVE",
"475 525 OFFCURVE",
"475 350 CURVE SMOOTH",
"475 175 OFFCURVE",
"440 0 OFFCURVE",
"230 0 CURVE SMOOTH",
"153 0 OFFCURVE",
"94 18 OFFCURVE",
"50 63 CURVE"
);
}
);
width = 495;
},
{
associatedMasterId = "6F4F10D2-8254-4335-A627-9F8D8891324D";
layerId = "913C2D21-3218-4497-9E69-3A3992186E88";
name = path;
paths = (
{
closed = 0;
nodes = (
"475 350 LINE",
"475 350 OFFCURVE",
"370 245 OFFCURVE",
"230 245 CURVE SMOOTH",
"90 245 OFFCURVE",
"20 315 OFFCURVE",
"20 455 CURVE SMOOTH",
"20 595 OFFCURVE",
"90 700 OFFCURVE",
"230 700 CURVE SMOOTH",
"440 700 OFFCURVE",
"475 525 OFFCURVE",
"475 350 CURVE SMOOTH",
"475 175 OFFCURVE",
"440 0 OFFCURVE",
"230 0 CURVE SMOOTH",
"153 0 OFFCURVE",
"94 18 OFFCURVE",
"50 63 CURVE"
);
}
);
visible = 1;
width = 495;
}
);
unicode = 0039;
},
{
glyphname = zero.osf;
lastChange = "2018-10-03 14:34:41 +0000";
layers = (
{
layerId = "6F4F10D2-8254-4335-A627-9F8D8891324D";
paths = (
{
closed = 1;
nodes = (
"320.738 -20 OFFCURVE",
"385 76.178 OFFCURVE",
"385 250 CURVE SMOOTH",
"385 357.039 OFFCURVE",
"368.025 520 OFFCURVE",
"198 520 CURVE SMOOTH",
"14.783 520 OFFCURVE",
"0 361.933 OFFCURVE",
"0 253 CURVE SMOOTH",
"0 166.223 OFFCURVE",
"14.496 -20 OFFCURVE",
"198 -20 CURVE SMOOTH"
);
},
{
closed = 1;
nodes = (
"90.777 20 OFFCURVE",
"40 97.319 OFFCURVE",
"40 253 CURVE SMOOTH",
"40 360.067 OFFCURVE",
"51.217 480 OFFCURVE",
"198 480 CURVE SMOOTH",
"301.546 480 OFFCURVE",
"345 409.639 OFFCURVE",
"345 250 CURVE SMOOTH",
"345 98.457 OFFCURVE",
"296.456 20 OFFCURVE",
"198 20 CURVE SMOOTH"
);
}
);
width = 385;
},
{
layerId = "25139FCF-725A-49A6-A058-8DCF5AC16622";
paths = (
{
closed = 1;
nodes = (
"365 164 OFFCURVE",
"350 0 OFFCURVE",
"198 0 CURVE SMOOTH",
"33 0 OFFCURVE",
"20 167 OFFCURVE",
"20 253 CURVE SMOOTH",
"20 361 OFFCURVE",
"33 500 OFFCURVE",
"198 500 CURVE SMOOTH",
"350 500 OFFCURVE",
"365 356 OFFCURVE",
"365 250 CURVE SMOOTH"
);
}
);
width = 385;
},
{
layerId = "1AB63056-1127-463F-B001-FB2AC81901C9";
paths = (
{
closed = 1;
nodes = (
"365 164 OFFCURVE",
"350 0 OFFCURVE",
"198 0 CURVE SMOOTH",
"33 0 OFFCURVE",
"20 167 OFFCURVE",
"20 253 CURVE SMOOTH",
"20 361 OFFCURVE",
"33 500 OFFCURVE",
"198 500 CURVE SMOOTH",
"350 500 OFFCURVE",
"365 356 OFFCURVE",
"365 250 CURVE SMOOTH"
);
}
);
width = 385;
},
{
associatedMasterId = "6F4F10D2-8254-4335-A627-9F8D8891324D";
layerId = "B52FE905-2062-4DB5-8B17-ADC815157488";
name = path;
paths = (
{
closed = 1;
nodes = (
"365 164 OFFCURVE",
"350 0 OFFCURVE",
"198 0 CURVE SMOOTH",
"33 0 OFFCURVE",
"20 167 OFFCURVE",
"20 253 CURVE SMOOTH",
"20 361 OFFCURVE",
"33 500 OFFCURVE",
"198 500 CURVE SMOOTH",
"350 500 OFFCURVE",
"365 356 OFFCURVE",
"365 250 CURVE SMOOTH"
);
}
);
visible = 1;
width = 385;
}
);
},
{
glyphname = one.osf;
lastChange = "2018-10-03 14:34:52 +0000";
layers = (
{
layerId = "6F4F10D2-8254-4335-A627-9F8D8891324D";
paths = (
{
closed = 1;
nodes = (
"139.046 -20 OFFCURVE",
"148 -11.046 OFFCURVE",
"148 0 CURVE SMOOTH",
"148 483.954 LINE SMOOTH",
"148 495.065 OFFCURVE",
"143.664 502.356 OFFCURVE",
"133.902 507.663 CURVE SMOOTH",
"131.22 509.12 LINE SMOOTH",
"121.458 514.427 OFFCURVE",
"112.981 514.099 OFFCURVE",
"103.657 508.055 CURVE SMOOTH",
"9.393 446.959 LINE SMOOTH",
"3.751 443.423 OFFCURVE",
"0 437.15 OFFCURVE",
"0 430 CURVE SMOOTH",
"0 418.954 OFFCURVE",
"8.954 410 OFFCURVE",
"20 410 CURVE SMOOTH",
"24.111 410 OFFCURVE",
"27.932 411.241 OFFCURVE",
"31.11 413.367 CURVE SMOOTH",
"108 463.204 LINE",
"108 0 LINE SMOOTH",
"108 -11.046 OFFCURVE",
"116.954 -20 OFFCURVE",
"128 -20 CURVE SMOOTH"
);
}
);
width = 148;
},
{
layerId = "25139FCF-725A-49A6-A058-8DCF5AC16622";
paths = (
{
closed = 0;
nodes = (
"128 0 LINE",
"128 500 LINE",
"20 430 LINE"
);
}
);
width = 148;
},
{
layerId = "1AB63056-1127-463F-B001-FB2AC81901C9";
paths = (
{
closed = 0;
nodes = (
"128 0 LINE",
"128 500 LINE",
"20 430 LINE"
);
}
);
width = 148;
},
{
associatedMasterId = "6F4F10D2-8254-4335-A627-9F8D8891324D";
layerId = "4D7BF973-80E5-49F1-A9E5-B15D8332A0C6";
name = path;
paths = (
{
closed = 0;
nodes = (
"128 0 LINE",
"128 500 LINE",
"20 430 LINE"
);
}
);
visible = 1;
width = 148;
}
);
},
{
glyphname = two.osf;
lastChange = "2018-10-03 14:35:08 +0000";
layers = (
{
layerId = "6F4F10D2-8254-4335-A627-9F8D8891324D";
paths = (
{
closed = 1;
nodes = (
"272 -20 LINE SMOOTH",
"283.046 -20 OFFCURVE",
"292 -11.046 OFFCURVE",
"292 0 CURVE SMOOTH",
"292 11.046 OFFCURVE",
"283.046 20 OFFCURVE",
"272 20 CURVE SMOOTH",
"62.923 20 LINE",
"91.544 59.721 OFFCURVE",
"141.789 128.635 OFFCURVE",
"180.659 177.558 CURVE SMOOTH",
"186.069 184.349 OFFCURVE",
"191.466 190.97 OFFCURVE",
"196.839 197.56 CURVE SMOOTH",
"237.41 247.324 OFFCURVE",
"277 295.885 OFFCURVE",
"277 371 CURVE SMOOTH",
"277 457.075 OFFCURVE",
"229.108 512 OFFCURVE",
"153 512 CURVE SMOOTH",
"12.769 512 OFFCURVE",
"0.61 424.237 OFFCURVE",
"0.198 420.822 CURVE SMOOTH",
"0.067 419.9 OFFCURVE",
"0 418.958 OFFCURVE",
"0 418 CURVE SMOOTH",
"0 406.954 OFFCURVE",
"8.954 398 OFFCURVE",
"20 398 CURVE SMOOTH",
"30.212 398 OFFCURVE",
"38.637 405.654 OFFCURVE",
"39.85 415.538 CURVE SMOOTH",
"40.468 419.663 OFFCURVE",
"50.242 472 OFFCURVE",
"153 472 CURVE SMOOTH",
"206.077 472 OFFCURVE",
"237 435.087 OFFCURVE",
"237 371 CURVE SMOOTH",
"237 310.124 OFFCURVE",
"206.408 272.6 OFFCURVE",
"165.836 222.835 CURVE SMOOTH",
"160.464 216.245 OFFCURVE",
"154.923 209.449 OFFCURVE",
"149.357 202.462 CURVE SMOOTH",
"102.862 143.943 OFFCURVE",
"40.526 57.499 OFFCURVE",
"17.109 24.779 CURVE SMOOTH",
"10.591 15.667 OFFCURVE",
"9.991 7.135 OFFCURVE",
"15.122 -2.804 CURVE SMOOTH",
"16.578 -5.623 LINE SMOOTH",
"21.706 -15.557 OFFCURVE",
"29 -20 OFFCURVE",
"40.18 -20 CURVE SMOOTH"
);
}
);
width = 292;
},
{
layerId = "25139FCF-725A-49A6-A058-8DCF5AC16622";
paths = (
{
closed = 0;
nodes = (
"272 0 LINE",
"24 0 LINE SMOOTH",
"24 0 OFFCURVE",
"107 117 OFFCURVE",
"165 190 CURVE SMOOTH",
"212 249 OFFCURVE",
"257 294 OFFCURVE",
"257 371 CURVE SMOOTH",
"257 426 OFFCURVE",
"233 492 OFFCURVE",
"153 492 CURVE SMOOTH",
"28 492 OFFCURVE",
"20 418 OFFCURVE",
"20 418 CURVE"
);
}
);
width = 292;
},
{
layerId = "1AB63056-1127-463F-B001-FB2AC81901C9";
paths = (
{
closed = 0;
nodes = (
"272 0 LINE",
"24 0 LINE SMOOTH",
"24 0 OFFCURVE",
"107 117 OFFCURVE",
"165 190 CURVE SMOOTH",
"212 249 OFFCURVE",
"257 294 OFFCURVE",
"257 371 CURVE SMOOTH",
"257 426 OFFCURVE",
"233 492 OFFCURVE",
"153 492 CURVE SMOOTH",
"28 492 OFFCURVE",
"20 418 OFFCURVE",
"20 418 CURVE"
);
}
);
width = 292;
},
{
associatedMasterId = "6F4F10D2-8254-4335-A627-9F8D8891324D";
layerId = "ECCBC7E0-87AA-4906-ABBC-C63ECD43AEA0";
name = path;
paths = (
{
closed = 0;
nodes = (
"272 0 LINE",
"24 0 LINE SMOOTH",
"24 0 OFFCURVE",
"107 117 OFFCURVE",
"165 190 CURVE SMOOTH",
"212 249 OFFCURVE",
"257 294 OFFCURVE",
"257 371 CURVE SMOOTH",
"257 426 OFFCURVE",
"233 492 OFFCURVE",
"153 492 CURVE SMOOTH",
"28 492 OFFCURVE",
"20 418 OFFCURVE",
"20 418 CURVE"
);
}
);
visible = 1;
width = 292;
}
);
},
{
glyphname = three.osf;
lastChange = "2018-10-03 14:35:13 +0000";
layers = (
{
layerId = "6F4F10D2-8254-4335-A627-9F8D8891324D";
paths = (
{
closed = 1;
nodes = (
"260.972 -20 OFFCURVE",
"338 43.21 OFFCURVE",
"338 121 CURVE SMOOTH",
"338 179.274 OFFCURVE",
"307.623 226.575 OFFCURVE",
"258.549 252.175 CURVE",
"307.938 276.173 OFFCURVE",
"338 321.235 OFFCURVE",
"338 379 CURVE SMOOTH",
"338 456.79 OFFCURVE",
"260.972 520 OFFCURVE",
"169 520 CURVE SMOOTH",
"12.765 520 OFFCURVE",
"0.575 431.005 OFFCURVE",
"0.2 427.841 CURVE SMOOTH",
"0.068 426.913 OFFCURVE",
"0 425.965 OFFCURVE",
"0 425 CURVE SMOOTH",
"0 413.954 OFFCURVE",
"8.954 405 OFFCURVE",
"20 405 CURVE SMOOTH",
"30.199 405 OFFCURVE",
"38.614 412.634 OFFCURVE",
"39.845 422.499 CURVE SMOOTH",
"40.481 426.642 OFFCURVE",
"50.853 480 OFFCURVE",
"169 480 CURVE SMOOTH",
"239.454 480 OFFCURVE",
"298 433.595 OFFCURVE",
"298 379 CURVE SMOOTH",
"298 320.203 OFFCURVE",
"255.822 280.317 OFFCURVE",
"187.809 273.908 CURVE SMOOTH",
"174.877 272.689 OFFCURVE",
"168 266.257 OFFCURVE",
"168 253.466 CURVE SMOOTH",
"168 252.478 LINE SMOOTH",
"168 239.712 OFFCURVE",
"174.83 233.341 OFFCURVE",
"187.68 231.989 CURVE SMOOTH",
"254.475 224.962 OFFCURVE",
"298 181.873 OFFCURVE",
"298 121 CURVE SMOOTH",
"298 66.405 OFFCURVE",
"239.454 20 OFFCURVE",
"169 20 CURVE SMOOTH",
"50.854 20 OFFCURVE",
"40.481 73.358 OFFCURVE",
"39.845 77.501 CURVE SMOOTH",
"38.614 87.366 OFFCURVE",
"30.199 95 OFFCURVE",
"20 95 CURVE SMOOTH",
"8.954 95 OFFCURVE",
"0 86.046 OFFCURVE",
"0 75 CURVE SMOOTH",
"0 74.035 OFFCURVE",
"0.068 73.087 OFFCURVE",
"0.2 72.159 CURVE SMOOTH",
"0.575 68.996 OFFCURVE",
"12.763 -20 OFFCURVE",
"169 -20 CURVE SMOOTH"
);
}
);
width = 338;
},
{
layerId = "25139FCF-725A-49A6-A058-8DCF5AC16622";
paths = (
{
closed = 0;
nodes = (
"20 75 LINE",
"20 75 OFFCURVE",
"28 0 OFFCURVE",
"169 0 CURVE SMOOTH",
"243 0 OFFCURVE",
"318 49 OFFCURVE",
"318 121 CURVE SMOOTH",
"318 194 OFFCURVE",
"262 253 OFFCURVE",
"168 253 CURVE",
"262 253 OFFCURVE",
"318 306 OFFCURVE",
"318 379 CURVE SMOOTH",
"318 451 OFFCURVE",
"243 500 OFFCURVE",
"169 500 CURVE SMOOTH",
"28 500 OFFCURVE",
"20 425 OFFCURVE",
"20 425 CURVE"
);
}
);
width = 338;
},
{
layerId = "1AB63056-1127-463F-B001-FB2AC81901C9";
paths = (
{
closed = 0;
nodes = (
"20 75 LINE",
"20 75 OFFCURVE",
"28 0 OFFCURVE",
"169 0 CURVE SMOOTH",
"243 0 OFFCURVE",
"318 49 OFFCURVE",
"318 121 CURVE SMOOTH",
"318 194 OFFCURVE",
"262 253 OFFCURVE",
"168 253 CURVE",
"262 253 OFFCURVE",
"318 306 OFFCURVE",
"318 379 CURVE SMOOTH",
"318 451 OFFCURVE",
"243 500 OFFCURVE",
"169 500 CURVE SMOOTH",
"28 500 OFFCURVE",
"20 425 OFFCURVE",
"20 425 CURVE"
);
}
);
width = 338;
},
{
associatedMasterId = "6F4F10D2-8254-4335-A627-9F8D8891324D";
layerId = "AAED9F9F-510F-4FCC-B8EB-E705F0F78D03";
name = path;
paths = (
{
closed = 0;
nodes = (
"20 75 LINE",
"20 75 OFFCURVE",
"28 0 OFFCURVE",
"169 0 CURVE SMOOTH",
"243 0 OFFCURVE",
"318 49 OFFCURVE",
"318 121 CURVE SMOOTH",
"318 194 OFFCURVE",
"262 253 OFFCURVE",
"168 253 CURVE",
"262 253 OFFCURVE",
"318 306 OFFCURVE",
"318 379 CURVE SMOOTH",
"318 451 OFFCURVE",
"243 500 OFFCURVE",
"169 500 CURVE SMOOTH",
"28 500 OFFCURVE",
"20 425 OFFCURVE",
"20 425 CURVE"
);
}
);
visible = 1;
width = 338;
}
);
},
{
glyphname = four.osf;
lastChange = "2018-10-03 14:35:18 +0000";
layers = (
{
layerId = "6F4F10D2-8254-4335-A627-9F8D8891324D";
paths = (
{
closed = 1;
nodes = (
"268.046 -20 OFFCURVE",
"277 -11.046 OFFCURVE",
"277 0 CURVE SMOOTH",
"277 113 LINE",
"373 113 LINE SMOOTH",
"384.046 113 OFFCURVE",
"393 121.954 OFFCURVE",
"393 133 CURVE SMOOTH",
"393 144.046 OFFCURVE",
"384.046 153 OFFCURVE",
"373 153 CURVE SMOOTH",
"277 153 LINE",
"277 482.51 LINE SMOOTH",
"277 494.342 OFFCURVE",
"271.573 501.6 OFFCURVE",
"260.224 504.946 CURVE SMOOTH",
"256.975 505.904 LINE SMOOTH",
"245.626 509.25 OFFCURVE",
"237.13 506.097 OFFCURVE",
"230.711 496.158 CURVE SMOOTH",
"11.901 157.325 LINE SMOOTH",
"5.875 147.993 OFFCURVE",
"5.558 139.519 OFFCURVE",
"10.871 129.763 CURVE SMOOTH",
"12.328 127.088 LINE SMOOTH",
"17.641 117.331 OFFCURVE",
"24.932 113 OFFCURVE",
"36.041 113 CURVE SMOOTH",
"237 113 LINE",
"237 0 LINE SMOOTH",
"237 -11.046 OFFCURVE",
"245.954 -20 OFFCURVE",
"257 -20 CURVE SMOOTH"
);
},
{
closed = 1;
nodes = (
"237 432.163 LINE",
"237 153 LINE",
"56.723 153 LINE"
);
}
);
width = 393;
},
{
layerId = "25139FCF-725A-49A6-A058-8DCF5AC16622";
paths = (
{
closed = 0;
nodes = (
"257 0 LINE",
"257 500 LINE",
"20 133 LINE",
"373 133 LINE"
);
}
);
width = 393;
},
{
layerId = "1AB63056-1127-463F-B001-FB2AC81901C9";
paths = (
{
closed = 0;
nodes = (
"257 0 LINE",
"257 500 LINE",
"20 133 LINE",
"373 133 LINE"
);
}
);
width = 393;
},
{
associatedMasterId = "6F4F10D2-8254-4335-A627-9F8D8891324D";
layerId = "C5A874EB-2FAC-48DC-AE52-585EC5616194";
name = path;
paths = (
{
closed = 0;
nodes = (
"257 0 LINE",
"257 500 LINE",
"20 133 LINE",
"373 133 LINE"
);
}
);
visible = 1;
width = 393;
}
);
},
{
glyphname = five.osf;
lastChange = "2018-10-03 14:35:23 +0000";
layers = (
{
layerId = "6F4F10D2-8254-4335-A627-9F8D8891324D";
paths = (
{
closed = 1;
nodes = (
"261.399 -20 OFFCURVE",
"340 64.409 OFFCURVE",
"340 175 CURVE SMOOTH",
"340 290.001 OFFCURVE",
"275.57 377 OFFCURVE",
"186 377 CURVE SMOOTH",
"121.752 377 OFFCURVE",
"70.846 355.346 OFFCURVE",
"40 337.675 CURVE",
"40 480 LINE",
"320 480 LINE SMOOTH",
"331.046 480 OFFCURVE",
"340 488.954 OFFCURVE",
"340 500 CURVE SMOOTH",
"340 511.046 OFFCURVE",
"331.046 520 OFFCURVE",
"320 520 CURVE SMOOTH",
"34.46 520 LINE SMOOTH",
"24.183 520 OFFCURVE",
"17.107 517.107 OFFCURVE",
"10 510 CURVE SMOOTH",
"2.893 502.893 OFFCURVE",
"0 495.817 OFFCURVE",
"0 485.54 CURVE SMOOTH",
"0 316.467 LINE SMOOTH",
"0 305.142 OFFCURVE",
"4.669 297.847 OFFCURVE",
"14.955 293.106 CURVE SMOOTH",
"18.366 291.533 LINE SMOOTH",
"28.483 286.869 OFFCURVE",
"36.666 288.168 OFFCURVE",
"45.904 294.423 CURVE SMOOTH",
"68.212 309.507 OFFCURVE",
"118.171 337 OFFCURVE",
"186 337 CURVE SMOOTH",
"251.991 337 OFFCURVE",
"300 268.003 OFFCURVE",
"300 175 CURVE SMOOTH",
"300 86.47 OFFCURVE",
"239.01 20 OFFCURVE",
"155 20 CURVE SMOOTH",
"63.231 20 OFFCURVE",
"40.973 75.776 OFFCURVE",
"39.046 81.12 CURVE",
"36.461 89.172 OFFCURVE",
"28.911 95 OFFCURVE",
"20 95 CURVE SMOOTH",
"8.954 95 OFFCURVE",
"0 86.046 OFFCURVE",
"0 75 CURVE SMOOTH",
"0 72.596 OFFCURVE",
"0.424 70.291 OFFCURVE",
"1.202 68.156 CURVE SMOOTH",
"3.176 62.426 OFFCURVE",
"33.754 -20 OFFCURVE",
"155 -20 CURVE SMOOTH"
);
}
);
width = 340;
},
{
layerId = "25139FCF-725A-49A6-A058-8DCF5AC16622";
paths = (
{
closed = 0;
nodes = (
"320 500 LINE",
"20 500 LINE",
"20 300 LINE",
"20 300 OFFCURVE",
"85 357 OFFCURVE",
"186 357 CURVE SMOOTH",
"276 357 OFFCURVE",
"320 261 OFFCURVE",
"320 175 CURVE SMOOTH",
"320 100 OFFCURVE",
"271 0 OFFCURVE",
"155 0 CURVE SMOOTH",
"44 0 OFFCURVE",
"20 75 OFFCURVE",
"20 75 CURVE"
);
}
);
width = 340;
},
{
layerId = "1AB63056-1127-463F-B001-FB2AC81901C9";
paths = (
{
closed = 0;
nodes = (
"320 500 LINE",
"20 500 LINE",
"20 300 LINE",
"20 300 OFFCURVE",
"85 357 OFFCURVE",
"186 357 CURVE SMOOTH",
"276 357 OFFCURVE",
"320 261 OFFCURVE",
"320 175 CURVE SMOOTH",
"320 100 OFFCURVE",
"271 0 OFFCURVE",
"155 0 CURVE SMOOTH",
"44 0 OFFCURVE",
"20 75 OFFCURVE",
"20 75 CURVE"
);
}
);
width = 340;
},
{
associatedMasterId = "6F4F10D2-8254-4335-A627-9F8D8891324D";
layerId = "A162A6A9-E2D8-4B17-A14E-49A386F3BE57";
name = path;
paths = (
{
closed = 0;
nodes = (
"320 500 LINE",
"20 500 LINE",
"20 300 LINE",
"20 300 OFFCURVE",
"85 357 OFFCURVE",
"186 357 CURVE SMOOTH",
"276 357 OFFCURVE",
"320 261 OFFCURVE",
"320 175 CURVE SMOOTH",
"320 100 OFFCURVE",
"271 0 OFFCURVE",
"155 0 CURVE SMOOTH",
"44 0 OFFCURVE",
"20 75 OFFCURVE",
"20 75 CURVE"
);
}
);
visible = 1;
width = 340;
}
);
},
{
glyphname = six.osf;
lastChange = "2018-10-03 14:35:31 +0000";
layers = (
{
layerId = "6F4F10D2-8254-4335-A627-9F8D8891324D";
paths = (
{
closed = 1;
nodes = (
"299.598 -20 OFFCURVE",
"365 56.127 OFFCURVE",
"365 175 CURVE SMOOTH",
"365 285.96 OFFCURVE",
"305.96 345 OFFCURVE",
"195 345 CURVE SMOOTH",
"129.935 345 OFFCURVE",
"74.831 315.865 OFFCURVE",
"41.209 292.608 CURVE",
"49.113 423.477 OFFCURVE",
"96.212 480 OFFCURVE",
"195 480 CURVE SMOOTH",
"247.876 480 OFFCURVE",
"282.618 468.083 OFFCURVE",
"309.832 440.884 CURVE SMOOTH",
"313.453 437.25 OFFCURVE",
"318.464 435 OFFCURVE",
"324 435 CURVE SMOOTH",
"335.046 435 OFFCURVE",
"344 443.954 OFFCURVE",
"344 455 CURVE SMOOTH",
"344 460.573 OFFCURVE",
"341.72 465.614 OFFCURVE",
"338.042 469.241 CURVE SMOOTH",
"303.846 503.379 OFFCURVE",
"256.821 520 OFFCURVE",
"195 520 CURVE SMOOTH",
"61.231 520 OFFCURVE",
"0 432.069 OFFCURVE",
"0 250 CURVE SMOOTH",
"0 67.931 OFFCURVE",
"61.231 -20 OFFCURVE",
"195 -20 CURVE SMOOTH"
);
},
{
closed = 1;
nodes = (
"88.07 20 OFFCURVE",
"41.7 86.225 OFFCURVE",
"40.046 241.277 CURVE",
"58.814 257.744 OFFCURVE",
"119.265 305 OFFCURVE",
"195 305 CURVE SMOOTH",
"283.748 305 OFFCURVE",
"325 263.748 OFFCURVE",
"325 175 CURVE SMOOTH",
"325 77.437 OFFCURVE",
"276.404 20 OFFCURVE",
"195 20 CURVE SMOOTH"
);
}
);
width = 365;
},
{
layerId = "25139FCF-725A-49A6-A058-8DCF5AC16622";
paths = (
{
closed = 0;
nodes = (
"20 250 LINE",
"20 250 OFFCURVE",
"95 325 OFFCURVE",
"195 325 CURVE SMOOTH",
"295 325 OFFCURVE",
"345 275 OFFCURVE",
"345 175 CURVE SMOOTH",
"345 75 OFFCURVE",
"295 0 OFFCURVE",
"195 0 CURVE SMOOTH",
"45 0 OFFCURVE",
"20 125 OFFCURVE",
"20 250 CURVE SMOOTH",
"20 375 OFFCURVE",
"45 500 OFFCURVE",
"195 500 CURVE SMOOTH",
"250 500 OFFCURVE",
"292 487 OFFCURVE",
"324 455 CURVE"
);
}
);
width = 365;
},
{
layerId = "1AB63056-1127-463F-B001-FB2AC81901C9";
paths = (
{
closed = 0;
nodes = (
"20 250 LINE",
"20 250 OFFCURVE",
"95 325 OFFCURVE",
"195 325 CURVE SMOOTH",
"295 325 OFFCURVE",
"345 275 OFFCURVE",
"345 175 CURVE SMOOTH",
"345 75 OFFCURVE",
"295 0 OFFCURVE",
"195 0 CURVE SMOOTH",
"45 0 OFFCURVE",
"20 125 OFFCURVE",
"20 250 CURVE SMOOTH",
"20 375 OFFCURVE",
"45 500 OFFCURVE",
"195 500 CURVE SMOOTH",
"250 500 OFFCURVE",
"292 487 OFFCURVE",
"324 455 CURVE"
);
}
);
width = 365;
},
{
associatedMasterId = "6F4F10D2-8254-4335-A627-9F8D8891324D";
layerId = "8C9F4F30-5604-499D-B498-EBE9AFB0FB0A";
name = path;
paths = (
{
closed = 0;
nodes = (
"20 250 LINE",
"20 250 OFFCURVE",
"95 325 OFFCURVE",
"195 325 CURVE SMOOTH",
"295 325 OFFCURVE",
"345 275 OFFCURVE",
"345 175 CURVE SMOOTH",
"345 75 OFFCURVE",
"295 0 OFFCURVE",
"195 0 CURVE SMOOTH",
"45 0 OFFCURVE",
"20 125 OFFCURVE",
"20 250 CURVE SMOOTH",
"20 375 OFFCURVE",
"45 500 OFFCURVE",
"195 500 CURVE SMOOTH",
"250 500 OFFCURVE",
"292 487 OFFCURVE",
"324 455 CURVE"
);
}
);
visible = 1;
width = 365;
}
);
},
{
glyphname = seven.osf;
lastChange = "2018-10-03 14:35:36 +0000";
layers = (
{
layerId = "6F4F10D2-8254-4335-A627-9F8D8891324D";
paths = (
{
closed = 1;
nodes = (
"107.887 -20 OFFCURVE",
"115.42 -14.204 OFFCURVE",
"118.025 -6.185 CURVE SMOOTH",
"199.41 226.716 OFFCURVE",
"338.051 423.292 OFFCURVE",
"376.002 474.704 CURVE SMOOTH",
"382.723 483.81 OFFCURVE",
"383.632 492.323 OFFCURVE",
"378.678 502.382 CURVE SMOOTH",
"377.202 505.377 LINE SMOOTH",
"372.235 515.462 OFFCURVE",
"364.941 520 OFFCURVE",
"353.7 520 CURVE SMOOTH",
"34.46 520 LINE SMOOTH",
"24.183 520 OFFCURVE",
"17.107 517.107 OFFCURVE",
"10 510 CURVE SMOOTH",
"2.893 502.893 OFFCURVE",
"0 495.817 OFFCURVE",
"0 485.54 CURVE SMOOTH",
"0 425 LINE SMOOTH",
"0 413.954 OFFCURVE",
"8.954 405 OFFCURVE",
"20 405 CURVE SMOOTH",
"31.046 405 OFFCURVE",
"40 413.954 OFFCURVE",
"40 425 CURVE SMOOTH",
"40 480 LINE",
"330.443 480 LINE",
"278.989 407.891 OFFCURVE",
"155.634 222.699 OFFCURVE",
"80.262 7.007 CURVE SMOOTH",
"79.446 4.826 OFFCURVE",
"79 2.465 OFFCURVE",
"79 0 CURVE SMOOTH",
"79 -11.046 OFFCURVE",
"87.954 -20 OFFCURVE",
"99 -20 CURVE SMOOTH"
);
}
);
width = 390;
},
{
layerId = "25139FCF-725A-49A6-A058-8DCF5AC16622";
paths = (
{
closed = 0;
nodes = (
"99 0 LINE",
"195 275 OFFCURVE",
"370 500 OFFCURVE",
"370 500 CURVE SMOOTH",
"20 500 LINE",
"20 425 LINE"
);
}
);
width = 390;
},
{
layerId = "1AB63056-1127-463F-B001-FB2AC81901C9";
paths = (
{
closed = 0;
nodes = (
"99 0 LINE",
"195 275 OFFCURVE",
"370 500 OFFCURVE",
"370 500 CURVE SMOOTH",
"20 500 LINE",
"20 425 LINE"
);
}
);
width = 390;
},
{
associatedMasterId = "6F4F10D2-8254-4335-A627-9F8D8891324D";
layerId = "18734339-9EF7-4292-9199-72CA63F9EE62";
name = path;
paths = (
{
closed = 0;
nodes = (
"99 0 LINE",
"195 275 OFFCURVE",
"370 500 OFFCURVE",
"370 500 CURVE SMOOTH",
"20 500 LINE",
"20 425 LINE"
);
}
);
visible = 1;
width = 390;
}
);
},
